<svg xmlns="http://www.w3.org/2000/svg" width="50" height="50" viewBox="0 0 50 50"><g><g><path fill="#112d35" d="M0 25C0 11.193 11.193 0 25 0s25 11.193 25 25-11.193 25-25 25S0 38.807 0 25zm34.043-6.808c-.898-.894-2.177-1.449-3.594-1.449-2.719 0-4.923 2.054-4.923 4.59 0 .359.043.71.127 1.044-4.091-.191-7.72-2.018-10.148-4.796a4.335 4.335 0 0 0-.666 2.309c0 1.592.869 2.998 2.19 3.82a5.18 5.18 0 0 1-2.23-.574v.058c0 2.224 1.697 4.08 3.95 4.5-.413.106-.85.16-1.298.16-.317 0-.625-.027-.927-.08.627 1.822 2.445 3.15 4.6 3.188-1.685 1.23-3.808 1.964-6.115 1.964-.397 0-.789-.022-1.175-.063 2.18 1.3 4.769 2.06 7.547 2.06 9.058 0 14.01-6.995 14.01-13.059 0-.2-.006-.397-.016-.595a9.671 9.671 0 0 0 2.457-2.374c-.882.366-1.832.61-2.827.722 1.017-.569 1.797-1.468 2.166-2.539a10.38 10.38 0 0 1-3.128 1.114z"/></g></g></svg>