<svg width="238" height="86" viewBox="0 0 238 86" fill="none" xmlns="http://www.w3.org/2000/svg">
<g clip-path="url(#clip0_1281_2765)">
<path d="M222.629 86H15.0742C13.0947 86.0001 11.1346 85.6104 9.30572 84.8529C7.47687 84.0955 5.81512 82.9853 4.41535 81.5857C3.01558 80.186 1.9052 78.5244 1.14761 76.6956C0.390022 74.8668 6.33323e-05 72.9068 0 70.9273L0 15.0727C6.33323e-05 13.0932 0.390022 11.1332 1.14761 9.30438C1.9052 7.47561 3.01558 5.81397 4.41535 4.41433C5.81512 3.01469 7.47687 1.90447 9.30572 1.14706C11.1346 0.389644 13.0947 -0.000126643 15.0742 3.08664e-08H222.629C226.626 3.08664e-08 230.46 1.58801 233.287 4.4147C236.113 7.24138 237.701 11.0752 237.701 15.0727V70.9273C237.701 74.9248 236.113 78.7586 233.287 81.5853C230.46 84.412 226.626 86 222.629 86Z" fill="#D9ECDC"/>
<path d="M65.53 24.6245V32.4742H64.0723V29.11H60.0129V32.4742H58.5549V24.6245H60.0129V27.8652H64.0723V24.6245H65.53Z" fill="#288F51"/>
<path d="M67.5993 25.2591C67.5178 25.1818 67.4529 25.0886 67.4085 24.9854C67.3642 24.8821 67.3413 24.7709 67.3413 24.6586C67.3413 24.5462 67.3642 24.435 67.4085 24.3318C67.4529 24.2285 67.5178 24.1354 67.5993 24.058C67.7724 23.8967 68.002 23.8101 68.2385 23.8169C68.473 23.8095 68.7015 23.8915 68.8778 24.0462C68.9609 24.1176 69.0271 24.2066 69.0717 24.3066C69.1163 24.4067 69.1382 24.5154 69.1358 24.6249C69.1387 24.7404 69.1177 24.8552 69.0742 24.9621C69.0306 25.0691 68.9655 25.1659 68.8829 25.2466C68.7987 25.3308 68.698 25.3967 68.5872 25.4403C68.4764 25.4838 68.3578 25.504 68.2388 25.4996C68.0023 25.5063 67.7726 25.4197 67.5995 25.2584M67.532 26.4873H68.9338V32.4756H67.532V26.4873Z" fill="#288F51"/>
<path d="M76.7437 26.4862V31.5662C76.7437 33.6744 75.6672 34.7281 73.5141 34.7273C72.961 34.7309 72.41 34.6578 71.8769 34.5103C71.412 34.3886 70.977 34.1727 70.5989 33.8761L71.2259 32.8221C71.5209 33.057 71.8579 33.2337 72.2189 33.3429C72.6112 33.4727 73.0217 33.5392 73.435 33.5397C74.0928 33.5397 74.5751 33.3902 74.8818 33.0912C75.1883 32.7922 75.3417 32.335 75.3417 31.7232V31.408C75.1002 31.6716 74.8008 31.8755 74.4671 32.0036C74.1053 32.1415 73.7208 32.21 73.3337 32.2055C72.7979 32.2125 72.2687 32.0868 71.7933 31.8396C71.3423 31.6058 70.9655 31.2507 70.7055 30.8143C70.4441 30.3534 70.3068 29.8327 70.3068 29.3029C70.3068 28.7731 70.4441 28.2524 70.7055 27.7916C70.9666 27.3584 71.3433 27.0066 71.7933 26.7756C72.2704 26.5329 72.7994 26.4097 73.3347 26.4168C73.7392 26.4121 74.1409 26.4844 74.5184 26.63C74.8662 26.7671 75.1729 26.9913 75.4092 27.2811V26.4853L76.7437 26.4862ZM74.8548 30.5394C75.0234 30.3814 75.1561 30.1891 75.244 29.9754C75.3319 29.7618 75.3729 29.5317 75.3644 29.3009C75.3725 29.0723 75.3312 28.8446 75.2433 28.6334C75.1553 28.4223 75.0228 28.2326 74.8548 28.0773C74.4854 27.7728 74.0215 27.6063 73.5428 27.6063C73.064 27.6063 72.6002 27.7728 72.2307 28.0773C72.0625 28.2325 71.9299 28.4222 71.8417 28.6333C71.7536 28.8445 71.712 29.0722 71.72 29.3009C71.7116 29.5318 71.7529 29.7619 71.841 29.9755C71.9291 30.1892 72.062 30.3814 72.2307 30.5394C72.5984 30.8477 73.0629 31.0166 73.5428 31.0166C74.0226 31.0166 74.4871 30.8477 74.8548 30.5394Z" fill="#288F51"/>
<path d="M83.7984 27.0803C84.2544 27.5215 84.4825 28.1756 84.4825 29.0428V32.4733H83.0807V29.2222C83.1125 28.7955 82.9801 28.3728 82.7106 28.0406C82.5732 27.9031 82.4082 27.7965 82.2265 27.7277C82.0447 27.659 81.8504 27.6298 81.6565 27.642C81.4317 27.6301 81.2068 27.6653 80.9963 27.7453C80.7858 27.8253 80.5944 27.9484 80.4342 28.1066C80.1137 28.4769 79.9525 28.9588 79.9856 29.4474V32.4733H78.5839V24.1538H79.9856V27.1816C80.2242 26.9298 80.5175 26.7362 80.8429 26.6159C81.207 26.4801 81.5933 26.4133 81.9818 26.4191C82.3134 26.4034 82.6448 26.4538 82.9567 26.5674C83.2686 26.681 83.5548 26.8555 83.7986 27.0808" fill="#288F51"/>
<path d="M90.9526 25.8464V28.2349H94.7429V29.4684H90.9526V32.4738H89.4949V24.6255H95.2252V25.8466L90.9526 25.8464Z" fill="#288F51"/>
<path d="M102.088 29.9287H97.3897C97.4595 30.3489 97.6911 30.7251 98.035 30.9765C98.4125 31.244 98.8674 31.3801 99.3297 31.364C99.6312 31.3732 99.9313 31.3202 100.211 31.2082C100.491 31.0961 100.745 30.9275 100.957 30.7129L101.708 31.5765C101.434 31.901 101.083 32.1516 100.687 32.3054C100.182 32.4906 99.645 32.5731 99.1078 32.5483C98.5706 32.5234 98.0437 32.3917 97.558 32.1607C97.0746 31.9146 96.6719 31.5349 96.3979 31.0667C96.1206 30.5842 95.979 30.0357 95.9879 29.4792C95.9803 28.9284 96.1177 28.3852 96.3866 27.9043C96.6454 27.4442 97.0278 27.0658 97.4905 26.8117C97.9789 26.5451 98.5279 26.4095 99.0842 26.4179C99.6303 26.409 100.169 26.5426 100.648 26.8054C101.103 27.0584 101.476 27.4357 101.725 27.8932C101.99 28.3916 102.123 28.9497 102.11 29.5142C102.11 29.6106 102.103 29.749 102.088 29.9292M97.9451 27.9381C97.6318 28.2098 97.4299 28.5876 97.3781 28.9991H100.776C100.73 28.5921 100.534 28.2166 100.228 27.9451C99.9046 27.6849 99.5024 27.5425 99.0875 27.5413C98.6726 27.5402 98.2697 27.6804 97.9451 27.9388" fill="#288F51"/>
<path d="M106.989 26.4187V27.7532C106.881 27.7327 106.773 27.7215 106.663 27.7197C106.429 27.7062 106.194 27.7417 105.974 27.8239C105.754 27.906 105.554 28.0331 105.385 28.1969C105.057 28.576 104.892 29.0695 104.925 29.57V32.4743H103.524V26.4869H104.858V27.3616C105.262 26.7323 105.972 26.418 106.989 26.4185" fill="#288F51"/>
<path d="M112.165 32.149C111.987 32.2891 111.783 32.3921 111.565 32.4519C111.322 32.5203 111.071 32.5543 110.818 32.553C110.261 32.5886 109.713 32.4033 109.293 32.0371C109.104 31.8375 108.959 31.6009 108.866 31.3423C108.774 31.0836 108.736 30.8086 108.755 30.5346V27.6524H107.769V26.5311H108.756V25.1631H110.158V26.5311H111.762V27.6524H110.158V30.5008C110.141 30.7421 110.218 30.9806 110.371 31.1673C110.452 31.2472 110.549 31.3089 110.655 31.3484C110.761 31.388 110.875 31.4044 110.988 31.3967C111.27 31.4073 111.547 31.3207 111.773 31.1512L112.165 32.149Z" fill="#288F51"/>
<path d="M113.387 25.2591C113.306 25.1817 113.241 25.0886 113.196 24.9853C113.152 24.8821 113.129 24.7709 113.129 24.6585C113.129 24.5462 113.152 24.435 113.196 24.3317C113.241 24.2285 113.306 24.1353 113.387 24.058C113.56 23.8967 113.79 23.81 114.027 23.8168C114.261 23.8099 114.489 23.8918 114.666 24.0461C114.749 24.1176 114.815 24.2065 114.86 24.3066C114.904 24.4067 114.926 24.5154 114.924 24.6249C114.926 24.7403 114.905 24.855 114.862 24.9619C114.818 25.0689 114.753 25.1657 114.671 25.2466C114.587 25.3306 114.486 25.3965 114.375 25.44C114.264 25.4835 114.146 25.5038 114.027 25.4995C113.79 25.5063 113.561 25.4197 113.387 25.2584M113.319 26.4872H114.72V32.4756H113.319V26.4872Z" fill="#288F51"/>
<path d="M117.962 24.1538H116.561V32.4745H117.962V24.1538Z" fill="#288F51"/>
<path d="M119.881 25.2591C119.8 25.1818 119.735 25.0886 119.691 24.9854C119.646 24.8821 119.624 24.7709 119.624 24.6586C119.624 24.5462 119.646 24.435 119.691 24.3318C119.735 24.2285 119.8 24.1354 119.881 24.058C120.055 23.8967 120.284 23.8101 120.521 23.8169C120.755 23.8095 120.984 23.8915 121.16 24.0462C121.243 24.1176 121.309 24.2066 121.354 24.3066C121.399 24.4067 121.42 24.5154 121.418 24.6249C121.421 24.7404 121.4 24.8552 121.356 24.9621C121.313 25.0691 121.248 25.1659 121.165 25.2466C121.081 25.3308 120.98 25.3967 120.869 25.4403C120.759 25.4838 120.64 25.504 120.521 25.4996C120.285 25.5063 120.055 25.4197 119.882 25.2584M119.815 26.4873H121.217V32.4756H119.815V26.4873Z" fill="#288F51"/>
<path d="M126.706 32.149C126.528 32.2891 126.324 32.3921 126.106 32.4519C125.863 32.5203 125.612 32.5543 125.359 32.553C124.802 32.5886 124.254 32.4033 123.834 32.0371C123.645 31.8375 123.5 31.6009 123.407 31.3423C123.315 31.0836 123.277 30.8086 123.296 30.5346V27.6524H122.31V26.5311H123.297V25.1631H124.698V26.5311H126.302V27.6524H124.698V30.5008C124.682 30.7421 124.758 30.9806 124.912 31.1673C124.992 31.2472 125.089 31.3089 125.195 31.3484C125.302 31.388 125.415 31.4044 125.528 31.3967C125.81 31.4073 126.088 31.3207 126.313 31.1512L126.706 32.149Z" fill="#288F51"/>
<path d="M133.729 26.4861L130.926 32.9557C130.744 33.4948 130.414 33.9714 129.973 34.3303C129.574 34.603 129.099 34.7422 128.616 34.7277C128.315 34.7271 128.015 34.6782 127.73 34.583C127.465 34.5008 127.22 34.3632 127.012 34.1793L127.573 33.1477C127.712 33.2768 127.874 33.3795 128.05 33.4506C128.226 33.5233 128.414 33.5614 128.605 33.5627C128.825 33.5712 129.041 33.503 129.216 33.3698C129.412 33.1948 129.563 32.9762 129.659 32.7317L129.76 32.4949L127.147 26.4854H128.605L130.489 30.9149L132.384 26.4854L133.729 26.4861Z" fill="#288F51"/>
<path d="M40.1671 15.6945C39.7526 15.2855 39.26 14.9642 38.7186 14.7497C38.1773 14.5352 37.5982 14.432 37.0161 14.4461C36.431 14.4545 35.8535 14.5791 35.317 14.8127C34.7805 15.0462 34.2958 15.3841 33.8911 15.8066L32.1131 17.6581L30.3251 15.8066C29.9204 15.3873 29.4371 15.0519 28.9028 14.8193C28.3685 14.5868 27.7937 14.4618 27.211 14.4514C26.0344 14.4305 24.8976 14.8779 24.0508 15.6951C23.6316 16.0998 23.2961 16.583 23.0635 17.1173C22.831 17.6516 22.706 18.2265 22.6956 18.8091C22.6747 19.9858 23.1221 21.1225 23.9393 21.9693L30.2814 28.4337C30.3409 28.4949 30.4159 28.5388 30.4984 28.5608L31.9887 28.9545C32.1018 28.985 32.2222 28.9721 32.3263 28.9184L33.9162 28.1048C33.9578 28.0825 33.9963 28.0549 34.0307 28.0225L40.2764 21.9669C40.7826 21.4439 41.1525 20.8043 41.3532 20.1047C41.554 19.405 41.5795 18.6666 41.4276 17.9548C41.245 17.0911 40.8049 16.303 40.1654 15.6945" fill="#91BE98"/>
<path d="M35.7641 40.0191C35.206 40.0208 34.669 39.8053 34.2667 39.4183C33.8645 39.0313 33.6285 38.5031 33.6086 37.9453L33.358 31.4242L28.6468 31.8691C28.5557 31.8772 28.4642 31.8591 28.383 31.8169C28.3018 31.7748 28.2344 31.7103 28.1886 31.6311C28.1433 31.5514 28.1221 31.4603 28.1274 31.3688C28.1327 31.2773 28.1643 31.1893 28.2185 31.1153L35.2172 21.5535C35.262 21.4932 35.3202 21.4442 35.3871 21.4103C35.4541 21.3764 35.528 21.3584 35.6031 21.3579C35.6782 21.3586 35.7521 21.377 35.8188 21.4117C35.8855 21.4463 35.943 21.4962 35.9867 21.5573L42.9317 31.2911C42.9856 31.3665 43.0162 31.456 43.0197 31.5486C43.0233 31.6411 42.9996 31.7327 42.9517 31.812C42.9054 31.8924 42.8359 31.957 42.7523 31.9972C42.6687 32.0375 42.5749 32.0515 42.4831 32.0375L37.9602 31.4457L37.9178 37.8763C37.9131 38.4454 37.6841 38.9896 37.2805 39.3909C36.8769 39.7921 36.3313 40.018 35.7622 40.0193" fill="#288F51"/>
<path d="M26.7533 52.7643V55.073H25.5384V52.7821L22.9678 48.5308H24.2673L26.1825 51.7168L28.1174 48.5308H29.3135L26.7533 52.7643Z" fill="#1A1818"/>
<path d="M30.8747 54.8113C30.4792 54.6025 30.1505 54.2864 29.9265 53.8993C29.7026 53.4956 29.5851 53.0415 29.5851 52.5798C29.5851 52.1181 29.7026 51.664 29.9265 51.2602C30.1515 50.8755 30.48 50.5617 30.8747 50.3545C31.2946 50.132 31.7639 50.0192 32.2391 50.0268C32.7175 50.0186 33.1903 50.1313 33.6136 50.3545C34.0077 50.5624 34.3361 50.876 34.5618 51.2602C34.7857 51.664 34.9032 52.1181 34.9032 52.5798C34.9032 53.0415 34.7857 53.4956 34.5618 53.8993C34.3371 54.2859 34.0086 54.6018 33.6136 54.8113C33.19 55.0335 32.7174 55.1458 32.2391 55.1378C31.7641 55.1452 31.2949 55.0329 30.8747 54.8113ZM33.3045 53.7086C33.5754 53.3941 33.7244 52.9929 33.7244 52.5778C33.7244 52.1628 33.5754 51.7616 33.3045 51.4471C33.1664 51.3055 33.0003 51.1942 32.8169 51.1202C32.6335 51.0462 32.4368 51.0111 32.2391 51.0172C32.042 51.0107 31.8457 51.0456 31.663 51.1196C31.4802 51.1937 31.315 51.3053 31.178 51.4471C30.9094 51.7626 30.7619 52.1635 30.7619 52.5778C30.7619 52.9922 30.9094 53.3931 31.178 53.7086C31.3152 53.8502 31.4804 53.9616 31.6631 54.0356C31.8459 54.1097 32.042 54.1447 32.2391 54.1385C32.4367 54.1443 32.6334 54.1091 32.8168 54.0351C33.0001 53.9611 33.1662 53.8499 33.3045 53.7086Z" fill="#1A1818"/>
<path d="M40.8552 50.083V55.0725H39.7425V54.4371C39.5539 54.6629 39.3141 54.8406 39.0432 54.9553C38.7568 55.0787 38.4478 55.1411 38.136 55.1386C37.8499 55.1543 37.5635 55.1132 37.2934 55.0176C37.0233 54.9219 36.7748 54.7738 36.5623 54.5816C36.1786 54.2102 35.9867 53.6603 35.9867 52.9319V50.083H37.1555V52.7744C37.1273 53.1353 37.2354 53.4937 37.4584 53.7788C37.5703 53.8929 37.7054 53.9816 37.8546 54.0387C38.0039 54.0959 38.1637 54.1203 38.3231 54.1101C38.5069 54.1191 38.6906 54.0891 38.862 54.0223C39.0335 53.9554 39.1889 53.8531 39.3181 53.7221C39.5827 53.4122 39.7156 53.011 39.6883 52.6044V50.083H40.8552Z" fill="#1A1818"/>
<path d="M45.2746 50.0269V51.1395C45.1852 51.121 45.0943 51.1114 45.003 51.1108C44.8077 51.0997 44.6122 51.1292 44.4289 51.1974C44.2455 51.2656 44.0783 51.371 43.9376 51.507C43.6642 51.8233 43.5267 52.2348 43.5552 52.652V55.073H42.3876V50.0838H43.499V50.8127C43.8355 50.2895 44.4273 50.0278 45.2746 50.0278" fill="#1A1818"/>
<path d="M50.1795 49.8212V50.1203H51.554V51.0547H50.2176V55.0731H49.05V51.0549H48.2277V50.1205H49.05V49.8015C49.0371 49.5699 49.072 49.3381 49.1523 49.1206C49.2327 48.903 49.357 48.7043 49.5173 48.5367C49.6946 48.3752 49.9026 48.2511 50.1289 48.1717C50.3552 48.0923 50.5951 48.0592 50.8344 48.0744C51.2059 48.0538 51.5748 48.1477 51.8911 48.3435L51.5634 49.2232C51.3752 49.0894 51.1502 49.0171 50.9193 49.0163C50.4272 49.0163 50.1809 49.2846 50.1804 49.8212" fill="#1A1818"/>
<path d="M57.0118 52.9525H53.097C53.1552 53.3026 53.348 53.616 53.6341 53.826C53.9488 54.0486 54.3279 54.1619 54.7132 54.1486C54.9644 54.1565 55.2146 54.1123 55.4479 54.0188C55.6812 53.9253 55.8926 53.7845 56.0689 53.6053L56.6944 54.3268C56.4662 54.5968 56.1741 54.8054 55.8446 54.9335C55.4749 55.0749 55.0817 55.1447 54.6859 55.1392C54.183 55.149 53.6853 55.0358 53.2362 54.8093C52.8331 54.6049 52.4974 54.2887 52.2692 53.8985C52.038 53.4964 51.92 53.0392 51.9277 52.5754C51.9211 52.1163 52.0359 51.6637 52.2605 51.2633C52.4754 50.8794 52.794 50.5637 53.18 50.3525C53.5862 50.1302 54.0433 50.0173 54.5063 50.0248C54.9618 50.017 55.4115 50.1282 55.8109 50.3475C56.1899 50.5582 56.5007 50.873 56.7067 51.2546C56.9284 51.6696 57.0395 52.1347 57.0294 52.605C57.0294 52.6861 57.0231 52.8018 57.0106 52.9513M53.5593 51.2918C53.298 51.5176 53.1298 51.8324 53.0871 52.1751H55.9191C55.8813 51.8315 55.7145 51.5151 55.4526 51.2897C55.1906 51.0642 54.8529 50.9465 54.5075 50.9602C54.1615 50.9507 53.8241 51.0689 53.5593 51.2918Z" fill="#1A1818"/>
<path d="M61.039 50.0269V51.1395C60.95 51.1211 60.8595 51.1115 60.7686 51.1108C60.5732 51.0996 60.3776 51.129 60.1941 51.1971C60.0105 51.2652 59.8431 51.3705 59.7023 51.5065C59.4288 51.8228 59.2914 52.2343 59.3198 52.6515V55.0726H58.152V50.0838H59.2634V50.8127C59.5999 50.2895 60.1917 50.0278 61.039 50.0278" fill="#1A1818"/>
<path d="M65.0759 54.8014C64.9284 54.919 64.7584 55.0051 64.5763 55.0544C64.374 55.1114 64.1648 55.1399 63.9546 55.139C63.4908 55.1684 63.0341 55.0134 62.6838 54.7079C62.5265 54.5415 62.4053 54.3444 62.3281 54.1288C62.2509 53.9133 62.2193 53.684 62.2353 53.4556V51.0545H61.413V50.1201H62.2355V48.98H63.4043V50.1201H64.74V51.0545H63.4039V53.4269C63.3896 53.6284 63.4529 53.8277 63.5809 53.984C63.6479 54.0506 63.7284 54.1022 63.8169 54.1354C63.9054 54.1687 63.9999 54.1828 64.0942 54.1769C64.3294 54.185 64.5603 54.1124 64.7485 53.9712L65.0759 54.8014Z" fill="#1A1818"/>
<path d="M66.0952 49.0592C66.0272 48.995 65.9729 48.9175 65.9358 48.8316C65.8988 48.7457 65.8796 48.6531 65.8796 48.5595C65.8796 48.466 65.8988 48.3734 65.9358 48.2874C65.9729 48.2015 66.0272 48.1241 66.0952 48.0599C66.2391 47.9254 66.4303 47.8533 66.6272 47.8592C66.8227 47.8533 67.0132 47.9214 67.1606 48.05C67.2298 48.1095 67.285 48.1836 67.3221 48.267C67.3591 48.3504 67.3772 48.441 67.375 48.5323C67.3773 48.6285 67.3598 48.7242 67.3235 48.8134C67.2873 48.9025 67.2332 48.9833 67.1645 49.0507C67.0941 49.1206 67.0101 49.1754 66.9177 49.2116C66.8254 49.2478 66.7266 49.2647 66.6274 49.2613C66.4304 49.2667 66.2393 49.1942 66.0955 49.0594M66.0393 50.0836H67.2069V55.0738H66.039L66.0393 50.0836Z" fill="#1A1818"/>
<path d="M69.9082 48.1382H68.7406V55.0723H69.9082V48.1382Z" fill="#1A1818"/>
<path d="M71.4961 49.0592C71.428 48.995 71.3738 48.9175 71.3367 48.8316C71.2996 48.7457 71.2805 48.6531 71.2805 48.5595C71.2805 48.466 71.2996 48.3734 71.3367 48.2874C71.3738 48.2015 71.428 48.1241 71.4961 48.0599C71.64 47.9254 71.8312 47.8533 72.0281 47.8592C72.2236 47.8533 72.4141 47.9214 72.5615 48.05C72.6307 48.1095 72.6859 48.1836 72.7229 48.267C72.76 48.3504 72.7781 48.441 72.7759 48.5323C72.7781 48.6285 72.7606 48.7242 72.7244 48.8134C72.6882 48.9025 72.6341 48.9833 72.5653 49.0507C72.4949 49.1206 72.411 49.1754 72.3186 49.2116C72.2263 49.2478 72.1275 49.2647 72.0283 49.2613C71.8312 49.2667 71.6399 49.1941 71.4961 49.0592ZM71.4399 50.0833H72.6075V55.0736H71.4404L71.4399 50.0833Z" fill="#1A1818"/>
<path d="M77.1411 54.8014C76.9936 54.919 76.8236 55.0051 76.6415 55.0544C76.4392 55.1114 76.23 55.1399 76.0198 55.139C75.5559 55.1684 75.0992 55.0134 74.749 54.7079C74.5916 54.5415 74.4705 54.3444 74.3933 54.1288C74.3161 53.9133 74.2845 53.684 74.3005 53.4556V51.0545H73.4781V50.1201H74.3005V48.98H75.4693V50.1201H76.805V51.0545H75.469V53.4269C75.4547 53.6284 75.5181 53.8277 75.646 53.984C75.7131 54.0506 75.7936 54.1022 75.8821 54.1354C75.9706 54.1687 76.0651 54.1828 76.1594 54.1769C76.3946 54.185 76.6254 54.1124 76.8137 53.9712L77.1411 54.8014Z" fill="#1A1818"/>
<path d="M82.7766 50.083L80.4404 55.4745C80.2888 55.9238 80.0128 56.3209 79.6446 56.6197C79.3128 56.8477 78.9171 56.9643 78.5146 56.9525C78.2634 56.9514 78.014 56.9102 77.7758 56.8305C77.5547 56.7616 77.3509 56.6466 77.1777 56.4929L77.6451 55.6332C77.7608 55.741 77.8956 55.8263 78.0425 55.8849C78.1889 55.9461 78.346 55.9779 78.5048 55.9785C78.6879 55.9856 78.8679 55.9293 79.0143 55.8191C79.1768 55.6734 79.3031 55.4917 79.383 55.2886L79.4676 55.0918L77.2896 50.083H78.5045L80.0744 53.7725L81.6543 50.083H82.7766Z" fill="#1A1818"/>
<path d="M87.2522 48.1382H86.0848V55.0723H87.2522V48.1382Z" fill="#1A1818"/>
<path d="M93.4573 52.9525H89.5426C89.6011 53.3022 89.7938 53.6151 90.0796 53.8248C90.3944 54.0474 90.7734 54.1607 91.1588 54.1474C91.4101 54.1553 91.6604 54.1111 91.8939 54.0175C92.1274 53.9239 92.3389 53.783 92.5152 53.6036L93.1407 54.3251C92.9125 54.5951 92.6204 54.8037 92.2909 54.9319C91.9212 55.0732 91.528 55.143 91.1322 55.1375C90.6297 55.1479 90.1323 55.0354 89.6832 54.8098C89.2801 54.6053 88.9444 54.2892 88.7162 53.899C88.485 53.4969 88.367 53.0397 88.3747 52.5759C88.3681 52.1168 88.4829 51.6642 88.7075 51.2638C88.9224 50.8799 89.241 50.5642 89.627 50.353C90.0333 50.1307 90.4903 50.0178 90.9533 50.0253C91.4088 50.0175 91.8585 50.1287 92.2579 50.3479C92.6369 50.5587 92.9477 50.8735 93.1537 51.2551C93.3754 51.6701 93.4866 52.1352 93.4764 52.6055C93.4764 52.6866 93.4701 52.8023 93.4576 52.9518M90.0049 51.2918C89.7436 51.5176 89.5754 51.8324 89.5327 52.1751H92.3647C92.3268 51.8315 92.1601 51.5151 91.8981 51.2897C91.6362 51.0642 91.2984 50.9465 90.9531 50.9602C90.6071 50.9507 90.2697 51.0689 90.0049 51.2918Z" fill="#1A1818"/>
<path d="M99.2702 50.0828L97.1296 55.0723H95.9238L93.7832 50.082H94.9981L96.5494 53.7826L98.1479 50.082L99.2702 50.0828Z" fill="#1A1818"/>
<path d="M104.671 52.9525H100.757C100.815 53.3022 101.008 53.6151 101.294 53.8248C101.608 54.0474 101.987 54.1607 102.373 54.1474C102.624 54.1553 102.874 54.1111 103.108 54.0175C103.341 53.9239 103.553 53.783 103.729 53.6036L104.355 54.3251C104.127 54.5951 103.834 54.8037 103.505 54.9319C103.135 55.0732 102.742 55.143 102.346 55.1375C101.844 55.1479 101.346 55.0354 100.897 54.8098C100.494 54.6053 100.158 54.2892 99.9302 53.899C99.699 53.4969 99.581 53.0397 99.5887 52.5759C99.5821 52.1168 99.6969 51.6642 99.9215 51.2638C100.136 50.8799 100.455 50.5642 100.841 50.353C101.247 50.1307 101.704 50.0178 102.167 50.0253C102.623 50.0175 103.073 50.1287 103.472 50.3479C103.851 50.5587 104.162 50.8735 104.368 51.2551C104.589 51.6701 104.701 52.1352 104.69 52.6055C104.69 52.6866 104.684 52.8023 104.672 52.9518M101.219 51.2918C100.958 51.5176 100.789 51.8324 100.747 52.1751H103.579C103.541 51.8315 103.374 51.5151 103.112 51.2897C102.85 51.0642 102.512 50.9465 102.167 50.9602C101.821 50.9507 101.484 51.0689 101.219 51.2918Z" fill="#1A1818"/>
<path d="M106.979 48.1382H105.811V55.0723H106.979V48.1382Z" fill="#1A1818"/>
<path d="M111.147 49.0592C111.079 48.995 111.024 48.9175 110.987 48.8316C110.95 48.7457 110.931 48.6531 110.931 48.5595C110.931 48.4659 110.95 48.3733 110.987 48.2874C111.024 48.2015 111.079 48.1241 111.147 48.0599C111.291 47.9253 111.483 47.8532 111.68 47.8592C111.875 47.8535 112.065 47.9216 112.212 48.05C112.281 48.1094 112.337 48.1835 112.374 48.2669C112.411 48.3503 112.429 48.4409 112.427 48.5323C112.429 48.6285 112.412 48.724 112.376 48.8132C112.339 48.9023 112.285 48.9832 112.217 49.0507C112.146 49.1204 112.062 49.175 111.97 49.2112C111.878 49.2474 111.779 49.2644 111.68 49.2612C111.483 49.2668 111.291 49.1943 111.147 49.0594M111.091 50.0835H112.258V55.0738H111.091V50.0835Z" fill="#1A1818"/>
<path d="M114.145 54.9781C113.817 54.898 113.504 54.7623 113.221 54.5768L113.669 53.6884C113.918 53.8497 114.191 53.9711 114.477 54.0485C114.779 54.1364 115.093 54.1816 115.408 54.183C116.105 54.183 116.454 53.9994 116.454 53.6322C116.456 53.5506 116.431 53.4706 116.383 53.4047C116.335 53.3388 116.266 53.2909 116.187 53.2684C115.909 53.1755 115.623 53.1096 115.333 53.0716C114.993 53.0245 114.657 52.9528 114.328 52.8572C114.07 52.7764 113.837 52.6295 113.653 52.4311C113.452 52.1968 113.349 51.8935 113.368 51.5852C113.363 51.3612 113.415 51.1397 113.519 50.9413C113.623 50.7428 113.775 50.5739 113.962 50.4501C114.439 50.1441 114.999 49.9955 115.565 50.0252C115.91 50.026 116.255 50.0653 116.593 50.1424C116.887 50.2032 117.171 50.3089 117.434 50.4559L116.985 51.3443C116.552 51.0919 116.057 50.9623 115.556 50.9693C115.287 50.9539 115.018 51.0071 114.775 51.1239C114.697 51.1602 114.631 51.2174 114.584 51.2891C114.537 51.3608 114.51 51.4442 114.508 51.5299C114.506 51.6185 114.533 51.7052 114.584 51.7772C114.636 51.8491 114.71 51.9022 114.794 51.9286C115.08 52.0305 115.376 52.104 115.676 52.1478C116.009 52.1946 116.337 52.2662 116.658 52.3621C116.909 52.4404 117.136 52.582 117.316 52.7733C117.513 53.0006 117.613 53.2965 117.594 53.5968C117.597 53.82 117.543 54.0403 117.436 54.2365C117.33 54.4327 117.175 54.5982 116.986 54.7169C116.49 55.0227 115.913 55.1696 115.332 55.1379C114.931 55.1382 114.532 55.0844 114.145 54.9781Z" fill="#1A1818"/>
<path d="M125.528 50.5778C125.908 50.9453 126.098 51.4902 126.099 52.2126V55.0716H124.931V52.3633C124.959 52.0073 124.848 51.6543 124.622 51.3777C124.508 51.2628 124.371 51.1737 124.219 51.1163C124.068 51.0589 123.906 51.0346 123.744 51.0449C123.557 51.0353 123.369 51.0649 123.194 51.1318C123.019 51.1988 122.859 51.3016 122.726 51.4337C122.459 51.7413 122.325 52.1422 122.352 52.5487V55.0716H121.183V48.1382H122.351V50.6613C122.551 50.4516 122.795 50.2901 123.066 50.1891C123.37 50.0779 123.691 50.023 124.015 50.0271C124.291 50.0139 124.567 50.0558 124.827 50.1503C125.087 50.2449 125.325 50.3902 125.528 50.5778Z" fill="#1A1818"/>
<path d="M127.641 49.0592C127.573 48.995 127.519 48.9176 127.482 48.8316C127.445 48.7457 127.426 48.6531 127.426 48.5595C127.426 48.466 127.445 48.3734 127.482 48.2875C127.519 48.2015 127.573 48.1241 127.641 48.0599C127.785 47.9252 127.976 47.853 128.173 47.8593C128.369 47.8535 128.559 47.9216 128.707 48.05C128.776 48.1097 128.831 48.1838 128.868 48.2672C128.905 48.3506 128.923 48.4411 128.921 48.5323C128.923 48.6285 128.906 48.7242 128.87 48.8134C128.833 48.9026 128.779 48.9833 128.71 49.0508C128.64 49.1205 128.556 49.1752 128.464 49.2114C128.371 49.2476 128.273 49.2646 128.173 49.2613C127.976 49.2671 127.785 49.1945 127.641 49.0594M127.585 50.0836H128.753V55.0738H127.585V50.0836Z" fill="#1A1818"/>
<path d="M135.238 50.0836V54.3176C135.238 56.0744 134.341 56.9528 132.547 56.9528C132.086 56.9553 131.627 56.8936 131.183 56.7695C130.795 56.6693 130.432 56.4894 130.117 56.2412L130.64 55.3627C130.886 55.5589 131.167 55.7062 131.468 55.7968C131.794 55.9054 132.136 55.9609 132.481 55.9612C133.029 55.9612 133.431 55.8362 133.686 55.5862C133.824 55.432 133.929 55.2514 133.995 55.0554C134.06 54.8595 134.086 54.6521 134.069 54.4461V54.1845C133.868 54.4045 133.618 54.5744 133.34 54.6805C133.039 54.7955 132.719 54.8528 132.397 54.8493C131.95 54.8559 131.509 54.7514 131.112 54.5452C130.736 54.3505 130.422 54.0544 130.205 53.6904C129.988 53.3063 129.873 52.8725 129.873 52.4312C129.873 51.9899 129.988 51.5561 130.205 51.1721C130.422 50.8107 130.736 50.5175 131.112 50.3262C131.51 50.1233 131.951 50.0207 132.397 50.0271C132.734 50.0228 133.068 50.0833 133.382 50.2053C133.672 50.3183 133.928 50.5046 134.125 50.746V50.0836H135.238ZM133.663 53.4596C133.804 53.3281 133.915 53.168 133.988 52.99C134.061 52.812 134.096 52.6203 134.088 52.428C134.095 52.2375 134.061 52.0477 133.988 51.8717C133.914 51.6958 133.804 51.5378 133.663 51.4087C133.356 51.1549 132.969 51.0162 132.57 51.0162C132.171 51.0162 131.785 51.1549 131.477 51.4087C131.337 51.538 131.226 51.696 131.153 51.8719C131.08 52.0478 131.045 52.2375 131.052 52.428C131.045 52.6203 131.079 52.8119 131.152 52.9898C131.226 53.1678 131.336 53.328 131.477 53.4596C131.783 53.7164 132.17 53.8571 132.57 53.8571C132.97 53.8571 133.357 53.7164 133.663 53.4596Z" fill="#1A1818"/>
<path d="M141.117 50.5778C141.497 50.9453 141.687 51.4902 141.687 52.2126V55.0716H140.518V52.3633C140.546 52.0073 140.435 51.6543 140.209 51.3777C140.095 51.2628 139.958 51.1737 139.806 51.1163C139.655 51.0589 139.493 51.0346 139.331 51.0449C139.144 51.0353 138.956 51.0649 138.781 51.1318C138.606 51.1988 138.446 51.3016 138.313 51.4337C138.046 51.7413 137.912 52.1422 137.939 52.5487V55.0716H136.772V48.1382H137.939V50.6613C138.139 50.4516 138.383 50.2901 138.655 50.1891C138.958 50.0779 139.279 50.023 139.603 50.0271C139.879 50.0139 140.155 50.0558 140.415 50.1503C140.675 50.2449 140.913 50.3902 141.117 50.5778Z" fill="#1A1818"/>
<path d="M143.005 54.9185C142.931 54.8466 142.873 54.7602 142.834 54.6647C142.796 54.5693 142.777 54.4668 142.78 54.3639C142.777 54.2613 142.795 54.1591 142.832 54.0634C142.869 53.9676 142.925 53.8803 142.996 53.8067C143.068 53.733 143.153 53.6744 143.248 53.6344C143.342 53.5943 143.444 53.5737 143.547 53.5737C143.649 53.5737 143.751 53.5943 143.845 53.6344C143.94 53.6744 144.025 53.733 144.097 53.8067C144.168 53.8803 144.224 53.9676 144.261 54.0634C144.298 54.1591 144.316 54.2613 144.313 54.3639C144.314 54.5159 144.27 54.6649 144.186 54.792C144.103 54.919 143.984 55.0185 143.844 55.0779C143.704 55.1372 143.549 55.1538 143.4 55.1254C143.251 55.097 143.113 55.025 143.005 54.9185Z" fill="#1A1818"/>
<path d="M149.359 48.5317H148.144V55.0733H149.359V48.5317Z" fill="#1A1818"/>
<path d="M155.358 50.5778C155.738 50.9453 155.929 51.4902 155.929 52.2125V55.072H154.76V52.3632C154.788 52.0072 154.677 51.6543 154.451 51.3777C154.337 51.2628 154.199 51.1737 154.048 51.1163C153.896 51.0589 153.734 51.0346 153.573 51.0449C153.385 51.0353 153.198 51.0648 153.023 51.1318C152.847 51.1987 152.688 51.3015 152.555 51.4336C152.288 51.7413 152.153 52.1422 152.181 52.5487V55.0718H151.014V50.084H152.125V50.728C152.321 50.4957 152.572 50.3158 152.854 50.2048C153.17 50.0824 153.506 50.0223 153.845 50.0278C154.121 50.0146 154.397 50.0565 154.657 50.151C154.917 50.2456 155.156 50.3909 155.359 50.5785" fill="#1A1818"/>
<path d="M162.993 54.8014C162.845 54.919 162.675 55.0051 162.493 55.0544C162.291 55.1114 162.082 55.1399 161.871 55.139C161.408 55.1684 160.951 55.0134 160.601 54.7079C160.443 54.5415 160.322 54.3444 160.245 54.1288C160.168 53.9133 160.136 53.684 160.152 53.4556V51.0545H159.33V50.1201H160.152V48.98H161.321V50.1201H162.657V51.0545H161.321V53.4269C161.306 53.6284 161.37 53.8277 161.498 53.984C161.565 54.0506 161.645 54.1022 161.734 54.1355C161.822 54.1687 161.917 54.1828 162.011 54.1769C162.246 54.185 162.477 54.1124 162.665 53.9712L162.993 54.8014Z" fill="#1A1818"/>
<path d="M168.3 50.5778C168.68 50.9453 168.87 51.4902 168.871 52.2126V55.0716H167.702V52.3633C167.729 52.0073 167.619 51.6543 167.393 51.3777C167.279 51.2628 167.141 51.1737 166.99 51.1163C166.838 51.0589 166.676 51.0346 166.514 51.0449C166.327 51.0353 166.14 51.0649 165.964 51.1318C165.789 51.1988 165.63 51.3016 165.497 51.4337C165.229 51.7413 165.095 52.1422 165.123 52.5487V55.0716H163.955V48.1382H165.123V50.6613C165.322 50.4516 165.567 50.2901 165.838 50.1891C166.142 50.0779 166.463 50.023 166.786 50.0271C167.062 50.0139 167.339 50.0558 167.599 50.1503C167.858 50.2449 168.097 50.3902 168.3 50.5778Z" fill="#1A1818"/>
<path d="M170.414 49.0592C170.346 48.995 170.292 48.9176 170.255 48.8316C170.217 48.7457 170.198 48.6531 170.198 48.5595C170.198 48.466 170.217 48.3734 170.255 48.2875C170.292 48.2015 170.346 48.1241 170.414 48.0599C170.558 47.9252 170.749 47.853 170.946 47.8593C171.141 47.8536 171.332 47.9217 171.479 48.05C171.548 48.1097 171.603 48.1838 171.64 48.2672C171.677 48.3506 171.695 48.4411 171.693 48.5323C171.696 48.6285 171.678 48.7242 171.642 48.8134C171.606 48.9026 171.552 48.9833 171.483 49.0508C171.412 49.1205 171.328 49.1752 171.236 49.2114C171.144 49.2476 171.045 49.2646 170.946 49.2613C170.749 49.267 170.558 49.1945 170.414 49.0594M170.358 50.0836H171.526V55.0738H170.358L170.358 50.0836Z" fill="#1A1818"/>
<path d="M173.413 54.9781C173.084 54.898 172.772 54.7623 172.489 54.5768L172.937 53.6884C173.186 53.8497 173.458 53.9711 173.744 54.0485C174.047 54.1363 174.36 54.1816 174.675 54.183C175.373 54.183 175.722 53.9994 175.722 53.6322C175.724 53.5506 175.699 53.4706 175.651 53.4047C175.602 53.3388 175.534 53.2909 175.455 53.2684C175.177 53.1755 174.891 53.1096 174.6 53.0716C174.26 53.0243 173.924 52.9527 173.595 52.8572C173.337 52.7759 173.105 52.6291 172.922 52.4311C172.721 52.1968 172.618 51.8935 172.637 51.5852C172.632 51.3612 172.684 51.1397 172.788 50.9413C172.892 50.7428 173.044 50.5739 173.231 50.4501C173.707 50.1441 174.268 49.9955 174.833 50.0252C175.179 50.026 175.524 50.0653 175.861 50.1424C176.156 50.2032 176.44 50.3089 176.703 50.4559L176.254 51.3443C175.82 51.0919 175.326 50.9623 174.825 50.9693C174.555 50.9539 174.287 51.007 174.043 51.1239C173.966 51.1602 173.9 51.2174 173.853 51.2891C173.805 51.3608 173.779 51.4442 173.777 51.5299C173.775 51.6183 173.801 51.7049 173.853 51.7768C173.904 51.8487 173.978 51.9019 174.062 51.9286C174.348 52.0307 174.644 52.1041 174.945 52.1478C175.278 52.1946 175.606 52.2662 175.927 52.3621C176.178 52.4403 176.405 52.582 176.585 52.7733C176.782 53.0008 176.881 53.2966 176.862 53.5968C176.865 53.82 176.811 54.0403 176.704 54.2365C176.598 54.4327 176.443 54.5982 176.254 54.7169C175.758 55.0227 175.181 55.1696 174.6 55.1379C174.199 55.1384 173.799 55.0848 173.413 54.9786" fill="#1A1818"/>
<path d="M188.234 50.0828L186.392 55.0723H185.272L183.982 51.6333L182.674 55.0723H181.553L179.72 50.082H180.824L182.141 53.7641L183.516 50.082H184.496L185.842 53.7826L187.196 50.082L188.234 50.0828Z" fill="#1A1818"/>
<path d="M189.094 49.0592C189.026 48.995 188.972 48.9175 188.935 48.8316C188.898 48.7457 188.878 48.6531 188.878 48.5595C188.878 48.4659 188.898 48.3734 188.935 48.2874C188.972 48.2015 189.026 48.1241 189.094 48.0599C189.238 47.9254 189.429 47.8533 189.626 47.8592C189.821 47.8533 190.012 47.9215 190.159 48.05C190.228 48.1095 190.284 48.1836 190.321 48.267C190.358 48.3504 190.376 48.441 190.374 48.5323C190.376 48.6285 190.358 48.7242 190.322 48.8134C190.286 48.9025 190.232 48.9833 190.163 49.0507C190.093 49.1205 190.009 49.1752 189.916 49.2114C189.824 49.2476 189.725 49.2646 189.626 49.2613C189.429 49.2667 189.238 49.1942 189.094 49.0594M189.038 50.0836H190.205V55.0738H189.038V50.0836Z" fill="#1A1818"/>
<path d="M196.084 50.5778C196.464 50.9453 196.654 51.4902 196.654 52.2125V55.072H195.486V52.3632C195.513 52.0072 195.402 51.6543 195.177 51.3777C195.062 51.2628 194.925 51.1737 194.773 51.1163C194.622 51.0589 194.46 51.0346 194.298 51.0449C194.111 51.0353 193.923 51.0648 193.748 51.1318C193.573 51.1987 193.414 51.3015 193.28 51.4336C193.013 51.7413 192.879 52.1422 192.907 52.5487V55.0718H191.739V50.084H192.851V50.728C193.046 50.4957 193.297 50.3158 193.58 50.2048C193.895 50.0824 194.232 50.0223 194.57 50.0278C194.846 50.0146 195.123 50.0565 195.382 50.151C195.642 50.2456 195.881 50.3909 196.084 50.5785" fill="#1A1818"/>
<path d="M203.028 48.1382V55.0716H201.906V54.4275C201.716 54.662 201.47 54.8449 201.191 54.9594C200.893 55.0809 200.573 55.1415 200.251 55.1376C199.8 55.1446 199.354 55.0352 198.958 54.8198C198.577 54.6113 198.264 54.2988 198.055 53.9189C197.832 53.5071 197.719 53.0443 197.728 52.5757C197.719 52.1095 197.832 51.6491 198.055 51.24C198.266 50.862 198.578 50.551 198.958 50.343C199.354 50.1281 199.8 50.0191 200.251 50.0266C200.561 50.0224 200.869 50.0791 201.158 50.1935C201.428 50.3034 201.668 50.4772 201.857 50.6999V48.1382H203.028ZM201.149 53.9471C201.374 53.8181 201.559 53.6287 201.682 53.4002C201.811 53.1451 201.878 52.8634 201.878 52.5778C201.878 52.2921 201.811 52.0104 201.682 51.7553C201.559 51.5266 201.374 51.3371 201.149 51.2084C200.916 51.0825 200.656 51.0165 200.392 51.0165C200.127 51.0165 199.867 51.0825 199.635 51.2084C199.41 51.3371 199.225 51.5267 199.103 51.7553C198.973 52.0102 198.906 52.292 198.906 52.5778C198.906 52.8636 198.973 53.1454 199.103 53.4002C199.226 53.6286 199.41 53.8181 199.635 53.9471C199.868 54.0723 200.128 54.1378 200.392 54.1378C200.656 54.1378 200.916 54.0723 201.149 53.9471Z" fill="#1A1818"/>
<path d="M205.438 54.8114C205.042 54.6026 204.714 54.2865 204.49 53.8994C204.266 53.4956 204.148 53.0415 204.148 52.5798C204.148 52.1181 204.266 51.664 204.49 51.2603C204.715 50.8755 205.043 50.5617 205.438 50.3545C205.862 50.1391 206.331 50.0269 206.807 50.0269C207.283 50.0269 207.752 50.1391 208.176 50.3545C208.571 50.5624 208.899 50.8761 209.125 51.2603C209.349 51.664 209.466 52.1181 209.466 52.5798C209.466 53.0415 209.349 53.4956 209.125 53.8994C208.9 54.2859 208.571 54.6019 208.176 54.8114C207.752 55.026 207.283 55.1378 206.807 55.1378C206.331 55.1378 205.862 55.026 205.438 54.8114ZM207.868 53.7086C208.138 53.3942 208.287 52.9929 208.287 52.5779C208.287 52.1629 208.138 51.7616 207.868 51.4472C207.729 51.3056 207.563 51.1943 207.38 51.1202C207.197 51.0462 207 51.0111 206.802 51.0172C206.605 51.0107 206.409 51.0456 206.226 51.1197C206.043 51.1938 205.878 51.3053 205.741 51.4472C205.473 51.7627 205.325 52.1635 205.325 52.5779C205.325 52.9923 205.473 53.3931 205.741 53.7086C205.878 53.8502 206.044 53.9617 206.226 54.0357C206.409 54.1097 206.605 54.1448 206.802 54.1386C207 54.1444 207.197 54.1091 207.38 54.0351C207.563 53.9611 207.729 53.85 207.868 53.7086Z" fill="#1A1818"/>
<path d="M218.371 50.0828L216.529 55.0723H215.409L214.119 51.634L212.811 55.0723H211.69L209.857 50.082H210.96L212.278 53.7641L213.652 50.082H214.633L215.978 53.7826L217.333 50.082L218.371 50.0828Z" fill="#1A1818"/>
<path d="M220.101 53.8022C220.173 53.8759 220.229 53.9636 220.266 54.0598C220.302 54.156 220.319 54.2588 220.315 54.3617C220.314 54.4675 220.3 54.5728 220.274 54.6752C220.225 54.8419 220.168 55.0058 220.101 55.1662L219.625 56.483H218.867L219.241 55.0538C219.108 55.0011 218.995 54.9078 218.918 54.7871C218.839 54.6592 218.799 54.5112 218.802 54.361C218.798 54.258 218.815 54.1553 218.852 54.0591C218.888 53.9629 218.945 53.8752 219.017 53.8015C219.163 53.6628 219.357 53.5854 219.559 53.5854C219.761 53.5854 219.955 53.6628 220.102 53.8015" fill="#1A1818"/>
<path d="M28.491 61.2971L26.1548 66.6886C26.0031 67.1379 25.7272 67.535 25.359 67.8338C25.0271 68.0619 24.6313 68.1785 24.2287 68.1666C23.9775 68.1655 23.7281 68.1243 23.4899 68.0446C23.2688 67.9757 23.065 67.8607 22.8918 67.707L23.3592 66.8473C23.4749 66.9551 23.6097 67.0404 23.7566 67.099C23.9031 67.1602 24.0601 67.1919 24.2189 67.1924C24.402 67.1995 24.582 67.1432 24.7284 67.033C24.8909 66.8872 25.0172 66.7056 25.0971 66.5025L25.1818 66.3057L23.0037 61.2969H24.2186L25.7885 64.9864L27.3684 61.2969L28.491 61.2971Z" fill="#1A1818"/>
<path d="M30.0984 66.0252C29.7029 65.8164 29.3743 65.5003 29.1503 65.1132C28.9263 64.7094 28.8088 64.2553 28.8088 63.7936C28.8088 63.332 28.9263 62.8779 29.1503 62.4741C29.3753 62.0893 29.7038 61.7755 30.0984 61.5684C30.5183 61.3458 30.9877 61.2331 31.4628 61.2407C31.9413 61.2325 32.4141 61.3452 32.8374 61.5684C33.2315 61.7762 33.5599 62.0899 33.7855 62.4741C34.0095 62.8779 34.127 63.332 34.127 63.7936C34.127 64.2553 34.0095 64.7094 33.7855 65.1132C33.5608 65.4998 33.2324 65.8157 32.8374 66.0252C32.4138 66.2474 31.9411 66.3597 31.4628 66.3517C30.9878 66.3591 30.5186 66.2468 30.0984 66.0252ZM32.5282 64.9224C32.7991 64.608 32.9481 64.2068 32.9481 63.7917C32.9481 63.3767 32.7991 62.9754 32.5282 62.661C32.3901 62.5194 32.2241 62.4081 32.0407 62.3341C31.8573 62.26 31.6605 62.225 31.4628 62.231C31.2657 62.2245 31.0695 62.2594 30.8867 62.3335C30.704 62.4076 30.5388 62.5191 30.4018 62.661C30.1332 62.9765 29.9856 63.3773 29.9856 63.7917C29.9856 64.2061 30.1332 64.6069 30.4018 64.9224C30.5389 65.0641 30.7042 65.1755 30.8869 65.2495C31.0696 65.3236 31.2658 65.3586 31.4628 65.3524C31.6605 65.3582 31.8572 65.323 32.0405 65.249C32.2239 65.175 32.3899 65.0638 32.5282 64.9224Z" fill="#1A1818"/>
<path d="M40.0789 61.2969V66.2864H38.9663V65.651C38.7776 65.8768 38.5379 66.0544 38.267 66.1692C37.9805 66.2926 37.6716 66.355 37.3598 66.3525C37.0737 66.3682 36.7873 66.327 36.5172 66.2314C36.2471 66.1358 35.9986 65.9876 35.7861 65.7954C35.4023 65.4241 35.2104 64.8742 35.2104 64.1458V61.2969H36.3771V63.9883C36.3489 64.3492 36.4569 64.7075 36.68 64.9927C36.7919 65.1068 36.927 65.1954 37.0762 65.2526C37.2255 65.3098 37.3852 65.3341 37.5447 65.324C37.7286 65.3331 37.9123 65.3032 38.0838 65.2365C38.2553 65.1697 38.4108 65.0675 38.5402 64.9365C38.8048 64.6265 38.9376 64.2254 38.9103 63.8188V61.2969H40.0789Z" fill="#1A1818"/>
<path d="M44.5459 66.1919C44.2171 66.1119 43.9044 65.9761 43.6213 65.7907L44.0699 64.9023C44.3186 65.0635 44.591 65.185 44.8772 65.2623C45.1797 65.3502 45.493 65.3955 45.808 65.3969C46.5057 65.3969 46.8546 65.2133 46.8546 64.8461C46.8567 64.7645 46.8317 64.6845 46.7834 64.6186C46.7351 64.5528 46.6664 64.5048 46.5879 64.4822C46.3099 64.3894 46.0236 64.3235 45.733 64.2855C45.3931 64.2382 45.0571 64.1666 44.7275 64.0711C44.47 63.9898 44.2382 63.8429 44.0547 63.645C43.8534 63.4107 43.7511 63.1073 43.7694 62.799C43.7648 62.5751 43.8169 62.3536 43.9208 62.1552C44.0247 61.9567 44.1771 61.7878 44.3638 61.664C44.8403 61.358 45.4008 61.2094 45.9662 61.2391C46.3122 61.2399 46.657 61.2792 46.9942 61.3563C47.289 61.417 47.5727 61.5228 47.8353 61.6698L47.3868 62.5581C46.9532 62.3058 46.4592 62.1762 45.9575 62.1832C45.6882 62.1677 45.4194 62.2209 45.1762 62.3377C45.0985 62.3741 45.0325 62.4313 44.9854 62.503C44.9383 62.5747 44.912 62.6581 44.9095 62.7438C44.9076 62.8322 44.9343 62.9188 44.9857 62.9907C45.0372 63.0625 45.1105 63.1158 45.1948 63.1424C45.4813 63.2445 45.7772 63.318 46.0781 63.3616C46.4103 63.4084 46.7386 63.4801 47.0601 63.576C47.3113 63.654 47.5381 63.7956 47.7186 63.9869C47.9154 64.2144 48.0148 64.5102 47.9952 64.8104C47.9986 65.0336 47.9444 65.254 47.8379 65.4501C47.7313 65.6463 47.5761 65.8118 47.387 65.9305C46.8917 66.2363 46.3147 66.3832 45.7335 66.3516C45.3324 66.352 44.933 66.2984 44.5461 66.1922" fill="#1A1818"/>
<path d="M53.3486 61.7917C53.7286 62.1592 53.9188 62.7041 53.9192 63.4264V66.2854H52.7506V63.5771C52.7781 63.2211 52.6675 62.8682 52.4417 62.5916C52.3274 62.4767 52.1899 62.3876 52.0384 62.3302C51.8869 62.2728 51.7249 62.2484 51.5632 62.2588C51.3758 62.2492 51.1885 62.2787 51.0132 62.3457C50.8379 62.4126 50.6785 62.5154 50.5453 62.6475C50.2781 62.9552 50.1437 63.3563 50.1715 63.7628V66.2854H49.0039V59.3521H50.1715V61.8751C50.371 61.6655 50.6156 61.504 50.8868 61.403C51.1903 61.2918 51.5117 61.2369 51.8349 61.2409C52.1112 61.2277 52.3873 61.2696 52.6472 61.3642C52.9071 61.4588 53.1454 61.6041 53.3486 61.7917Z" fill="#1A1818"/>
<path d="M56.283 66.0252C55.8875 65.8164 55.5588 65.5003 55.3348 65.1132C55.1109 64.7095 54.9934 64.2554 54.9934 63.7937C54.9934 63.332 55.1109 62.8779 55.3348 62.4741C55.5598 62.0894 55.8884 61.7756 56.283 61.5684C56.7073 61.353 57.1765 61.2407 57.6524 61.2407C58.1282 61.2407 58.5974 61.353 59.0217 61.5684C59.4158 61.7763 59.7442 62.0899 59.9699 62.4741C60.1938 62.8779 60.3113 63.332 60.3113 63.7937C60.3113 64.2554 60.1938 64.7095 59.9699 65.1132C59.7452 65.4998 59.4167 65.8157 59.0217 66.0252C58.5971 66.2399 58.1281 66.3517 57.6524 66.3517C57.1766 66.3517 56.7076 66.2399 56.283 66.0252ZM58.7128 64.9225C58.9837 64.608 59.1327 64.2068 59.1327 63.7918C59.1327 63.3767 58.9837 62.9755 58.7128 62.661C58.5747 62.5195 58.4087 62.4081 58.2253 62.3341C58.0419 62.2601 57.8451 62.225 57.6474 62.2311C57.4503 62.2246 57.2541 62.2595 57.0713 62.3335C56.8885 62.4076 56.7233 62.5192 56.5864 62.661C56.3177 62.9765 56.1702 63.3774 56.1702 63.7918C56.1702 64.2061 56.3177 64.607 56.5864 64.9225C56.7235 65.0641 56.8887 65.1755 57.0715 65.2496C57.2542 65.3236 57.4504 65.3586 57.6474 65.3524C57.8451 65.3582 58.0417 65.323 58.2251 65.249C58.4085 65.175 58.5745 65.0638 58.7128 64.9225Z" fill="#1A1818"/>
<path d="M66.2635 61.2969V66.2864H65.1508V65.651C64.9622 65.8768 64.7225 66.0544 64.4515 66.1692C64.1651 66.2926 63.8562 66.355 63.5443 66.3525C63.2582 66.3682 62.9719 66.327 62.7017 66.2314C62.4316 66.1358 62.1831 65.9876 61.9706 65.7954C61.5869 65.4241 61.395 64.8742 61.395 64.1458V61.2969H62.5629V63.9883C62.5346 64.3492 62.6427 64.7075 62.8658 64.9927C62.9776 65.1068 63.1128 65.1954 63.262 65.2526C63.4112 65.3098 63.571 65.3341 63.7305 65.324C63.9144 65.333 64.0981 65.3031 64.2696 65.2362C64.4412 65.1694 64.5967 65.0671 64.7259 64.936C64.9905 64.626 65.1234 64.2249 65.0961 63.8183V61.2969H66.2635Z" fill="#1A1818"/>
<path d="M68.9636 59.3521H67.796V66.2862H68.9636V59.3521Z" fill="#1A1818"/>
<path d="M75.3841 59.3521V66.2854H74.2628V65.6413C74.0728 65.8758 73.8268 66.0588 73.5475 66.1733C73.2491 66.2948 72.9293 66.3554 72.6071 66.3515C72.1558 66.3585 71.7104 66.2491 71.3138 66.0337C70.9336 65.8252 70.6207 65.5127 70.4117 65.1328C70.1879 64.721 70.075 64.2581 70.084 63.7896C70.075 63.3234 70.188 62.863 70.4117 62.4539C70.6219 62.0759 70.9346 61.7649 71.3138 61.5568C71.7105 61.3419 72.156 61.233 72.6071 61.2405C72.9175 61.2363 73.2257 61.2929 73.5143 61.4073C73.7848 61.5173 74.0247 61.691 74.2136 61.9137V59.3521H75.3841ZM73.5051 65.161C73.7304 65.032 73.9151 64.8425 74.0383 64.6141C74.1669 64.359 74.2339 64.0774 74.2339 63.7918C74.2339 63.5061 74.1669 63.2245 74.0383 62.9695C73.9154 62.7407 73.7307 62.5512 73.5051 62.4225C73.2727 62.2966 73.0125 62.2306 72.7482 62.2306C72.4838 62.2306 72.2236 62.2966 71.9912 62.4225C71.766 62.5512 71.5816 62.7408 71.4592 62.9695C71.3298 63.2243 71.2624 63.506 71.2624 63.7918C71.2624 64.0775 71.3298 64.3593 71.4592 64.6141C71.582 64.8425 71.7663 65.0319 71.9912 65.161C72.2239 65.2861 72.484 65.3516 72.7482 65.3516C73.0124 65.3516 73.2724 65.2861 73.5051 65.161Z" fill="#1A1818"/>
<path d="M83.841 61.7917C84.2211 62.1592 84.4113 62.7041 84.4116 63.4264V66.2854H83.243V63.5771C83.2705 63.2211 83.1599 62.8682 82.9341 62.5916C82.8198 62.4767 82.6823 62.3876 82.5308 62.3302C82.3793 62.2728 82.2173 62.2484 82.0556 62.2588C81.8682 62.2492 81.6809 62.2787 81.5056 62.3457C81.3303 62.4126 81.171 62.5154 81.0377 62.6475C80.7706 62.9552 80.6362 63.3563 80.664 63.7628V66.2854H79.4961V59.3521H80.6637V61.8751C80.8632 61.6655 81.1078 61.504 81.3789 61.403C81.6825 61.2918 82.0038 61.2369 82.3271 61.2409C82.6034 61.2277 82.8795 61.2696 83.1394 61.3642C83.3993 61.4588 83.6378 61.6041 83.841 61.7917Z" fill="#1A1818"/>
<path d="M89.49 61.7692C89.8776 62.1205 90.0731 62.6513 90.0731 63.3607V66.287H88.9718V65.6803C88.8211 65.9035 88.6079 66.0773 88.3588 66.1799C88.055 66.3022 87.7294 66.3611 87.402 66.3531C87.0646 66.3606 86.7295 66.2948 86.42 66.1602C86.1581 66.0479 85.9331 65.864 85.7709 65.6296C85.6183 65.4015 85.5383 65.1325 85.5416 64.858C85.5344 64.6514 85.5759 64.446 85.6627 64.2583C85.7495 64.0707 85.8792 63.906 86.0412 63.7776C86.3748 63.5069 86.8998 63.3716 87.6161 63.3716H88.9048V63.2968C88.9144 63.1481 88.8913 62.999 88.8372 62.8602C88.783 62.7213 88.6991 62.596 88.5913 62.4931C88.3265 62.2876 87.9948 62.1876 87.6605 62.2126C87.3796 62.213 87.1004 62.2572 86.8331 62.3436C86.5833 62.42 86.3506 62.544 86.1478 62.7087L85.6896 61.8577C85.9731 61.6473 86.2935 61.4919 86.6342 61.3995C87.0135 61.2921 87.4061 61.2388 87.8004 61.2413C88.5368 61.2413 89.0975 61.4183 89.4884 61.7696M88.4225 65.3007C88.6463 65.1719 88.8171 64.968 88.9048 64.7251V64.1464H87.6991C87.0263 64.1464 86.6903 64.3677 86.6911 64.8105C86.688 64.9089 86.7094 65.0065 86.7534 65.0946C86.7973 65.1826 86.8624 65.2585 86.9428 65.3152C87.1499 65.4508 87.395 65.5163 87.6422 65.5021C87.9157 65.507 88.1855 65.4374 88.4225 65.3007Z" fill="#1A1818"/>
<path d="M96.2414 61.2966L94.1008 66.2861H92.895L90.7544 61.2959H91.9693L93.5206 64.9965L95.1191 61.2959L96.2414 61.2966Z" fill="#1A1818"/>
<path d="M101.642 64.1664H97.7276C97.7858 64.5165 97.9785 64.8299 98.2646 65.0398C98.5794 65.2625 98.9584 65.3758 99.3437 65.3625C99.595 65.3704 99.8451 65.3262 100.078 65.2327C100.312 65.1392 100.523 64.9984 100.699 64.8192L101.325 65.5407C101.097 65.8107 100.805 66.0193 100.475 66.1474C100.105 66.2888 99.7122 66.3586 99.3165 66.3531C98.8136 66.3629 98.316 66.2496 97.867 66.0232C97.4639 65.8187 97.1282 65.5026 96.9 65.1124C96.6695 64.7104 96.552 64.2536 96.56 63.7902C96.5533 63.3312 96.6681 62.8785 96.8927 62.4782C97.1076 62.0942 97.4262 61.7786 97.8122 61.5674C98.2185 61.3451 98.6755 61.2321 99.1385 61.2396C99.5938 61.2319 100.043 61.343 100.442 61.5621C100.821 61.7728 101.132 62.0876 101.338 62.4692C101.56 62.8842 101.671 63.3493 101.661 63.8196C101.661 63.9007 101.655 64.0164 101.642 64.1659M98.1894 62.5061C97.9281 62.732 97.7598 63.0467 97.7172 63.3894H100.55C100.512 63.0459 100.345 62.7295 100.083 62.504C99.8211 62.2785 99.4834 62.1608 99.138 62.1746C98.792 62.1651 98.4546 62.283 98.1898 62.5059" fill="#1A1818"/>
<path d="M105.717 66.1919C105.388 66.1118 105.075 65.9761 104.792 65.7907L105.241 64.9023C105.489 65.0635 105.762 65.185 106.048 65.2623C106.351 65.3502 106.664 65.3955 106.979 65.3969C107.677 65.3969 108.025 65.2133 108.025 64.8461C108.027 64.7645 108.002 64.6845 107.954 64.6186C107.906 64.5528 107.837 64.5048 107.759 64.4822C107.481 64.3894 107.194 64.3235 106.904 64.2854C106.564 64.2382 106.228 64.1666 105.898 64.0711C105.641 63.9898 105.409 63.8429 105.225 63.645C105.024 63.4107 104.922 63.1073 104.94 62.799C104.936 62.5751 104.988 62.3536 105.092 62.1552C105.196 61.9567 105.348 61.7878 105.535 61.664C106.011 61.358 106.572 61.2094 107.137 61.2391C107.483 61.2399 107.828 61.2792 108.165 61.3563C108.46 61.417 108.743 61.5228 109.006 61.6698L108.558 62.5581C108.124 62.3058 107.63 62.1762 107.128 62.1832C106.859 62.1677 106.59 62.2209 106.347 62.3377C106.269 62.3741 106.203 62.4313 106.156 62.503C106.109 62.5747 106.083 62.6581 106.08 62.7438C106.078 62.8322 106.105 62.9188 106.157 62.9907C106.208 63.0625 106.281 63.1158 106.366 63.1424C106.652 63.2445 106.948 63.3179 107.249 63.3616C107.581 63.4084 107.909 63.4801 108.231 63.576C108.482 63.6542 108.708 63.7958 108.889 63.9872C109.085 64.2147 109.185 64.5105 109.165 64.8107C109.169 65.0339 109.114 65.2542 109.008 65.4504C108.901 65.6466 108.746 65.812 108.557 65.9308C108.062 66.2365 107.485 66.3835 106.904 66.3518C106.502 66.3522 106.103 66.2986 105.716 66.1924" fill="#1A1818"/>
<path d="M114.846 64.1662H110.931C110.99 64.5162 111.182 64.8297 111.468 65.0396C111.783 65.2622 112.162 65.3756 112.548 65.3623C112.799 65.3701 113.049 65.326 113.282 65.2325C113.516 65.1389 113.727 64.9982 113.903 64.819L114.529 65.5405C114.301 65.8105 114.008 66.019 113.679 66.1472C113.309 66.2886 112.916 66.3584 112.52 66.3529C112.018 66.3632 111.52 66.2507 111.071 66.0252C110.668 65.8207 110.332 65.5045 110.104 65.1144C109.873 64.7122 109.755 64.255 109.763 63.7912C109.756 63.3322 109.871 62.8795 110.096 62.4791C110.31 62.0952 110.629 61.7795 111.015 61.5683C111.421 61.3461 111.878 61.2331 112.341 61.2406C112.797 61.2328 113.247 61.344 113.646 61.5633C114.025 61.7741 114.336 62.0888 114.542 62.4705C114.764 62.8854 114.875 63.3505 114.864 63.8209C114.864 63.9019 114.858 64.0176 114.846 64.1671M111.393 62.5074C111.132 62.7332 110.964 63.0479 110.921 63.3907H113.753C113.715 63.0471 113.549 62.7307 113.287 62.5052C113.025 62.2798 112.687 62.162 112.342 62.1758C111.996 62.1663 111.658 62.2842 111.393 62.5071" fill="#1A1818"/>
<path d="M119.164 66.2859L117.884 64.5564L116.593 66.2859H115.304L117.248 63.7539L115.389 61.2954H116.688L117.912 62.9313L119.137 61.2954H120.398L118.529 63.7339L120.482 66.2856L119.164 66.2859Z" fill="#1A1818"/>
<path d="M128.592 64.1662H124.677C124.735 64.5162 124.928 64.8297 125.214 65.0396C125.529 65.2622 125.908 65.3756 126.293 65.3623C126.545 65.3701 126.795 65.326 127.028 65.2325C127.261 65.1389 127.473 64.9982 127.649 64.819L128.275 65.5405C128.046 65.8105 127.754 66.019 127.425 66.1472C127.055 66.2886 126.662 66.3584 126.266 66.3529C125.764 66.3632 125.266 66.2507 124.817 66.0252C124.414 65.8207 124.078 65.5045 123.85 65.1144C123.619 64.7122 123.501 64.255 123.509 63.7912C123.502 63.3322 123.617 62.8795 123.841 62.4791C124.056 62.0952 124.375 61.7795 124.761 61.5683C125.167 61.3461 125.624 61.2331 126.087 61.2406C126.543 61.2328 126.992 61.344 127.392 61.5633C127.771 61.7741 128.082 62.0888 128.288 62.4705C128.509 62.8854 128.62 63.3505 128.61 63.8209C128.61 63.9019 128.604 64.0176 128.592 64.1671M125.139 62.5074C124.878 62.7332 124.709 63.0479 124.667 63.3907H127.499C127.461 63.0471 127.294 62.7307 127.032 62.5052C126.77 62.2798 126.433 62.162 126.087 62.1758C125.741 62.1663 125.404 62.2842 125.139 62.5071" fill="#1A1818"/>
<path d="M134.406 61.2966L132.265 66.2861H131.059L128.919 61.2959H130.133L131.685 64.9965L133.283 61.2959L134.406 61.2966Z" fill="#1A1818"/>
<path d="M139.806 64.1662H135.891C135.95 64.5162 136.142 64.8297 136.428 65.0396C136.743 65.2622 137.122 65.3756 137.508 65.3623C137.759 65.3701 138.009 65.326 138.242 65.2325C138.476 65.1389 138.687 64.9982 138.863 64.819L139.489 65.5405C139.261 65.8105 138.968 66.019 138.639 66.1472C138.269 66.2886 137.876 66.3584 137.48 66.3529C136.978 66.3632 136.48 66.2507 136.031 66.0252C135.628 65.8207 135.292 65.5045 135.064 65.1144C134.833 64.7122 134.715 64.255 134.723 63.7912C134.716 63.3322 134.831 62.8795 135.056 62.4791C135.27 62.0952 135.589 61.7795 135.975 61.5683C136.381 61.3461 136.838 61.2331 137.301 61.2406C137.757 61.2328 138.207 61.344 138.606 61.5633C138.985 61.7741 139.296 62.0888 139.502 62.4705C139.723 62.8854 139.835 63.3505 139.824 63.8209C139.824 63.9019 139.818 64.0176 139.806 64.1671M136.353 62.5074C136.092 62.7332 135.924 63.0479 135.881 63.3907H138.713C138.675 63.0471 138.509 62.7307 138.247 62.5052C137.985 62.2798 137.647 62.162 137.302 62.1758C136.956 62.1663 136.618 62.2842 136.353 62.5071" fill="#1A1818"/>
<path d="M143.834 61.2407V62.3534C143.745 62.3349 143.654 62.3253 143.563 62.3247C143.368 62.3136 143.172 62.3431 142.989 62.4113C142.805 62.4795 142.638 62.5849 142.497 62.7209C142.224 63.0372 142.086 63.4488 142.115 63.8661V66.2871H140.947V61.2976H142.059V62.0266C142.395 61.5033 142.987 61.2417 143.834 61.2417" fill="#1A1818"/>
<path d="M149.545 61.2971L147.208 66.6886C147.057 67.1379 146.781 67.535 146.413 67.8338C146.081 68.0619 145.685 68.1785 145.282 68.1666C145.031 68.1655 144.782 68.1243 144.544 68.0446C144.323 67.9757 144.119 67.8607 143.946 67.707L144.413 66.8473C144.529 66.9551 144.663 67.0404 144.81 67.099C144.957 67.1602 145.114 67.1919 145.273 67.1924C145.456 67.1995 145.636 67.1432 145.782 67.033C145.945 66.8872 146.071 66.7056 146.151 66.5025L146.235 66.3057L144.057 61.2969H145.272L146.842 64.9864L148.422 61.2969L149.545 61.2971Z" fill="#1A1818"/>
<path d="M153.73 66.0253C153.335 65.8165 153.006 65.5004 152.782 65.1133C152.558 64.7095 152.441 64.2554 152.441 63.7937C152.441 63.332 152.558 62.8779 152.782 62.4742C153.007 62.0894 153.336 61.7756 153.73 61.5684C154.154 61.353 154.624 61.2407 155.099 61.2407C155.575 61.2407 156.045 61.353 156.469 61.5684C156.863 61.7763 157.191 62.09 157.417 62.4742C157.641 62.8779 157.758 63.332 157.758 63.7937C157.758 64.2554 157.641 64.7095 157.417 65.1133C157.192 65.4998 156.864 65.8158 156.469 66.0253C156.044 66.2399 155.575 66.3517 155.099 66.3517C154.624 66.3517 154.155 66.2399 153.73 66.0253ZM156.16 64.9225C156.431 64.6081 156.58 64.2068 156.58 63.7918C156.58 63.3768 156.431 62.9755 156.16 62.6611C156.022 62.5195 155.856 62.4082 155.672 62.3341C155.489 62.2601 155.292 62.225 155.095 62.2311C154.897 62.2246 154.701 62.2595 154.518 62.3336C154.336 62.4076 154.17 62.5192 154.034 62.6611C153.765 62.9766 153.617 63.3774 153.617 63.7918C153.617 64.2062 153.765 64.607 154.034 64.9225C154.171 65.0642 154.336 65.1756 154.519 65.2496C154.701 65.3237 154.898 65.3587 155.095 65.3525C155.292 65.3582 155.489 65.323 155.672 65.249C155.856 65.175 156.022 65.0639 156.16 64.9225Z" fill="#1A1818"/>
<path d="M161.879 66.0153C161.731 66.1329 161.561 66.219 161.379 66.2683C161.177 66.3253 160.968 66.3538 160.758 66.3529C160.294 66.3822 159.837 66.2273 159.487 65.9217C159.329 65.7554 159.208 65.5582 159.131 65.3427C159.054 65.1271 159.022 64.8979 159.038 64.6695V62.2684H158.216V61.334H159.038V60.1938H160.207V61.334H161.543V62.2684H160.207V64.6408C160.193 64.8423 160.256 65.0416 160.384 65.1978C160.451 65.2644 160.532 65.3161 160.62 65.3493C160.709 65.3826 160.803 65.3967 160.897 65.3907C161.133 65.3988 161.363 65.3263 161.552 65.1851L161.879 66.0153Z" fill="#1A1818"/>
<path d="M167.187 61.7917C167.567 62.1592 167.757 62.7041 167.757 63.4264V66.2854H166.588V63.5771C166.616 63.2211 166.505 62.8682 166.28 62.5916C166.165 62.4767 166.028 62.3876 165.876 62.3302C165.725 62.2728 165.563 62.2484 165.401 62.2588C165.214 62.2491 165.026 62.2787 164.851 62.3457C164.676 62.4126 164.516 62.5154 164.383 62.6475C164.116 62.9552 163.982 63.3563 164.009 63.7628V66.2854H162.842V59.3521H164.009V61.8751C164.209 61.6655 164.453 61.504 164.725 61.403C165.028 61.2918 165.35 61.2369 165.673 61.2409C165.949 61.2277 166.225 61.2696 166.485 61.3642C166.745 61.4588 166.984 61.6041 167.187 61.7917Z" fill="#1A1818"/>
<path d="M173.915 64.1662H170C170.059 64.5162 170.251 64.8297 170.538 65.0396C170.852 65.2622 171.231 65.3756 171.617 65.3623C171.868 65.3701 172.118 65.326 172.351 65.2325C172.585 65.1389 172.796 64.9982 172.972 64.819L173.598 65.5405C173.37 65.8105 173.078 66.019 172.748 66.1472C172.378 66.2886 171.985 66.3584 171.589 66.3529C171.087 66.3632 170.589 66.2507 170.14 66.0252C169.737 65.8207 169.402 65.5045 169.173 65.1144C168.942 64.7122 168.824 64.255 168.832 63.7912C168.825 63.3322 168.94 62.8795 169.165 62.4791C169.38 62.0952 169.698 61.7795 170.084 61.5683C170.49 61.346 170.947 61.2331 171.41 61.2406C171.866 61.2328 172.316 61.344 172.715 61.5633C173.094 61.7741 173.405 62.0888 173.611 62.4705C173.833 62.8854 173.944 63.3505 173.934 63.8209C173.934 63.9019 173.927 64.0176 173.915 64.1671M170.462 62.5074C170.201 62.7332 170.033 63.0479 169.99 63.3907H172.822C172.784 63.0471 172.617 62.7307 172.356 62.5052C172.094 62.2798 171.756 62.162 171.41 62.1758C171.064 62.1663 170.727 62.2842 170.462 62.5071" fill="#1A1818"/>
<path d="M177.943 61.2407V62.3534C177.854 62.3349 177.763 62.3253 177.672 62.3247C177.477 62.3136 177.281 62.3431 177.098 62.4113C176.914 62.4795 176.747 62.5849 176.607 62.7209C176.333 63.0372 176.196 63.4488 176.224 63.8661V66.2871H175.057V61.2976H176.167V62.0266C176.503 61.5033 177.095 61.2417 177.943 61.2417" fill="#1A1818"/>
<path d="M186.447 59.3521V66.2854H185.326V65.6413C185.136 65.8758 184.89 66.0588 184.611 66.1733C184.312 66.2948 183.993 66.3554 183.67 66.3515C183.219 66.3585 182.774 66.2491 182.377 66.0337C181.997 65.8252 181.684 65.5127 181.475 65.1328C181.251 64.721 181.138 64.2581 181.147 63.7896C181.138 63.3234 181.251 62.863 181.475 62.4539C181.685 62.0759 181.998 61.7649 182.377 61.5568C182.774 61.3419 183.219 61.233 183.67 61.2405C183.981 61.2363 184.289 61.2929 184.578 61.4073C184.848 61.5173 185.088 61.691 185.277 61.9137V59.3521H186.447ZM184.568 65.161C184.794 65.032 184.979 64.8426 185.102 64.6141C185.23 64.359 185.297 64.0774 185.297 63.7918C185.297 63.5061 185.23 63.2245 185.102 62.9695C184.979 62.7407 184.794 62.5511 184.568 62.4225C184.336 62.2966 184.076 62.2306 183.812 62.2306C183.547 62.2306 183.287 62.2966 183.055 62.4225C182.829 62.5512 182.645 62.7408 182.523 62.9695C182.393 63.2242 182.326 63.506 182.326 63.7918C182.326 64.0775 182.393 64.3593 182.523 64.6141C182.645 64.8425 182.83 65.0319 183.055 65.161C183.287 65.2861 183.547 65.3516 183.812 65.3516C184.076 65.3516 184.336 65.2861 184.568 65.161Z" fill="#1A1818"/>
<path d="M191.572 61.7692C191.961 62.1206 192.156 62.6511 192.156 63.3607V66.287H191.054V65.6803C190.903 65.9035 190.69 66.0773 190.442 66.1799C190.137 66.3023 189.811 66.3612 189.484 66.3531C189.147 66.3604 188.812 66.2946 188.503 66.1602C188.241 66.048 188.015 65.8641 187.852 65.6296C187.7 65.4014 187.62 65.1323 187.624 64.858C187.617 64.6514 187.658 64.4459 187.745 64.2583C187.832 64.0707 187.962 63.906 188.124 63.7776C188.456 63.5072 188.981 63.3719 189.699 63.3716H190.987V63.2968C190.997 63.1481 190.973 62.999 190.919 62.8602C190.865 62.7213 190.781 62.596 190.673 62.4931C190.409 62.2877 190.078 62.1878 189.744 62.2126C189.463 62.2128 189.184 62.257 188.916 62.3436C188.666 62.42 188.433 62.544 188.23 62.7087L187.772 61.8577C188.055 61.6476 188.375 61.4922 188.715 61.3995C189.095 61.2921 189.488 61.2389 189.882 61.2413C190.617 61.2413 191.18 61.4174 191.57 61.7696M190.507 65.3007C190.73 65.1721 190.901 64.968 190.988 64.7251V64.1464H189.782C189.109 64.1464 188.773 64.3677 188.773 64.8105C188.77 64.909 188.791 65.0067 188.835 65.0949C188.879 65.183 188.945 65.2587 189.026 65.3152C189.233 65.451 189.478 65.5165 189.725 65.5021C189.998 65.5068 190.268 65.4375 190.505 65.3014" fill="#1A1818"/>
<path d="M198.324 61.2971L195.987 66.6886C195.836 67.1379 195.56 67.535 195.192 67.8338C194.86 68.0619 194.464 68.1785 194.061 68.1666C193.81 68.1655 193.561 68.1243 193.322 68.0446C193.101 67.9757 192.898 67.8607 192.724 67.707L193.192 66.8473C193.307 66.9551 193.442 67.0404 193.589 67.099C193.736 67.1601 193.893 67.1919 194.051 67.1924C194.235 67.1995 194.414 67.1432 194.561 67.033C194.723 66.8872 194.85 66.7056 194.93 66.5025L195.014 66.3057L192.836 61.2969H194.051L195.621 64.9864L197.201 61.2969L198.324 61.2971Z" fill="#1A1818"/>
<path d="M198.885 66.1324C198.811 66.0606 198.753 65.9742 198.715 65.8787C198.676 65.7832 198.658 65.6808 198.661 65.5778C198.658 65.4756 198.676 65.3738 198.713 65.2786C198.751 65.1834 198.807 65.0966 198.878 65.0234C198.95 64.9501 199.035 64.8919 199.129 64.8522C199.224 64.8125 199.325 64.792 199.427 64.792C199.529 64.792 199.631 64.8125 199.725 64.8522C199.819 64.8919 199.904 64.9501 199.976 65.0234C200.047 65.0966 200.103 65.1834 200.141 65.2786C200.178 65.3738 200.196 65.4756 200.193 65.5778C200.195 65.7299 200.151 65.8788 200.067 66.0059C199.984 66.133 199.864 66.2325 199.724 66.2918C199.584 66.3512 199.43 66.3677 199.281 66.3393C199.131 66.311 198.993 66.239 198.885 66.1324Z" fill="#1A1818"/>
</g>
<defs>
<clipPath id="clip0_1281_2765">
<rect width="237.702" height="86" fill="white"/>
</clipPath>
</defs>
</svg>
