<?xml version="1.0" encoding="UTF-8"?>
<svg width="83px" height="30px" viewBox="0 0 83 30" version="1.1" xmlns="http://www.w3.org/2000/svg" xmlns:xlink="http://www.w3.org/1999/xlink">
    <!-- Generator: sketchtool 55.2 (78181) - https://sketchapp.com -->
    <title>AB43925C-AF1B-4D0D-959D-6533B76E8E00</title>
    <desc>Created with sketchtool.</desc>
    <g id="Page-1" stroke="none" stroke-width="1" fill="none" fill-rule="evenodd">
        <g id="Main-Desktop" transform="translate(-208.000000, -8419.000000)">
            <g id="Footer" transform="translate(0.000000, 8014.000000)">
                <g id="Under-Footer" transform="translate(0.000000, 390.500000)">
                    <g id="Logo-Inito-Small" transform="translate(208.000000, 15.000000)">
                        <rect id="Bundle" x="0" y="0" width="83" height="28"></rect>
                        <g id="Logo" opacity="0.35" transform="translate(0.000000, 0.028302)" fill="#FFFFFF">
                            <polygon id="Fill-1" points="0.833183301 27.1438979 4.93122597 27.1438979 4.93122597 10.6431291 0.833183301 10.6431291"></polygon>
                            <path d="M2.88230709,0.256178893 C1.29047364,0.256178893 0.000102451067,1.54680621 0.000102451067,3.13863966 C0.000102451067,4.73047311 1.29047364,6.0208443 2.88230709,6.0208443 C4.47414054,6.0208443 5.76451173,4.73047311 5.76451173,3.13863966 C5.76451173,1.54680621 4.47414054,0.256178893 2.88230709,0.256178893" id="Fill-2"></path>
                            <path d="M18.7036973,10.2985605 C14.0593343,10.2985605 10.2809389,14.0769559 10.2809389,18.7213189 L10.2809389,27.1440772 L14.3789816,27.1440772 L14.3789816,18.7213189 C14.3789816,16.3367703 16.3191487,14.3966032 18.7036973,14.3966032 C21.0882459,14.3966032 23.0284129,16.3367703 23.0284129,18.7213189 L23.0284129,27.1440772 L27.1264556,27.1440772 L27.1264556,18.7213189 C27.1264556,14.0769559 23.3480603,10.2985605 18.7036973,10.2985605" id="Fill-4"></path>
                            <path d="M46.022556,5.17600719 L41.9245133,5.17600719 L41.9245133,19.596251 C41.9245133,23.7580694 45.3102649,27.1440772 49.4720834,27.1440772 L52.7679342,27.1440772 L52.7679342,23.0460345 L49.4720834,23.0460345 C47.5700794,23.0460345 46.022556,21.4985112 46.022556,19.596251 L46.022556,14.741351 L51.4872959,14.741351 L51.4872959,10.6433084 L46.022556,10.6433084 L46.022556,5.17600719 Z" id="Fill-6"></path>
                            <path d="M66.1272204,23.0523096 C63.8110579,23.9013729 61.2356942,22.7075618 60.386631,20.3911432 C59.5375678,18.0747246 60.7313788,15.499617 63.0477974,14.6505538 C65.3642161,13.8014906 67.9395797,14.9950455 68.788643,17.3117202 C69.6377062,19.6281389 68.443639,22.2032464 66.1272204,23.0523096 M81.8895731,12.5095826 C81.3414599,11.0143093 79.6850823,10.2464385 78.189809,10.7948079 C77.3778843,11.0921721 76.7831558,11.717892 76.4942438,12.4657848 L76.4927071,12.4616867 C75.9599615,13.8396536 73.7559829,15.8151663 70.6173945,12.7257544 L70.6186751,12.7295963 C68.3227467,10.4746483 64.846582,9.60176521 61.6293624,10.780977 C57.1794003,12.4122541 54.8860332,17.35936 56.5170542,21.8093221 C58.1480752,26.2595403 63.0954372,28.5529074 67.5456554,26.9218864 C70.7626189,25.7426747 72.85134,22.830247 73.1463991,19.6255776 L73.1479359,19.6294195 C73.5464705,15.2434893 76.5050012,15.3267308 77.8022878,16.0338993 L77.8007511,16.0300574 C78.5043338,16.4142489 79.3626176,16.5069671 80.1745423,16.2096029 C81.6698156,15.6614897 82.4376863,14.0048559 81.8895731,12.5095826" id="Fill-8"></path>
                            <polygon id="Fill-11" points="32.4762198 27.1438979 36.5742625 27.1438979 36.5742625 10.6431291 32.4762198 10.6431291"></polygon>
                            <path d="M34.5252155,0.256178893 C32.9333821,0.256178893 31.6430109,1.54680621 31.6430109,3.13863966 C31.6430109,4.73047311 32.9333821,6.0208443 34.5252155,6.0208443 C36.117049,6.0208443 37.4074202,4.73047311 37.4074202,3.13863966 C37.4074202,1.54680621 36.117049,0.256178893 34.5252155,0.256178893" id="Fill-13"></path>
                        </g>
                    </g>
                </g>
            </g>
        </g>
    </g>
</svg>