<?xml version="1.0" encoding="UTF-8"?>
<svg width="105px" height="40px" viewBox="0 0 105 40" version="1.1" xmlns="http://www.w3.org/2000/svg" xmlns:xlink="http://www.w3.org/1999/xlink">
    <!-- Generator: sketchtool 55.2 (78181) - https://sketchapp.com -->
    <title>04C4536C-B7BC-48CD-A438-81D6B4430735</title>
    <desc>Created with sketchtool.</desc>
    <g id="Page-1" stroke="none" stroke-width="1" fill="none" fill-rule="evenodd">
        <g id="Order" transform="translate(-208.000000, -20.000000)">
            <g id="Header" transform="translate(208.000000, 20.000000)">
                <g id="Logo-Inito">
                    <rect id="Bundle" x="0" y="0" width="105" height="40"></rect>
                    <g id="Logo" transform="translate(0.000210, 1.672939)" fill="#112D35">
                        <polygon id="Fill-1" points="1.06406542 34.6657009 6.29771028 34.6657009 6.29771028 13.5924299 1.06406542 13.5924299"></polygon>
                        <path d="M3.68101869,0.327168224 C1.64807477,0.327168224 0.000130841121,1.97543925 0.000130841121,4.00838318 C0.000130841121,6.0413271 1.64807477,7.68927103 3.68101869,7.68927103 C5.71396262,7.68927103 7.36190654,6.0413271 7.36190654,4.00838318 C7.36190654,1.97543925 5.71396262,0.327168224 3.68101869,0.327168224" id="Fill-2"></path>
                        <path d="M23.8866495,13.1523785 C17.9552944,13.1523785 13.1298738,17.9777991 13.1298738,23.9091542 L13.1298738,34.6659299 L18.3635187,34.6659299 L18.3635187,23.9091542 C18.3635187,20.8638271 20.8413224,18.3860234 23.8866495,18.3860234 C26.9319766,18.3860234 29.4097804,20.8638271 29.4097804,23.9091542 L29.4097804,34.6659299 L34.6434252,34.6659299 L34.6434252,23.9091542 C34.6434252,17.9777991 29.8180047,13.1523785 23.8866495,13.1523785" id="Fill-4"></path>
                        <path d="M58.7757944,6.61032243 L53.5421495,6.61032243 L53.5421495,25.0265374 C53.5421495,30.3416308 57.8661215,34.6659299 63.181215,34.6659299 L67.3903738,34.6659299 L67.3903738,29.432285 L63.181215,29.432285 C60.7521495,29.432285 58.7757944,27.4559299 58.7757944,25.0265374 L58.7757944,18.8263037 L65.7548598,18.8263037 L65.7548598,13.5926589 L58.7757944,13.5926589 L58.7757944,6.61032243 Z" id="Fill-6"></path>
                        <path d="M84.4516308,29.4402991 C81.4936402,30.5246449 78.2046215,29.0000187 77.1202757,26.0417009 C76.0359299,23.0833832 77.5605561,19.7946916 80.5188738,18.7103458 C83.4771916,17.626 86.7662103,19.1502991 87.8505561,22.1089439 C88.9349019,25.0672617 87.4099486,28.3559533 84.4516308,29.4402991 M104.581864,15.9760935 C103.881864,14.0664673 101.766491,13.0858131 99.8568645,13.7861402 C98.8199486,14.1659065 98.0604159,14.9650187 97.6914439,15.9201589 L97.6894813,15.9149252 C97.0091075,17.6747383 94.1943879,20.1976822 90.1860701,16.2521682 L90.1877056,16.2570748 C87.2555561,13.3772617 82.8161168,12.2624953 78.7073785,13.7684766 C73.0242944,15.8517944 70.0954159,22.169785 72.1784065,27.8528692 C74.2613972,33.5362804 80.579715,36.4651589 86.2631262,34.3821682 C90.3715374,32.8761869 93.0390607,29.1567009 93.4158832,25.0639907 L93.4178458,25.0688972 C93.9268178,19.4675888 97.7051822,19.5738972 99.3619579,20.477028 L99.3599953,20.4721215 C100.258547,20.9627757 101.354668,21.0811869 102.391584,20.7014206 C104.30121,20.0014206 105.281864,17.8857196 104.581864,15.9760935" id="Fill-8"></path>
                        <polygon id="Fill-11" points="41.4756542 34.6657009 46.7092991 34.6657009 46.7092991 13.5924299 41.4756542 13.5924299"></polygon>
                        <path d="M44.0924439,0.327168224 C42.0595,0.327168224 40.4115561,1.97543925 40.4115561,4.00838318 C40.4115561,6.0413271 42.0595,7.68927103 44.0924439,7.68927103 C46.1253879,7.68927103 47.7733318,6.0413271 47.7733318,4.00838318 C47.7733318,1.97543925 46.1253879,0.327168224 44.0924439,0.327168224" id="Fill-13"></path>
                    </g>
                </g>
            </g>
        </g>
    </g>
</svg>