<svg width="238" height="86" viewBox="0 0 238 86" fill="none" xmlns="http://www.w3.org/2000/svg">
<g clip-path="url(#clip0_1281_2966)">
<mask id="mask0_1281_2966" style="mask-type:luminance" maskUnits="userSpaceOnUse" x="0" y="0" width="238" height="86">
<path d="M237.701 0H0V86H237.701V0Z" fill="white"/>
</mask>
<g mask="url(#mask0_1281_2966)">
<path d="M222.628 85.9998H15.0741C13.0946 85.9999 11.1345 85.6101 9.30569 84.8527C7.47685 84.0953 5.81511 82.9851 4.41534 81.5854C3.01557 80.1858 1.90519 78.5242 1.14761 76.6954C0.390021 74.8666 6.33321e-05 72.9065 0 70.9271L0 15.0727C3.16624e-05 13.0932 0.389968 11.1331 1.14754 9.30432C1.90512 7.47553 3.01549 5.81389 4.41527 4.41425C5.81504 3.01461 7.4768 1.90439 9.30565 1.14699C11.1345 0.389589 13.0946 -0.000158296 15.0741 4.82287e-08H222.628C226.626 4.82287e-08 230.459 1.58801 233.286 4.41469C236.113 7.24136 237.701 11.0752 237.701 15.0727V70.9271C237.701 74.9246 236.113 78.7584 233.286 81.5851C230.459 84.4117 226.626 85.9998 222.628 85.9998Z" fill="#FCE7E8"/>
</g>
<path d="M58.5067 24.585H59.9642V31.2019H64.0684V32.4354H58.5067V24.585Z" fill="#EB4F53"/>
<path d="M66.2968 32.1205C65.8225 31.8705 65.4282 31.4918 65.1594 31.0278C64.8905 30.5433 64.7494 29.9983 64.7494 29.4441C64.7494 28.89 64.8905 28.345 65.1594 27.8604C65.4295 27.3987 65.8235 27.0219 66.2968 26.7726C66.8058 26.5138 67.3687 26.3789 67.9396 26.3789C68.5106 26.3789 69.0735 26.5138 69.5824 26.7726C70.056 27.0215 70.4501 27.3984 70.7199 27.8604C70.9888 28.345 71.1299 28.89 71.1299 29.4441C71.1299 29.9983 70.9888 30.5433 70.7199 31.0278C70.4514 31.4921 70.0571 31.8709 69.5824 32.1205C69.0735 32.3793 68.5106 32.5142 67.9396 32.5142C67.3687 32.5142 66.8058 32.3793 66.2968 32.1205ZM69.2125 30.7973C69.5381 30.4202 69.7172 29.9386 69.7172 29.4404C69.7172 28.9422 69.5381 28.4606 69.2125 28.0835C69.0466 27.9139 68.8475 27.7805 68.6275 27.6918C68.4075 27.603 68.1715 27.5607 67.9344 27.5677C67.6982 27.5603 67.4629 27.6024 67.2438 27.6912C67.0247 27.78 66.8266 27.9136 66.6622 28.0835C66.3396 28.462 66.1625 28.9431 66.1625 29.4404C66.1625 29.9377 66.3396 30.4188 66.6622 30.7973C66.8265 30.9674 67.0245 31.1011 67.2437 31.19C67.4628 31.2788 67.6981 31.3208 67.9344 31.3131C68.1716 31.3204 68.4077 31.2783 68.6277 31.1895C68.8477 31.1007 69.0468 30.9671 69.2125 30.7973Z" fill="#EB4F53"/>
<path d="M81.7798 26.447L79.5707 32.4353H78.2251L76.6772 28.3084L75.1073 32.4351H73.7617L71.5637 26.4468H72.8869L74.4681 30.865L76.1165 26.4468H77.2945L78.9102 30.8862L80.5362 26.4468L81.7798 26.447Z" fill="#EB4F53"/>
<path d="M87.4317 25.8068V28.1954H91.222V29.4288H87.4317V32.4342H85.9738V24.5859H91.704V25.8071L87.4317 25.8068Z" fill="#EB4F53"/>
<path d="M98.5669 29.8901H93.8682C93.9384 30.3099 94.1701 30.6856 94.5138 30.9366C94.8911 31.2045 95.346 31.3411 95.8085 31.3254C96.1099 31.3345 96.4099 31.2814 96.6899 31.1693C96.9699 31.0573 97.2238 30.8888 97.4357 30.6743L98.1871 31.539C97.9127 31.8632 97.5614 32.1134 97.1654 32.2668C96.6606 32.4524 96.1238 32.5352 95.5865 32.5104C95.0492 32.4855 94.5223 32.3535 94.0368 32.1221C93.5533 31.876 93.1507 31.4963 92.8767 31.028C92.5994 30.5455 92.4578 29.997 92.4667 29.4406C92.4589 28.8897 92.5964 28.3465 92.8653 27.8657C93.1241 27.4052 93.5065 27.0262 93.9693 26.7716C94.4579 26.5056 95.0067 26.37 95.563 26.3778C96.1092 26.3693 96.6482 26.5033 97.1268 26.7665C97.5815 27.0195 97.9548 27.3967 98.203 27.8541C98.4683 28.3525 98.6012 28.9106 98.5889 29.4751C98.5889 29.5715 98.5814 29.7092 98.5664 29.8901M94.4236 27.899C94.1103 28.1698 93.9083 28.5471 93.8567 28.9581H97.2544C97.2082 28.5514 97.0129 28.1763 96.7063 27.9052C96.3831 27.645 95.9809 27.5026 95.566 27.5015C95.1511 27.5004 94.7482 27.6405 94.4236 27.899Z" fill="#EB4F53"/>
<path d="M103.467 26.3789V27.7134C103.36 27.6928 103.251 27.6815 103.142 27.6796C102.907 27.6662 102.673 27.7017 102.453 27.7838C102.233 27.866 102.032 27.993 101.864 28.1569C101.535 28.536 101.37 29.0295 101.404 29.5299V32.4343H100.002V26.4474H101.337V27.322C101.74 26.6933 102.45 26.3789 103.467 26.3789Z" fill="#EB4F53"/>
<path d="M108.644 32.1097C108.467 32.2497 108.263 32.3526 108.045 32.4123C107.802 32.4808 107.55 32.5148 107.298 32.5134C106.741 32.5492 106.193 32.3639 105.772 31.9978C105.584 31.7982 105.438 31.5616 105.346 31.3029C105.253 31.0443 105.215 30.7693 105.234 30.4952V27.6129H104.247V26.4915H105.234V25.1235H106.636V26.4915H108.239V27.6129H106.636V30.4612C106.619 30.7025 106.695 30.941 106.849 31.1278C106.93 31.2076 107.026 31.2693 107.133 31.3089C107.239 31.3484 107.353 31.3649 107.466 31.3571C107.748 31.3678 108.025 31.2811 108.251 31.1116L108.644 32.1097Z" fill="#EB4F53"/>
<path d="M109.866 25.2191C109.784 25.1417 109.719 25.0486 109.675 24.9454C109.631 24.8421 109.608 24.7309 109.608 24.6185C109.608 24.5062 109.631 24.395 109.675 24.2917C109.719 24.1885 109.784 24.0953 109.866 24.018C110.039 23.8567 110.269 23.77 110.505 23.7768C110.739 23.7694 110.968 23.8514 111.144 24.0062C111.227 24.0776 111.294 24.1665 111.338 24.2666C111.383 24.3667 111.405 24.4754 111.402 24.5849C111.405 24.7004 111.384 24.8152 111.341 24.9222C111.297 25.0292 111.232 25.126 111.149 25.2066C111.065 25.2906 110.964 25.3565 110.854 25.4C110.743 25.4435 110.624 25.4638 110.505 25.4595C110.269 25.4663 110.039 25.3797 109.866 25.2184M109.799 26.4456H111.2V32.4339H109.798L109.799 26.4456Z" fill="#EB4F53"/>
<path d="M114.441 24.1138H113.039V32.4344H114.441V24.1138Z" fill="#EB4F53"/>
<path d="M116.36 25.2191C116.279 25.1417 116.214 25.0486 116.169 24.9454C116.125 24.8421 116.102 24.7309 116.102 24.6185C116.102 24.5062 116.125 24.395 116.169 24.2917C116.214 24.1885 116.279 24.0953 116.36 24.018C116.533 23.8567 116.763 23.77 116.999 23.7768C117.234 23.7694 117.462 23.8514 117.639 24.0062C117.722 24.0776 117.788 24.1665 117.832 24.2666C117.877 24.3667 117.899 24.4754 117.897 24.5849C117.899 24.7003 117.878 24.8151 117.835 24.9221C117.791 25.029 117.726 25.1259 117.644 25.2066C117.559 25.2906 117.459 25.3565 117.348 25.4C117.237 25.4435 117.118 25.4638 117 25.4595C116.763 25.4663 116.533 25.3797 116.36 25.2184M116.293 26.4456H117.695V32.4339H116.293L116.293 26.4456Z" fill="#EB4F53"/>
<path d="M123.184 32.1097C123.006 32.2497 122.802 32.3526 122.584 32.4123C122.341 32.4807 122.09 32.5147 121.839 32.5134C121.282 32.5491 120.734 32.3637 120.314 31.9976C119.954 31.6537 119.775 31.1516 119.775 30.495V27.6129H118.788V26.4915H119.775V25.1235H121.177V26.4915H122.78V27.6129H121.177V30.4612C121.16 30.7025 121.236 30.941 121.39 31.1278C121.471 31.2077 121.567 31.2695 121.674 31.309C121.78 31.3486 121.894 31.365 122.007 31.3571C122.289 31.3677 122.566 31.281 122.792 31.1116L123.184 32.1097Z" fill="#EB4F53"/>
<path d="M130.208 26.4463L127.404 32.9154C127.223 33.4545 126.892 33.9311 126.451 34.29C126.052 34.5627 125.577 34.7019 125.094 34.6874C124.793 34.6868 124.494 34.6379 124.208 34.5427C123.943 34.4605 123.698 34.3229 123.491 34.139L124.051 33.1074C124.191 33.2366 124.352 33.3392 124.528 33.4103C124.704 33.483 124.893 33.5211 125.083 33.5224C125.303 33.531 125.519 33.4628 125.695 33.3295C125.89 33.1545 126.042 32.9359 126.137 32.6914L126.238 32.4546L123.625 26.4463H125.083L126.967 30.8759L128.862 26.4463H130.208Z" fill="#EB4F53"/>
<path d="M40.1671 15.6447C39.7525 15.2353 39.2596 14.9139 38.7179 14.6996C38.1762 14.4853 37.5967 14.3825 37.0144 14.3975C36.4293 14.4058 35.8517 14.5304 35.3153 14.764C34.7788 14.9975 34.2941 15.3354 33.8894 15.758L32.1126 17.6083L30.3233 15.7568C29.9181 15.3352 29.4335 14.9979 28.8975 14.7642C28.3614 14.5305 27.7845 14.4051 27.1998 14.3952C26.6151 14.3852 26.0343 14.491 25.4906 14.7063C24.9469 14.9216 24.4511 15.2423 24.0318 15.6499C23.6125 16.0575 23.2779 16.5439 23.0472 17.0812C22.8165 17.6186 22.6943 18.1962 22.6877 18.781C22.681 19.3657 22.79 19.946 23.0083 20.4884C23.2267 21.0309 23.5501 21.5249 23.96 21.9419L31.7972 28.9717C31.8847 29.0497 31.9979 29.0926 32.115 29.0923C32.2325 29.0929 32.346 29.0493 32.4329 28.9703L40.279 21.9168C40.7849 21.3938 41.1546 20.7545 41.3553 20.0551C41.5561 19.3556 41.5818 18.6176 41.4302 17.9059C41.247 17.0421 40.8071 16.2538 40.168 15.6444" fill="#F6A199"/>
<path d="M35.5473 39.969H35.5448C35.4697 39.9686 35.3956 39.9503 35.3289 39.9156C35.2622 39.881 35.2047 39.8309 35.1612 39.7696L28.2163 30.037C28.1621 29.9619 28.1311 29.8725 28.1271 29.7799C28.1232 29.6873 28.1464 29.5956 28.194 29.5161C28.2416 29.4366 28.3114 29.3728 28.3949 29.3325C28.4783 29.2922 28.5717 29.2773 28.6636 29.2895L33.1853 29.8825L33.2277 23.4507C33.2317 22.8872 33.4561 22.3477 33.8528 21.9475C34.2495 21.5474 34.787 21.3183 35.3504 21.3094C35.9138 21.3004 36.4584 21.5123 36.8676 21.8997C37.2768 22.287 37.5181 22.8191 37.5401 23.3822L37.7892 29.9025L42.5016 29.4576C42.5928 29.4499 42.6843 29.4683 42.7654 29.5106C42.8466 29.553 42.914 29.6175 42.9598 29.6968C43.0045 29.7765 43.0254 29.8674 43.0199 29.9587C43.0143 30.0499 42.9827 30.1376 42.9287 30.2114L35.9309 39.7744C35.8867 39.8347 35.829 39.8837 35.7623 39.9174C35.6956 39.9512 35.622 39.9688 35.5473 39.9688" fill="#EB4F53"/>
<path d="M27.0739 51.9169V54.2256H25.859V51.9347L23.2887 47.6846H24.5882L26.5034 50.8706L28.4383 47.6846H29.6344L27.0739 51.9169Z" fill="#1A1818"/>
<path d="M31.1949 53.9641C30.7993 53.7554 30.4707 53.4393 30.2467 53.0521C30.0228 52.6484 29.9053 52.1943 29.9053 51.7326C29.9053 51.2709 30.0228 50.8168 30.2467 50.4131C30.4717 50.0283 30.8002 49.7145 31.1949 49.5073C31.6148 49.2848 32.0841 49.1721 32.5593 49.1796C33.0377 49.1714 33.5105 49.2842 33.9338 49.5073C34.3279 49.7152 34.6563 50.0289 34.882 50.4131C35.1059 50.8168 35.2234 51.2709 35.2234 51.7326C35.2234 52.1943 35.1059 52.6484 34.882 53.0521C34.6573 53.4387 34.3288 53.7547 33.9338 53.9641C33.5102 54.1863 33.0375 54.2986 32.5593 54.2907C32.0843 54.298 31.6151 54.1857 31.1949 53.9641ZM33.6246 52.8614C33.8955 52.547 34.0445 52.1457 34.0445 51.7307C34.0445 51.3156 33.8955 50.9144 33.6246 50.5999C33.4865 50.4584 33.3205 50.3471 33.1371 50.273C32.9537 50.199 32.7569 50.1639 32.5593 50.17C32.3622 50.1635 32.1659 50.1984 31.9832 50.2725C31.8004 50.3465 31.6352 50.4581 31.4982 50.5999C31.2296 50.9155 31.0821 51.3163 31.0821 51.7307C31.0821 52.145 31.2296 52.5459 31.4982 52.8614C31.6354 53.003 31.8006 53.1144 31.9833 53.1885C32.166 53.2625 32.3622 53.2976 32.5593 53.2914C32.7569 53.2971 32.9536 53.2619 33.137 53.1879C33.3203 53.1139 33.4864 53.0027 33.6246 52.8614Z" fill="#1A1818"/>
<path d="M41.1752 49.2344V54.2246H40.0626V53.5887C39.8739 53.8146 39.6342 53.9923 39.3633 54.1072C39.0768 54.2304 38.7679 54.2927 38.4561 54.2902C38.17 54.3059 37.8836 54.2648 37.6135 54.1691C37.3434 54.0735 37.0949 53.9253 36.8824 53.7331C36.4986 53.3618 36.3068 52.8119 36.3068 52.0835V49.2344H37.4756V51.9248C37.4473 52.2857 37.5554 52.6441 37.7785 52.9292C37.8903 53.0433 38.0255 53.132 38.1747 53.1893C38.3239 53.2465 38.4837 53.2709 38.6432 53.2607C38.8271 53.2698 39.0107 53.24 39.1823 53.1732C39.3538 53.1064 39.5093 53.0042 39.6386 52.8732C39.9032 52.5633 40.0361 52.1621 40.0088 51.7555V49.2344H41.1752Z" fill="#1A1818"/>
<path d="M45.5947 49.1799V50.2926C45.5054 50.2741 45.4144 50.2645 45.3232 50.2639C45.1279 50.2528 44.9324 50.2823 44.7491 50.3505C44.5657 50.4187 44.3985 50.5241 44.2578 50.6601C43.9843 50.9764 43.8468 51.388 43.8754 51.8053V54.2261H42.7078V49.2356H43.8192V49.9646C44.1557 49.4413 44.7475 49.1797 45.5947 49.1797" fill="#1A1818"/>
<path d="M50.5003 48.9741V49.2731H51.8748V50.2076H50.5376V54.226H49.37V50.2076H48.5477V49.2731H49.37V48.9541C49.3572 48.7226 49.3921 48.4908 49.4724 48.2733C49.5528 48.0558 49.677 47.8571 49.8374 47.6896C50.0149 47.528 50.2231 47.4038 50.4495 47.3244C50.676 47.245 50.9162 47.212 51.1557 47.2273C51.5267 47.2068 51.895 47.3008 52.2109 47.4964L51.8844 48.3771C51.6962 48.2433 51.4712 48.171 51.2403 48.1702C50.7494 48.1702 50.5015 48.4393 50.5015 48.9751" fill="#1A1818"/>
<path d="M57.3318 52.1037H53.4171C53.4753 52.4537 53.6681 52.7671 53.9541 52.9771C54.2689 53.1997 54.6479 53.313 55.0333 53.2997C55.2845 53.3076 55.5346 53.2634 55.7679 53.1699C56.0013 53.0764 56.2127 52.9357 56.389 52.7564L57.0145 53.478C56.7863 53.7479 56.4942 53.9565 56.1647 54.0847C55.795 54.2261 55.4018 54.2959 55.006 54.2904C54.5035 54.3007 54.0061 54.1882 53.557 53.9626C53.1539 53.7582 52.8182 53.442 52.59 53.0519C52.3588 52.6497 52.2408 52.1925 52.2485 51.7287C52.2419 51.2697 52.3567 50.817 52.5813 50.4166C52.7962 50.0327 53.1148 49.717 53.5008 49.5058C53.907 49.2836 54.3641 49.1706 54.8271 49.1781C55.2826 49.1703 55.7323 49.2815 56.1317 49.5008C56.5107 49.7115 56.8215 50.0263 57.0275 50.408C57.2492 50.8229 57.3603 51.288 57.3502 51.7584C57.3502 51.8394 57.3439 51.9551 57.3316 52.1046M53.8801 50.4441C53.6188 50.67 53.4506 50.9847 53.4079 51.3274H56.2392C56.2013 50.9839 56.0346 50.6675 55.7726 50.442C55.5106 50.2165 55.1729 50.0988 54.8276 50.1126C54.4816 50.1031 54.1442 50.221 53.8794 50.4439" fill="#1A1818"/>
<path d="M61.3602 49.1797V50.2923C61.2709 50.2739 61.1799 50.2643 61.0887 50.2636C60.8934 50.2526 60.6979 50.2821 60.5146 50.3503C60.3312 50.4184 60.164 50.5238 60.0233 50.6598C59.7498 50.9762 59.6124 51.3878 59.6409 51.805V54.2259H58.4735V49.2354H59.5849V49.9644C59.9214 49.4412 60.5132 49.1797 61.3602 49.1797Z" fill="#1A1818"/>
<path d="M65.3975 53.9543C65.2495 54.0719 65.0791 54.1579 64.8966 54.2072C64.6944 54.2643 64.4851 54.2928 64.2749 54.2919C63.8115 54.321 63.3552 54.166 63.0053 53.8607C62.848 53.6944 62.7269 53.4972 62.6497 53.2816C62.5725 53.0661 62.5408 52.8368 62.5568 52.6084V50.2074H61.7345V49.2729H62.5568V48.1328H63.7247V49.2729H65.0591V50.2074H63.7247V52.5797C63.7105 52.781 63.7734 52.9801 63.9004 53.1368C63.9679 53.2032 64.0486 53.2547 64.1372 53.288C64.2259 53.3212 64.3205 53.3354 64.415 53.3297C64.6498 53.3378 64.8803 53.2652 65.0681 53.124L65.3975 53.9543Z" fill="#1A1818"/>
<path d="M66.4153 48.2112C66.3476 48.1466 66.2937 48.069 66.2569 47.983C66.22 47.897 66.201 47.8045 66.201 47.7109C66.201 47.6174 66.22 47.5248 66.2569 47.4388C66.2937 47.3528 66.3476 47.2752 66.4153 47.2107C66.56 47.0767 66.7514 47.0047 66.9485 47.01C67.1438 47.0048 67.3339 47.0737 67.4804 47.203C67.5497 47.2622 67.6049 47.3361 67.6422 47.4192C67.6795 47.5023 67.6979 47.5927 67.696 47.6838C67.6984 47.78 67.6809 47.8757 67.6447 47.9648C67.6085 48.054 67.5543 48.1347 67.4855 48.202C67.4151 48.272 67.3312 48.3267 67.2388 48.3629C67.1464 48.3991 67.0476 48.416 66.9485 48.4125C66.7513 48.4185 66.5597 48.3464 66.4153 48.2119M66.3591 49.236H67.5265V54.2255H66.3591V49.236Z" fill="#1A1818"/>
<path d="M70.2283 47.2905H69.0607V54.2246H70.2283V47.2905Z" fill="#1A1818"/>
<path d="M71.8167 48.2112C71.749 48.1466 71.6951 48.069 71.6582 47.983C71.6214 47.8971 71.6024 47.8045 71.6024 47.7109C71.6024 47.6174 71.6214 47.5248 71.6582 47.4388C71.6951 47.3528 71.749 47.2752 71.8167 47.2107C71.9614 47.0766 72.1529 47.0046 72.3501 47.0101C72.5454 47.0048 72.7355 47.0737 72.8821 47.203C72.9513 47.2622 73.0065 47.3361 73.0438 47.4192C73.0811 47.5023 73.0995 47.5927 73.0976 47.6838C73.1 47.78 73.0825 47.8757 73.0463 47.9648C73.0101 48.054 72.9559 48.1347 72.8871 48.202C72.8167 48.272 72.7328 48.3267 72.6404 48.3629C72.5481 48.3992 72.4492 48.416 72.3501 48.4125C72.1528 48.4186 71.9611 48.3465 71.8167 48.2119M71.7605 49.2361H72.9279V54.2256H71.7605V49.2361Z" fill="#1A1818"/>
<path d="M77.4611 53.9543C77.3136 54.0719 77.1435 54.1579 76.9614 54.2072C76.7591 54.2642 76.5499 54.2927 76.3397 54.2919C75.8759 54.3212 75.4192 54.1662 75.0689 53.8607C74.9116 53.6944 74.7905 53.4972 74.7133 53.2816C74.6361 53.0661 74.6044 52.8368 74.6204 52.6084V50.2074H73.7981V49.2729H74.6204V48.1328H75.7892V49.2729H77.1249V50.2074H75.789V52.5797C75.7747 52.7812 75.838 52.9805 75.966 53.1368C76.0331 53.2034 76.1135 53.255 76.202 53.2882C76.2905 53.3215 76.385 53.3356 76.4794 53.3297C76.7145 53.3378 76.9454 53.2652 77.1336 53.124L77.4611 53.9543Z" fill="#1A1818"/>
<path d="M83.0967 49.2341L80.7605 54.6254C80.6088 55.0747 80.3329 55.4717 79.9647 55.7706C79.6328 55.9987 79.237 56.1152 78.8345 56.1033C78.5832 56.1022 78.3338 56.0611 78.0956 55.9813C77.8746 55.9125 77.6707 55.7974 77.4976 55.6437L77.9649 54.784C78.0806 54.8918 78.2154 54.9772 78.3623 55.0358C78.5088 55.097 78.6658 55.1288 78.8246 55.1294C79.0077 55.1365 79.1877 55.0802 79.3341 54.97C79.4966 54.8242 79.6229 54.6426 79.7028 54.4395L79.7875 54.2427L77.6094 49.2339H78.8253L80.3951 52.9234L81.9751 49.2339L83.0967 49.2341Z" fill="#1A1818"/>
<path d="M87.5723 47.2905H86.4049V54.2246H87.5723V47.2905Z" fill="#1A1818"/>
<path d="M93.7771 52.1037H89.8624C89.9206 52.4537 90.1133 52.7672 90.3994 52.9771C90.7142 53.1997 91.0933 53.3131 91.4786 53.2997C91.7298 53.3076 91.9799 53.2634 92.2133 53.1699C92.4466 53.0764 92.658 52.9357 92.8343 52.7564L93.4598 53.478C93.2316 53.7479 92.9395 53.9565 92.61 54.0847C92.2403 54.2261 91.8471 54.2959 91.4513 54.2904C90.9488 54.3007 90.4514 54.1882 90.0023 53.9626C89.5992 53.7582 89.2635 53.442 89.0353 53.0519C88.8041 52.6497 88.6861 52.1925 88.6938 51.7287C88.6872 51.2697 88.802 50.817 89.0266 50.4166C89.2415 50.0327 89.5601 49.717 89.9461 49.5058C90.3523 49.2835 90.8094 49.1706 91.2724 49.1781C91.7279 49.1703 92.1776 49.2815 92.577 49.5008C92.9559 49.7117 93.2666 50.0267 93.4723 50.4084C93.6941 50.8234 93.8052 51.2885 93.795 51.7588C93.795 51.8399 93.7887 51.9556 93.7764 52.1051M90.3237 50.4456C90.0624 50.6714 89.8942 50.9862 89.8516 51.3289H92.6845C92.6467 50.9853 92.4799 50.6689 92.2179 50.4435C91.956 50.218 91.6182 50.1003 91.2729 50.114C90.9269 50.1045 90.5895 50.2224 90.3247 50.4453" fill="#1A1818"/>
<path d="M99.5904 49.2349L97.45 54.2253H96.2443L94.1036 49.2351H95.3185L96.8712 52.9357L98.4698 49.2351L99.5904 49.2349Z" fill="#1A1818"/>
<path d="M104.991 52.1037H101.077C101.135 52.4537 101.327 52.7671 101.614 52.9771C101.928 53.1997 102.307 53.3131 102.693 53.2997C102.944 53.3076 103.194 53.2634 103.427 53.1699C103.661 53.0764 103.872 52.9357 104.048 52.7564L104.674 53.478C104.446 53.7479 104.154 53.9565 103.824 54.0847C103.454 54.2261 103.061 54.2959 102.665 54.2904C102.163 54.3007 101.666 54.1882 101.216 53.9626C100.813 53.7582 100.478 53.442 100.249 53.0519C100.018 52.6497 99.9002 52.1925 99.9079 51.7287C99.9013 51.2697 100.016 50.817 100.241 50.4166C100.456 50.0327 100.774 49.717 101.16 49.5058C101.566 49.2835 102.023 49.1706 102.486 49.1781C102.942 49.1703 103.392 49.2815 103.791 49.5008C104.17 49.7117 104.481 50.0267 104.686 50.4084C104.908 50.8234 105.019 51.2885 105.009 51.7588C105.009 51.8399 105.003 51.9556 104.99 52.1051M101.538 50.4456C101.276 50.6714 101.108 50.9862 101.065 51.3289H103.899C103.861 50.9853 103.694 50.6689 103.432 50.4435C103.17 50.218 102.832 50.1003 102.487 50.114C102.141 50.1045 101.804 50.2224 101.539 50.4453" fill="#1A1818"/>
<path d="M107.299 47.2905H106.131V54.2246H107.299V47.2905Z" fill="#1A1818"/>
<path d="M111.468 48.2112C111.4 48.1469 111.346 48.0693 111.309 47.9833C111.271 47.8973 111.252 47.8046 111.252 47.711C111.252 47.6173 111.271 47.5246 111.309 47.4386C111.346 47.3526 111.4 47.275 111.468 47.2107C111.612 47.0765 111.803 47.0045 112 47.0101C112.196 47.005 112.386 47.0739 112.533 47.203C112.602 47.2625 112.657 47.3364 112.694 47.4195C112.731 47.5026 112.749 47.5928 112.748 47.6838C112.75 47.78 112.733 47.8757 112.696 47.9648C112.66 48.054 112.606 48.1347 112.537 48.202C112.467 48.2721 112.383 48.3269 112.29 48.3631C112.198 48.3994 112.099 48.4162 112 48.4126C111.803 48.4188 111.612 48.3466 111.468 48.2119M111.412 49.2361H112.579V54.2256H111.412L111.412 49.2361Z" fill="#1A1818"/>
<path d="M114.467 54.1309C114.138 54.0508 113.826 53.9151 113.542 53.7296L113.991 52.8413C114.24 53.0025 114.512 53.124 114.798 53.2013C115.101 53.2892 115.414 53.3345 115.729 53.3358C116.427 53.3358 116.776 53.1522 116.776 52.7851C116.778 52.7034 116.753 52.6234 116.705 52.5575C116.656 52.4917 116.588 52.4437 116.509 52.4212C116.231 52.3283 115.945 52.2624 115.654 52.2244C115.314 52.1771 114.978 52.1055 114.649 52.01C114.391 51.9287 114.159 51.7819 113.976 51.5839C113.775 51.3496 113.672 51.0463 113.691 50.738C113.686 50.514 113.738 50.2926 113.842 50.0941C113.946 49.8957 114.098 49.7267 114.285 49.6029C114.761 49.297 115.322 49.1483 115.887 49.178C116.233 49.1788 116.578 49.2181 116.915 49.2952C117.21 49.356 117.494 49.4618 117.756 49.6087L117.308 50.4971C116.874 50.2448 116.38 50.1151 115.879 50.1221C115.609 50.1067 115.341 50.1599 115.097 50.2767C115.02 50.313 114.954 50.3703 114.907 50.442C114.859 50.5137 114.833 50.597 114.831 50.6828C114.829 50.7712 114.855 50.8578 114.907 50.9298C114.958 51.0017 115.032 51.055 115.116 51.0816C115.402 51.1837 115.698 51.2572 115.999 51.3008C116.331 51.3476 116.66 51.4193 116.981 51.5152C117.232 51.5934 117.459 51.735 117.639 51.9263C117.836 52.1539 117.935 52.4497 117.916 52.7499C117.919 52.973 117.865 53.1933 117.758 53.3895C117.652 53.5857 117.497 53.7512 117.308 53.87C116.812 54.1757 116.235 54.3227 115.654 54.291C115.253 54.2914 114.854 54.2378 114.467 54.1316" fill="#1A1818"/>
<path d="M122.671 47.2905H121.503V54.2246H122.671V47.2905Z" fill="#1A1818"/>
<path d="M125.083 53.9642C124.687 53.7554 124.359 53.4393 124.135 53.0522C123.911 52.6485 123.793 52.1944 123.793 51.7327C123.793 51.271 123.911 50.8169 124.135 50.4131C124.36 50.0284 124.688 49.7146 125.083 49.5074C125.507 49.292 125.976 49.1797 126.452 49.1797C126.928 49.1797 127.397 49.292 127.821 49.5074C128.216 49.7153 128.544 50.0289 128.77 50.4131C128.994 50.8169 129.111 51.271 129.111 51.7327C129.111 52.1944 128.994 52.6485 128.77 53.0522C128.545 53.4388 128.217 53.7547 127.821 53.9642C127.397 54.1789 126.928 54.2907 126.452 54.2907C125.976 54.2907 125.507 54.1789 125.083 53.9642ZM127.513 52.8615C127.783 52.547 127.932 52.1458 127.932 51.7307C127.932 51.3157 127.783 50.9145 127.513 50.6C127.374 50.4585 127.208 50.3471 127.025 50.2731C126.842 50.1991 126.645 50.164 126.447 50.1701C126.25 50.1636 126.054 50.1985 125.871 50.2726C125.688 50.3466 125.523 50.4582 125.386 50.6C125.118 50.9155 124.97 51.3164 124.97 51.7307C124.97 52.1451 125.118 52.546 125.386 52.8615C125.523 53.0031 125.689 53.1145 125.871 53.1886C126.054 53.2626 126.25 53.2976 126.447 53.2914C126.645 53.2972 126.842 53.262 127.025 53.188C127.208 53.114 127.374 53.0028 127.513 52.8615Z" fill="#1A1818"/>
<path d="M138.016 49.2349L136.173 54.2253H135.053L133.763 50.7864L132.455 54.2253H131.334L129.501 49.2351H130.605L131.922 52.9171L133.297 49.2351H134.277L135.623 52.9357L136.977 49.2351L138.016 49.2349Z" fill="#1A1818"/>
<path d="M142.688 48.9741V49.2731H144.062V50.2075H142.725V54.2259H141.558V50.2075H140.735V49.2731H141.558V48.9541C141.545 48.7225 141.58 48.4908 141.66 48.2733C141.74 48.0558 141.865 47.8571 142.025 47.6895C142.202 47.5281 142.41 47.4039 142.636 47.3245C142.863 47.2451 143.103 47.212 143.342 47.2272C143.713 47.2066 144.082 47.3005 144.399 47.4963L144.071 48.376C143.883 48.2423 143.658 48.17 143.427 48.1691C142.935 48.1691 142.688 48.4375 142.688 48.9741Z" fill="#1A1818"/>
<path d="M145.726 53.9642C145.33 53.7554 145.001 53.4393 144.777 53.0522C144.553 52.6485 144.436 52.1944 144.436 51.7327C144.436 51.271 144.553 50.8169 144.777 50.4131C145.002 50.0284 145.331 49.7146 145.726 49.5074C146.15 49.292 146.619 49.1797 147.095 49.1797C147.571 49.1797 148.04 49.292 148.464 49.5074C148.858 49.7153 149.187 50.0289 149.412 50.4131C149.636 50.8169 149.754 51.271 149.754 51.7327C149.754 52.1944 149.636 52.6485 149.412 53.0522C149.188 53.4388 148.859 53.7547 148.464 53.9642C148.04 54.1789 147.571 54.2907 147.095 54.2907C146.619 54.2907 146.15 54.1789 145.726 53.9642ZM148.155 52.8615C148.426 52.547 148.575 52.1458 148.575 51.7307C148.575 51.3157 148.426 50.9145 148.155 50.6C148.017 50.4585 147.851 50.3471 147.668 50.2731C147.484 50.1991 147.288 50.164 147.09 50.1701C146.893 50.1636 146.697 50.1985 146.514 50.2726C146.331 50.3466 146.166 50.4582 146.029 50.6C145.76 50.9155 145.613 51.3164 145.613 51.7307C145.613 52.1451 145.76 52.546 146.029 52.8615C146.166 53.0031 146.331 53.1145 146.514 53.1886C146.697 53.2626 146.893 53.2976 147.09 53.2914C147.288 53.2972 147.484 53.262 147.668 53.188C147.851 53.114 148.017 53.0028 148.155 52.8615Z" fill="#1A1818"/>
<path d="M153.762 49.1799V50.2926C153.673 50.2741 153.582 50.2645 153.491 50.2639C153.295 50.2528 153.1 50.2823 152.916 50.3505C152.733 50.4187 152.566 50.5241 152.425 50.6601C152.152 50.9764 152.014 51.388 152.043 51.8053V54.2261H150.875V49.2356H151.987V49.9646C152.324 49.4413 152.916 49.1797 153.763 49.1797" fill="#1A1818"/>
<path d="M160.377 53.9543C160.23 54.0719 160.06 54.1579 159.877 54.2072C159.675 54.2642 159.466 54.2927 159.256 54.2919C158.792 54.3212 158.335 54.1662 157.985 53.8607C157.828 53.6944 157.706 53.4972 157.629 53.2816C157.552 53.0661 157.52 52.8368 157.536 52.6084V50.2074H156.714V49.2729H157.536V48.1328H158.705V49.2729H160.041V50.2074H158.705V52.5797C158.691 52.7812 158.754 52.9805 158.882 53.1368C158.949 53.2034 159.03 53.255 159.118 53.2882C159.207 53.3215 159.301 53.3356 159.396 53.3297C159.631 53.338 159.862 53.2654 160.05 53.124L160.377 53.9543Z" fill="#1A1818"/>
<path d="M162.218 53.9642C161.822 53.7554 161.493 53.4393 161.269 53.0522C161.045 52.6485 160.928 52.1944 160.928 51.7327C160.928 51.271 161.045 50.8169 161.269 50.4131C161.494 50.0284 161.823 49.7146 162.218 49.5074C162.642 49.292 163.111 49.1797 163.587 49.1797C164.063 49.1797 164.532 49.292 164.956 49.5074C165.35 49.7153 165.679 50.0289 165.904 50.4131C166.128 50.8169 166.246 51.271 166.246 51.7327C166.246 52.1944 166.128 52.6485 165.904 53.0522C165.68 53.4388 165.351 53.7547 164.956 53.9642C164.532 54.1789 164.063 54.2907 163.587 54.2907C163.111 54.2907 162.642 54.1789 162.218 53.9642ZM164.647 52.8615C164.918 52.547 165.067 52.1458 165.067 51.7307C165.067 51.3157 164.918 50.9145 164.647 50.6C164.509 50.4585 164.343 50.3471 164.16 50.2731C163.976 50.1991 163.78 50.164 163.582 50.1701C163.385 50.1636 163.189 50.1985 163.006 50.2726C162.823 50.3466 162.658 50.4582 162.521 50.6C162.252 50.9155 162.105 51.3164 162.105 51.7307C162.105 52.1451 162.252 52.546 162.521 52.8615C162.658 53.0031 162.823 53.1145 163.006 53.1886C163.189 53.2626 163.385 53.2976 163.582 53.2914C163.78 53.2972 163.976 53.262 164.16 53.188C164.343 53.114 164.509 53.0028 164.647 52.8615Z" fill="#1A1818"/>
<path d="M172.255 47.2905V54.2244H171.134V53.5803C170.944 53.8148 170.698 53.9977 170.419 54.1122C170.12 54.2337 169.8 54.2943 169.478 54.2904C169.027 54.2975 168.582 54.188 168.185 53.9726C167.805 53.7641 167.492 53.4516 167.283 53.0717C167.059 52.6599 166.946 52.1971 166.955 51.7285C166.946 51.2624 167.059 50.8019 167.283 50.3928C167.493 50.0148 167.806 49.7039 168.185 49.4958C168.582 49.2809 169.027 49.1719 169.478 49.1794C169.789 49.1752 170.097 49.2319 170.385 49.3463C170.656 49.4562 170.896 49.63 171.085 49.8527V47.2905H172.255ZM170.376 53.0994C170.602 52.9705 170.786 52.7811 170.91 52.5525C171.038 52.2975 171.105 52.0158 171.105 51.7301C171.105 51.4444 171.038 51.1627 170.91 50.9077C170.787 50.6789 170.602 50.4894 170.376 50.3608C170.144 50.2348 169.884 50.1689 169.619 50.1689C169.355 50.1689 169.095 50.2348 168.862 50.3608C168.637 50.4895 168.453 50.679 168.33 50.9077C168.201 51.1625 168.133 51.4443 168.133 51.7301C168.133 52.0159 168.201 52.2977 168.33 52.5525C168.453 52.781 168.637 52.9704 168.862 53.0994C169.095 53.2246 169.355 53.2901 169.619 53.2901C169.883 53.2901 170.144 53.2246 170.376 53.0994Z" fill="#1A1818"/>
<path d="M177.38 49.7064C177.77 50.0578 177.965 50.5884 177.964 51.298V54.2235H176.861V53.6168C176.711 53.84 176.498 54.0138 176.25 54.1164C175.945 54.2388 175.619 54.2977 175.292 54.2896C174.955 54.2969 174.62 54.2311 174.311 54.0967C174.049 53.9842 173.823 53.8004 173.66 53.5662C173.508 53.3379 173.428 53.0689 173.432 52.7945C173.425 52.5879 173.467 52.3826 173.553 52.195C173.64 52.0074 173.77 51.8427 173.932 51.7142C174.264 51.4438 174.789 51.3084 175.506 51.3081H176.795V51.2333C176.804 51.0846 176.781 50.9356 176.727 50.7967C176.673 50.6579 176.589 50.5325 176.481 50.4296C176.217 50.2244 175.887 50.1245 175.553 50.1491C175.272 50.1492 174.992 50.1934 174.725 50.2801C174.474 50.3566 174.241 50.4805 174.038 50.6452L173.582 49.7942C173.865 49.5839 174.184 49.4285 174.524 49.336C174.904 49.2285 175.298 49.1753 175.693 49.1778C176.427 49.1778 176.99 49.3548 177.379 49.7062M176.313 53.2387C176.537 53.1101 176.707 52.906 176.794 52.6631V52.0843H175.588C174.916 52.0843 174.579 52.3057 174.579 52.7484C174.576 52.8469 174.598 52.9446 174.642 53.0326C174.687 53.1206 174.752 53.1961 174.833 53.2524C175.04 53.3882 175.285 53.4538 175.532 53.4393C175.806 53.4441 176.075 53.3747 176.313 53.2387" fill="#1A1818"/>
<path d="M184.131 49.2341L181.796 54.6254C181.644 55.0747 181.368 55.4717 181 55.7706C180.668 55.9987 180.272 56.1152 179.869 56.1033C179.618 56.102 179.369 56.0609 179.131 55.9813C178.91 55.9122 178.706 55.7972 178.533 55.6437L179 54.784C179.116 54.8918 179.25 54.9772 179.397 55.0358C179.544 55.097 179.702 55.1288 179.861 55.1294C180.044 55.1362 180.223 55.0799 180.369 54.97C180.532 54.8242 180.658 54.6426 180.738 54.4395L180.822 54.2427L178.644 49.2339H179.861L181.429 52.9234L183.01 49.2339L184.131 49.2341Z" fill="#1A1818"/>
<path d="M184.693 54.0699C184.619 53.9981 184.561 53.9116 184.522 53.8162C184.484 53.7207 184.465 53.6183 184.468 53.5153C184.466 53.4131 184.484 53.3113 184.521 53.2161C184.558 53.1209 184.614 53.0341 184.686 52.9609C184.757 52.8876 184.843 52.8294 184.937 52.7897C185.031 52.75 185.132 52.7295 185.235 52.7295C185.337 52.7295 185.438 52.75 185.532 52.7897C185.627 52.8294 185.712 52.8876 185.784 52.9609C185.855 53.0341 185.911 53.1209 185.948 53.2161C185.986 53.3113 186.004 53.4131 186.001 53.5153C186.002 53.6673 185.958 53.8163 185.875 53.9434C185.791 54.0705 185.672 54.17 185.532 54.2293C185.392 54.2887 185.238 54.3052 185.088 54.2768C184.939 54.2485 184.801 54.1765 184.693 54.0699Z" fill="#1A1818"/>
<path d="M191.16 48.7116H188.991V47.6841H194.543V48.7121H192.375V54.2256H191.16V48.7116Z" fill="#1A1818"/>
<path d="M198.939 49.7064C199.328 50.0578 199.523 50.5883 199.524 51.298V54.2235H198.421V53.6168C198.271 53.84 198.058 54.0138 197.809 54.1164C197.505 54.2388 197.179 54.2977 196.851 54.2896C196.514 54.2969 196.18 54.2311 195.871 54.0967C195.608 53.9845 195.382 53.8007 195.22 53.5661C195.067 53.3378 194.988 53.0688 194.992 52.7945C194.985 52.5879 195.026 52.3825 195.113 52.1948C195.2 52.0072 195.329 51.8425 195.491 51.7142C195.824 51.4438 196.349 51.3084 197.066 51.3081H198.355V51.2333C198.364 51.0846 198.341 50.9356 198.287 50.7967C198.233 50.6578 198.149 50.5325 198.041 50.4296C197.777 50.2243 197.445 50.1243 197.112 50.1491C196.831 50.1493 196.551 50.1935 196.284 50.2801C196.034 50.3566 195.801 50.4805 195.598 50.6452L195.139 49.7942C195.423 49.5841 195.742 49.4287 196.083 49.336C196.462 49.2286 196.855 49.1754 197.25 49.1778C197.985 49.1778 198.548 49.3539 198.938 49.7062M197.873 53.2387C198.096 53.1101 198.267 52.906 198.354 52.6631V52.0843H197.148C196.475 52.0843 196.139 52.3057 196.139 52.7484C196.136 52.847 196.157 52.9447 196.201 53.0328C196.245 53.1209 196.311 53.1967 196.392 53.2531C196.599 53.3889 196.844 53.4545 197.091 53.44C197.364 53.4447 197.634 53.3754 197.871 53.2394" fill="#1A1818"/>
<path d="M203.056 52.0847L202.187 52.907V54.2253H201.019V47.29H202.187V51.4777L204.607 49.2351H206.009L203.924 51.3285L206.205 54.2253H204.786L203.056 52.0847Z" fill="#1A1818"/>
<path d="M211.633 52.1037H207.719C207.777 52.4537 207.97 52.7671 208.256 52.9771C208.57 53.1997 208.949 53.313 209.335 53.2997C209.586 53.3076 209.836 53.2634 210.069 53.1699C210.303 53.0764 210.514 52.9357 210.69 52.7564L211.316 53.478C211.088 53.7479 210.796 53.9565 210.466 54.0847C210.097 54.2261 209.703 54.2959 209.308 54.2904C208.805 54.3007 208.308 54.1882 207.858 53.9626C207.455 53.7582 207.12 53.442 206.891 53.0519C206.66 52.6497 206.542 52.1925 206.55 51.7287C206.543 51.2697 206.658 50.817 206.883 50.4166C207.098 50.0327 207.416 49.717 207.802 49.5058C208.209 49.2836 208.666 49.1706 209.129 49.1781C209.584 49.1703 210.034 49.2815 210.433 49.5008C210.812 49.7115 211.123 50.0263 211.329 50.408C211.551 50.8229 211.662 51.288 211.652 51.7584C211.652 51.8394 211.645 51.9551 211.633 52.1046M208.18 50.4451C207.919 50.6709 207.751 50.9857 207.708 51.3284H210.54C210.502 50.9848 210.336 50.6684 210.074 50.443C209.812 50.2175 209.474 50.0998 209.129 50.1135C208.783 50.104 208.445 50.2219 208.18 50.4448" fill="#1A1818"/>
<path d="M28.8123 60.4482L26.4761 65.8395C26.3244 66.2888 26.0485 66.6859 25.6803 66.9847C25.3485 67.2127 24.9527 67.3293 24.5503 67.3175C24.2991 67.3163 24.0496 67.275 23.8114 67.1952C23.5904 67.1264 23.3865 67.0113 23.2134 66.8576L23.6807 65.9979C23.7965 66.1057 23.9312 66.1911 24.0781 66.2497C24.2246 66.3108 24.3817 66.3425 24.5404 66.343C24.7235 66.3501 24.9035 66.2938 25.0499 66.1836C25.2124 66.0379 25.3387 65.8562 25.4186 65.6531L25.5033 65.4563L23.3272 60.4482H24.5421L26.1119 64.1377L27.6919 60.4482H28.8123Z" fill="#1A1818"/>
<path d="M30.4186 65.178C30.0236 64.9688 29.6955 64.6528 29.4716 64.266C29.2469 63.8625 29.1289 63.4083 29.1289 62.9465C29.1289 62.4846 29.2469 62.0304 29.4716 61.6269C29.6965 61.2425 30.0245 60.9288 30.4186 60.7212C30.8389 60.4988 31.3086 60.3861 31.7841 60.3935C32.2622 60.3852 32.7345 60.4979 33.1572 60.7212C33.552 60.9287 33.8808 61.2424 34.1066 61.6269C34.3297 62.031 34.4468 62.4849 34.4468 62.9465C34.4468 63.408 34.3297 63.862 34.1066 64.266C33.8818 64.6529 33.5528 64.9689 33.1572 65.178C32.7342 65.4003 32.262 65.5126 31.7841 65.5045C31.3088 65.5117 30.8392 65.3995 30.4186 65.178ZM32.8495 64.0753C33.1204 63.7608 33.2694 63.3596 33.2694 62.9446C33.2694 62.5295 33.1204 62.1283 32.8495 61.8138C32.7114 61.6723 32.5454 61.5609 32.362 61.4869C32.1786 61.4129 31.9818 61.3778 31.7841 61.3839C31.587 61.3773 31.3908 61.4121 31.208 61.4862C31.0252 61.5603 30.86 61.6719 30.7231 61.8138C30.4545 62.1293 30.307 62.5302 30.307 62.9446C30.307 63.3589 30.4545 63.7598 30.7231 64.0753C30.8602 64.217 31.0254 64.3285 31.2081 64.4025C31.3909 64.4766 31.5871 64.5116 31.7841 64.5052C31.9818 64.511 32.1785 64.4758 32.3618 64.4018C32.5452 64.3278 32.7112 64.2166 32.8495 64.0753Z" fill="#1A1818"/>
<path d="M40.4002 60.4482V65.4385H39.2878V64.8026C39.0991 65.0285 38.8594 65.2062 38.5885 65.321C38.3016 65.4442 37.9923 65.5066 37.6801 65.5043C37.3942 65.52 37.108 65.4789 36.838 65.3833C36.5681 65.2876 36.3198 65.1395 36.1076 64.9473C35.7238 64.5759 35.5316 64.026 35.5308 63.2976V60.4482H36.7008V63.1387C36.6726 63.4996 36.7806 63.8579 37.0037 64.143C37.1153 64.2571 37.2502 64.3458 37.3993 64.403C37.5483 64.4602 37.7079 64.4845 37.8672 64.4744C38.0513 64.4836 38.2352 64.4538 38.407 64.3871C38.5788 64.3203 38.7346 64.218 38.8641 64.0869C39.1277 63.7764 39.26 63.3755 39.2328 62.9692V60.4482H40.4002Z" fill="#1A1818"/>
<path d="M44.8197 60.3938V61.5064C44.7304 61.488 44.6394 61.4784 44.5482 61.4777C44.3529 61.4667 44.1574 61.4962 43.974 61.5644C43.7907 61.6326 43.6234 61.738 43.4828 61.8739C43.2093 62.1903 43.0718 62.6019 43.1004 63.0191V65.44H41.9327V60.4495H43.0442V61.1785C43.3806 60.6552 43.9725 60.3936 44.8197 60.3936" fill="#1A1818"/>
<path d="M52.7815 60.944C53.1615 61.3115 53.3518 61.8564 53.3522 62.5787V65.4382H52.1834V62.7294C52.2111 62.3732 52.0999 62.02 51.8731 61.7439C51.7591 61.629 51.6218 61.5398 51.4705 61.4824C51.3192 61.425 51.1573 61.4007 50.9958 61.4111C50.8084 61.4013 50.621 61.4309 50.4457 61.4978C50.2704 61.5648 50.1111 61.6676 49.9779 61.7998C49.8454 61.952 49.7441 62.1289 49.68 62.3203C49.6159 62.5116 49.5901 62.7138 49.6041 62.9151V65.4382H48.4368V60.4492H49.546V61.0928C49.7424 60.8607 49.9933 60.6809 50.2762 60.5695C50.5919 60.447 50.9283 60.3869 51.2668 60.3925C51.5431 60.3793 51.8192 60.4212 52.0791 60.5158C52.339 60.6103 52.5775 60.7557 52.7807 60.9433" fill="#1A1818"/>
<path d="M59.5087 63.318H55.594C55.6522 63.6681 55.8449 63.9815 56.131 64.1915C56.4458 64.4141 56.8248 64.5274 57.2101 64.5141C57.4614 64.522 57.7115 64.4778 57.9448 64.3843C58.1781 64.2908 58.3896 64.15 58.5658 63.9708L59.1914 64.6923C58.9632 64.9623 58.671 65.1709 58.3416 65.299C57.9719 65.4404 57.5787 65.5102 57.1829 65.5047C56.6804 65.5151 56.183 65.4026 55.7339 65.177C55.3308 64.9725 54.9951 64.6563 54.7669 64.2662C54.5357 63.8641 54.4177 63.4068 54.4254 62.9431C54.4187 62.484 54.5336 62.0314 54.7582 61.631C54.973 61.247 55.2917 60.9314 55.6777 60.7202C56.0839 60.4979 56.5409 60.385 57.004 60.3925C57.4595 60.3847 57.9092 60.4959 58.3085 60.7151C58.6877 60.926 58.9986 61.2409 59.2046 61.6228C59.4263 62.0378 59.5375 62.5028 59.5273 62.9732C59.5273 63.0542 59.521 63.17 59.5085 63.3195M56.0558 61.6599C55.7945 61.8858 55.6263 62.2005 55.5836 62.5432H58.4161C58.3782 62.1997 58.2115 61.8833 57.9495 61.6578C57.6875 61.4323 57.3498 61.3146 57.0044 61.3284C56.6585 61.3189 56.321 61.4368 56.0563 61.6597" fill="#1A1818"/>
<path d="M63.827 65.4387L62.5473 63.7092L61.2564 65.4387H59.967L61.9109 62.9067L60.0519 60.4482H61.3514L62.575 62.0842L63.7998 60.4482H65.0607L63.1916 62.8869L65.1449 65.4387H63.827Z" fill="#1A1818"/>
<path d="M69.0044 65.1681C68.8569 65.2857 68.6868 65.3718 68.5048 65.4211C68.3025 65.4781 68.0932 65.5066 67.8831 65.5057C67.4192 65.535 66.9625 65.3801 66.6123 65.0746C66.4549 64.9082 66.3338 64.711 66.2566 64.4955C66.1794 64.2799 66.1478 64.0507 66.1637 63.8223V61.4212H65.3414V60.4868H66.1637V59.3467H67.3328V60.4868H68.6685V61.4212H67.3328V63.7936C67.3185 63.9951 67.3818 64.1944 67.5098 64.3506C67.5769 64.4172 67.6573 64.4689 67.7458 64.5021C67.8343 64.5354 67.9288 64.5495 68.0232 64.5436C68.2583 64.5517 68.4892 64.4791 68.6774 64.3379L69.0044 65.1681Z" fill="#1A1818"/>
<path d="M75.5459 65.1681C75.3984 65.2857 75.2283 65.3718 75.0463 65.4211C74.844 65.4781 74.6347 65.5066 74.4246 65.5057C73.9607 65.535 73.504 65.3801 73.1538 65.0746C72.9964 64.9082 72.8753 64.711 72.7981 64.4955C72.7209 64.2799 72.6893 64.0507 72.7052 63.8223V61.4212H71.8829V60.4868H72.7048V59.3467H73.8736V60.4868H75.2093V61.4212H73.8738V63.7936C73.8595 63.9951 73.9229 64.1944 74.0508 64.3506C74.1179 64.4172 74.1983 64.4689 74.2868 64.5021C74.3753 64.5354 74.4699 64.5495 74.5642 64.5436C74.7994 64.5517 75.0302 64.4791 75.2184 64.3379L75.5459 65.1681Z" fill="#1A1818"/>
<path d="M81.1802 63.318H77.2655C77.3237 63.6681 77.5164 63.9815 77.8025 64.1915C78.1173 64.4141 78.4963 64.5274 78.8816 64.5141C79.1329 64.522 79.383 64.4778 79.6163 64.3843C79.8497 64.2908 80.0611 64.15 80.2373 63.9708L80.8629 64.6923C80.6347 64.9623 80.3425 65.1709 80.0131 65.299C79.6434 65.4404 79.2502 65.5102 78.8544 65.5047C78.3519 65.5151 77.8545 65.4026 77.4054 65.177C77.0023 64.9725 76.6666 64.6563 76.4384 64.2662C76.2072 63.8641 76.0892 63.4068 76.0969 62.9431C76.0903 62.484 76.2051 62.0314 76.4297 61.631C76.6445 61.247 76.9632 60.9314 77.3492 60.7202C77.7554 60.4979 78.2124 60.385 78.6755 60.3925C79.131 60.3847 79.5807 60.4959 79.98 60.7151C80.3591 60.9259 80.6699 61.2407 80.8759 61.6223C81.0976 62.0373 81.2087 62.5023 81.1985 62.9727C81.1985 63.0537 81.1923 63.1695 81.18 63.319M77.7273 61.6594C77.466 61.8853 77.2978 62.2 77.2551 62.5428H80.0876C80.0497 62.1992 79.883 61.8828 79.621 61.6573C79.359 61.4319 79.0213 61.3141 78.6759 61.3279C78.33 61.3184 77.9925 61.4363 77.7278 61.6592" fill="#1A1818"/>
<path d="M82.6756 65.3452C82.3468 65.2651 82.0342 65.1294 81.7511 64.944L82.1996 64.0556C82.4484 64.2169 82.7208 64.3383 83.007 64.4156C83.3095 64.5035 83.6228 64.5488 83.9378 64.5502C84.6355 64.5502 84.9844 64.3666 84.9844 63.9994C84.9865 63.9178 84.9615 63.8378 84.9132 63.7719C84.8649 63.706 84.7961 63.6581 84.7176 63.6355C84.4397 63.5427 84.1534 63.4768 83.8628 63.4388C83.5229 63.3915 83.1868 63.3199 82.8572 63.2244C82.5998 63.1431 82.368 62.9963 82.1844 62.7983C81.9832 62.564 81.8809 62.2607 81.8992 61.9524C81.8946 61.7284 81.9467 61.5069 82.0506 61.3085C82.1545 61.11 82.3069 60.9411 82.4936 60.8173C82.97 60.5113 83.5305 60.3627 84.096 60.3924C84.4419 60.3932 84.7867 60.4325 85.124 60.5096C85.4188 60.5704 85.7024 60.6761 85.9651 60.8231L85.5166 61.7114C85.083 61.4591 84.5889 61.3295 84.0873 61.3365C83.818 61.321 83.5491 61.3742 83.306 61.491C83.2283 61.5274 83.1622 61.5846 83.1151 61.6563C83.068 61.728 83.0418 61.8114 83.0393 61.8971C83.0373 61.9855 83.0641 62.0721 83.1155 62.144C83.1669 62.2158 83.2403 62.2691 83.3246 62.2957C83.611 62.3978 83.9069 62.4713 84.2079 62.5149C84.5401 62.5617 84.8683 62.6334 85.1898 62.7293C85.4408 62.8075 85.6674 62.9491 85.8476 63.1405C86.0444 63.368 86.1438 63.6638 86.1242 63.964C86.1276 64.1872 86.0734 64.4075 85.9669 64.6037C85.8604 64.7999 85.7051 64.9653 85.5161 65.0841C85.0208 65.3899 84.4438 65.5368 83.8626 65.5051C83.4614 65.5056 83.062 65.4519 82.6752 65.3457" fill="#1A1818"/>
<path d="M90.1327 65.1681C89.9852 65.2857 89.8151 65.3718 89.633 65.4211C89.4308 65.4781 89.2215 65.5066 89.0114 65.5057C88.5475 65.535 88.0908 65.3801 87.7406 65.0746C87.5832 64.9082 87.4621 64.711 87.3849 64.4955C87.3077 64.2799 87.2761 64.0507 87.292 63.8223V61.4212H86.47V60.4868H87.2923V59.3467H88.4611V60.4868H89.7968V61.4212H88.4606V63.7936C88.4463 63.9951 88.5097 64.1944 88.6376 64.3506C88.7047 64.4172 88.7851 64.4689 88.8736 64.5021C88.9621 64.5354 89.0567 64.5495 89.151 64.5436C89.3862 64.5517 89.617 64.4791 89.8052 64.3379L90.1327 65.1681Z" fill="#1A1818"/>
<path d="M101.459 60.4487L99.6169 65.439H98.4971L97.2074 62L95.8992 65.439H94.7789L92.9462 60.4487H94.0501L95.3672 64.1308L96.7418 60.4487H97.7208L99.0664 64.1493L100.421 60.4487H101.459Z" fill="#1A1818"/>
<path d="M106.609 60.944C106.989 61.3115 107.179 61.8565 107.179 62.5788V65.4382H106.011V62.7285C106.038 62.3725 105.927 62.0196 105.702 61.743C105.587 61.6281 105.45 61.539 105.298 61.4816C105.147 61.4242 104.985 61.3998 104.823 61.4102C104.636 61.4005 104.448 61.4301 104.273 61.4971C104.098 61.564 103.939 61.6668 103.805 61.7989C103.538 62.1066 103.404 62.5076 103.432 62.9142V65.4373H102.264V58.5044H103.432V61.0275C103.631 60.8178 103.876 60.6563 104.147 60.5553C104.45 60.4441 104.772 60.3892 105.095 60.3933C105.371 60.3801 105.647 60.422 105.907 60.5165C106.167 60.6111 106.405 60.7564 106.609 60.944Z" fill="#1A1818"/>
<path d="M113.337 63.318H109.422C109.48 63.6681 109.673 63.9815 109.959 64.1915C110.274 64.4141 110.653 64.5274 111.038 64.5141C111.289 64.522 111.54 64.4778 111.773 64.3843C112.006 64.2908 112.218 64.15 112.394 63.9708L113.019 64.6923C112.791 64.9623 112.499 65.1709 112.17 65.299C111.8 65.4404 111.407 65.5102 111.011 65.5047C110.508 65.5151 110.011 65.4026 109.562 65.177C109.159 64.9725 108.823 64.6563 108.595 64.2662C108.364 63.8641 108.246 63.4068 108.253 62.9431C108.247 62.484 108.362 62.0314 108.586 61.631C108.801 61.247 109.12 60.9314 109.506 60.7202C109.912 60.4979 110.369 60.385 110.832 60.3925C111.287 60.3847 111.737 60.4959 112.137 60.7151C112.516 60.926 112.826 61.241 113.032 61.6228C113.254 62.0378 113.365 62.5028 113.355 62.9732C113.355 63.0542 113.349 63.17 113.336 63.3195M109.884 61.6599C109.622 61.8858 109.454 62.2005 109.412 62.5432H112.244C112.206 62.1997 112.039 61.8833 111.777 61.6578C111.515 61.4323 111.178 61.3146 110.832 61.3284C110.486 61.3189 110.149 61.4368 109.884 61.6597" fill="#1A1818"/>
<path d="M118.823 60.944C119.203 61.3115 119.393 61.8564 119.394 62.5787V65.4382H118.223V62.7294C118.251 62.3736 118.141 62.0207 117.916 61.7439C117.802 61.629 117.664 61.5399 117.513 61.4825C117.361 61.4251 117.199 61.4008 117.037 61.4111C116.85 61.4013 116.663 61.4309 116.487 61.4978C116.312 61.5648 116.153 61.6676 116.019 61.7998C115.752 62.1074 115.617 62.5084 115.644 62.9151V65.4382H114.478V60.4492H115.59V61.0928C115.785 60.8602 116.036 60.6803 116.319 60.5695C116.634 60.4471 116.971 60.387 117.309 60.3925C117.586 60.3793 117.862 60.4212 118.122 60.5158C118.382 60.6103 118.62 60.7557 118.823 60.9433" fill="#1A1818"/>
<path d="M127.528 60.7113C127.907 60.9194 128.219 61.2303 128.43 61.6083C128.653 62.0176 128.766 62.4779 128.757 62.944C128.766 63.4121 128.653 63.8744 128.43 64.286C128.22 64.666 127.908 64.9788 127.528 65.1881C127.127 65.4031 126.678 65.512 126.223 65.5045C125.923 65.5183 125.625 65.465 125.348 65.3486C125.072 65.2322 124.825 65.0556 124.626 64.8317V67.2528H123.457V60.4494H124.57V61.1024C124.761 60.8689 125.006 60.6862 125.284 60.5704C125.583 60.45 125.903 60.3898 126.225 60.3934C126.68 60.3858 127.129 60.4953 127.529 60.7113M127.154 64.0755C127.423 63.76 127.57 63.3591 127.57 62.9447C127.57 62.5304 127.423 62.1295 127.154 61.814C127.018 61.6723 126.853 61.5607 126.67 61.4867C126.488 61.4126 126.292 61.3777 126.095 61.3841C125.83 61.3801 125.569 61.4459 125.337 61.5748C125.112 61.7039 124.927 61.8938 124.804 62.1229C124.676 62.378 124.61 62.6593 124.61 62.9446C124.61 63.2299 124.676 63.5113 124.804 63.7663C124.927 63.9951 125.112 64.1846 125.337 64.3132C125.568 64.4435 125.83 64.51 126.095 64.5061C126.292 64.5123 126.488 64.4772 126.67 64.4031C126.853 64.3291 127.017 64.2177 127.154 64.0762" fill="#1A1818"/>
<path d="M132.756 60.3938V61.5064C132.666 61.488 132.575 61.4784 132.484 61.4777C132.289 61.4667 132.093 61.4962 131.91 61.5644C131.727 61.6326 131.559 61.738 131.419 61.8739C131.145 62.1903 131.008 62.6019 131.036 63.0191V65.44H129.869V60.4495H130.98V61.1785C131.317 60.6552 131.908 60.3936 132.756 60.3936" fill="#1A1818"/>
<path d="M134.672 65.1781C134.276 64.9693 133.948 64.6532 133.724 64.2661C133.5 63.8623 133.382 63.4082 133.382 62.9465C133.382 62.4849 133.5 62.0308 133.724 61.627C133.949 61.2423 134.277 60.9284 134.672 60.7213C135.096 60.5058 135.565 60.3936 136.041 60.3936C136.517 60.3936 136.986 60.5058 137.411 60.7213C137.805 60.9291 138.133 61.2428 138.359 61.627C138.583 62.0308 138.7 62.4849 138.7 62.9465C138.7 63.4082 138.583 63.8623 138.359 64.2661C138.134 64.6527 137.806 64.9686 137.411 65.1781C136.986 65.3927 136.517 65.5046 136.041 65.5046C135.566 65.5046 135.096 65.3927 134.672 65.1781ZM137.102 64.0753C137.373 63.7609 137.522 63.3597 137.522 62.9446C137.522 62.5296 137.373 62.1283 137.102 61.8139C136.964 61.6723 136.798 61.561 136.614 61.487C136.431 61.413 136.234 61.3779 136.036 61.3839C135.839 61.3774 135.643 61.4123 135.46 61.4864C135.277 61.5605 135.112 61.672 134.975 61.8139C134.707 62.1294 134.559 62.5302 134.559 62.9446C134.559 63.359 134.707 63.7598 134.975 64.0753C135.112 64.217 135.278 64.3284 135.46 64.4024C135.643 64.4765 135.839 64.5115 136.036 64.5053C136.234 64.5111 136.431 64.4758 136.614 64.4018C136.797 64.3279 136.963 64.2167 137.102 64.0753Z" fill="#1A1818"/>
<path d="M147.614 60.9394C147.982 61.3045 148.165 61.8511 148.165 62.5791V65.4386H146.997V62.7299C147.024 62.3771 146.921 62.0267 146.708 61.7443C146.603 61.6306 146.474 61.5417 146.33 61.4841C146.186 61.4266 146.032 61.4018 145.877 61.4115C145.701 61.4039 145.525 61.4345 145.362 61.5014C145.199 61.5684 145.053 61.6699 144.933 61.799C144.678 62.1097 144.551 62.5057 144.577 62.9066V65.4386H143.41V62.7299C143.436 62.3771 143.333 62.027 143.12 61.7443C143.015 61.6306 142.886 61.5418 142.742 61.4843C142.598 61.4267 142.443 61.4019 142.288 61.4115C142.111 61.4028 141.935 61.4327 141.772 61.499C141.608 61.5653 141.46 61.6664 141.34 61.7954C141.086 62.1081 140.961 62.5054 140.99 62.9069V65.4389H139.821V60.4484H140.932V61.0838C141.122 60.8591 141.362 60.683 141.634 60.5704C141.93 60.4491 142.248 60.3889 142.568 60.3934C142.912 60.3864 143.252 60.458 143.564 60.6027C143.848 60.7389 144.087 60.9549 144.25 61.2244C144.461 60.9584 144.733 60.7478 145.044 60.6109C145.383 60.4627 145.749 60.3887 146.119 60.3939C146.392 60.3796 146.665 60.4205 146.922 60.5143C147.179 60.6081 147.414 60.7527 147.614 60.9396" fill="#1A1818"/>
<path d="M153.73 60.7113C154.109 60.919 154.422 61.23 154.632 61.6083C154.856 62.0173 154.969 62.4778 154.96 62.944C154.968 63.4122 154.855 63.8746 154.632 64.286C154.423 64.6662 154.11 64.9792 153.73 65.1881C153.33 65.403 152.881 65.5119 152.428 65.5045C152.128 65.5184 151.829 65.4652 151.553 65.3488C151.276 65.2324 151.03 65.0557 150.83 64.8317V67.2528H149.661V60.4494H150.773V61.1024C150.964 60.8686 151.209 60.6858 151.488 60.5704C151.787 60.45 152.106 60.3898 152.429 60.3934C152.883 60.3859 153.331 60.4953 153.731 60.7113M153.357 64.0755C153.626 63.7599 153.773 63.3591 153.773 62.9447C153.773 62.5304 153.626 62.1295 153.357 61.814C153.22 61.6722 153.055 61.5606 152.872 61.4865C152.689 61.4125 152.493 61.3776 152.296 61.3841C152.031 61.38 151.769 61.4459 151.538 61.5753C151.312 61.704 151.127 61.894 151.005 62.1234C150.876 62.3782 150.809 62.6597 150.809 62.9451C150.809 63.2305 150.876 63.512 151.005 63.7668C151.127 63.9958 151.312 64.1854 151.538 64.3137C151.768 64.4439 152.029 64.5105 152.294 64.5066C152.491 64.5128 152.687 64.4778 152.87 64.4037C153.053 64.3297 153.218 64.2183 153.355 64.0767" fill="#1A1818"/>
<path d="M159.071 65.1681C158.924 65.2857 158.754 65.3718 158.572 65.4211C158.369 65.4781 158.16 65.5066 157.95 65.5057C157.486 65.535 157.029 65.3801 156.679 65.0746C156.522 64.9082 156.401 64.711 156.323 64.4955C156.246 64.2799 156.215 64.0507 156.231 63.8223V61.4212H155.408V60.4868H156.231V59.3467H157.399V60.4868H158.735V61.4212H157.399V63.7936C157.385 63.9951 157.448 64.1944 157.576 64.3506C157.644 64.4173 157.724 64.4689 157.812 64.5021C157.901 64.5354 157.995 64.5495 158.09 64.5436C158.325 64.5517 158.556 64.4791 158.744 64.3379L159.071 65.1681Z" fill="#1A1818"/>
<path d="M164.705 63.318H160.791C160.849 63.6681 161.042 63.9815 161.328 64.1915C161.642 64.4141 162.021 64.5274 162.407 64.5141C162.658 64.522 162.908 64.4778 163.141 64.3843C163.375 64.2908 163.586 64.15 163.762 63.9708L164.388 64.6923C164.16 64.9623 163.868 65.1709 163.538 65.299C163.169 65.4404 162.775 65.5102 162.38 65.5047C161.877 65.5151 161.38 65.4026 160.931 65.177C160.527 64.9725 160.192 64.6563 159.964 64.2662C159.732 63.8641 159.614 63.4068 159.622 62.9431C159.615 62.484 159.73 62.0314 159.955 61.631C160.17 61.247 160.488 60.9314 160.874 60.7202C161.281 60.4979 161.738 60.385 162.201 60.3925C162.656 60.3847 163.106 60.4959 163.505 60.7151C163.884 60.9259 164.195 61.2407 164.401 61.6223C164.623 62.0373 164.734 62.5023 164.724 62.9727C164.724 63.0537 164.717 63.1695 164.705 63.319M161.252 61.6594C160.991 61.8853 160.823 62.2 160.78 62.5428H163.613C163.575 62.1992 163.408 61.8828 163.146 61.6573C162.884 61.4319 162.546 61.3141 162.201 61.3279C161.855 61.3184 161.517 61.4363 161.253 61.6592" fill="#1A1818"/>
<path d="M170.734 58.5044V65.4382H169.613V64.7941C169.423 65.0286 169.177 65.2116 168.898 65.3261C168.599 65.4476 168.279 65.5082 167.957 65.5043C167.506 65.5113 167.061 65.4019 166.664 65.1865C166.284 64.978 165.971 64.6655 165.762 64.2856C165.538 63.8738 165.425 63.411 165.434 62.9424C165.425 62.4762 165.538 62.0158 165.762 61.6067C165.972 61.2287 166.285 60.9177 166.664 60.7097C167.061 60.4948 167.506 60.3858 167.957 60.3933C168.268 60.3891 168.576 60.4458 168.864 60.5601C169.135 60.6701 169.375 60.8438 169.564 61.0665V58.5044H170.734ZM168.855 64.3133C169.08 64.1843 169.265 63.9949 169.388 63.7664C169.516 63.5114 169.583 63.2297 169.583 62.9441C169.583 62.6585 169.516 62.3768 169.388 62.1218C169.265 61.893 169.08 61.7035 168.855 61.5749C168.622 61.4489 168.362 61.383 168.098 61.383C167.833 61.383 167.573 61.4489 167.341 61.5749C167.116 61.7036 166.931 61.8931 166.809 62.1218C166.679 62.3766 166.612 62.6583 166.612 62.9441C166.612 63.2299 166.679 63.5116 166.809 63.7664C166.932 63.9948 167.116 64.1843 167.341 64.3133C167.573 64.4384 167.834 64.5039 168.098 64.5039C168.362 64.5039 168.622 64.4384 168.855 64.3133Z" fill="#1A1818"/>
<path d="M178.915 60.7113C179.294 60.9191 179.607 61.2301 179.817 61.6084C180.041 62.0174 180.153 62.4779 180.144 62.9441C180.153 63.4122 180.04 63.8747 179.817 64.2861C179.608 64.6664 179.295 64.9794 178.915 65.1884C178.515 65.4033 178.066 65.5122 177.612 65.5048C177.29 65.509 176.97 65.4489 176.672 65.3278C176.393 65.2127 176.147 65.0293 175.957 64.7944V65.4397H174.845V58.5044H176.014V61.0562C176.209 60.8406 176.45 60.6716 176.719 60.5616C177.002 60.4468 177.306 60.3894 177.611 60.3928C178.066 60.3852 178.514 60.4947 178.914 60.7106M178.54 64.0748C178.808 63.7593 178.956 63.3585 178.956 62.9441C178.956 62.5297 178.808 62.1289 178.54 61.8134C178.403 61.6715 178.238 61.56 178.055 61.4859C177.872 61.4118 177.676 61.3769 177.479 61.3834C177.214 61.3795 176.953 61.4453 176.723 61.5742C176.497 61.7029 176.312 61.8929 176.189 62.1223C176.061 62.3771 175.994 62.6585 175.994 62.944C175.994 63.2294 176.061 63.5108 176.189 63.7657C176.312 63.9947 176.497 64.1843 176.723 64.3126C176.953 64.4428 177.214 64.5093 177.479 64.5055C177.676 64.5117 177.872 64.4767 178.055 64.4026C178.237 64.3286 178.403 64.2172 178.54 64.0755" fill="#1A1818"/>
<path d="M185.928 60.448L183.592 65.8392C183.441 66.2885 183.165 66.6856 182.796 66.9844C182.465 67.2125 182.069 67.329 181.666 67.3172C181.415 67.316 181.166 67.2748 180.928 67.1949C180.707 67.1261 180.503 67.011 180.33 66.8573L180.797 65.9977C180.913 66.1055 181.047 66.1908 181.194 66.2494C181.341 66.3105 181.498 66.3422 181.657 66.3427C181.84 66.3499 182.02 66.2936 182.166 66.1833C182.329 66.0376 182.455 65.856 182.535 65.6528L182.619 65.4561L180.441 60.4473H181.656L183.226 64.1368L184.806 60.4473L185.928 60.448Z" fill="#1A1818"/>
<path d="M192.236 65.1681C192.088 65.2857 191.918 65.3718 191.736 65.4211C191.534 65.4781 191.325 65.5066 191.115 65.5057C190.651 65.535 190.194 65.3801 189.844 65.0746C189.686 64.9082 189.565 64.711 189.488 64.4955C189.411 64.2799 189.379 64.0507 189.395 63.8223V61.4212H188.573V60.4868H189.395V59.3467H190.564V60.4868H191.899V61.4212H190.564V63.7936C190.549 63.9951 190.613 64.1944 190.741 64.3506C190.808 64.4172 190.888 64.4689 190.977 64.5021C191.065 64.5354 191.16 64.5495 191.254 64.5436C191.489 64.5517 191.72 64.4791 191.908 64.3379L192.236 65.1681Z" fill="#1A1818"/>
<path d="M197.544 60.944C197.924 61.3115 198.114 61.8565 198.114 62.5788V65.4382H196.946V62.7285C196.973 62.3725 196.863 62.0196 196.637 61.743C196.522 61.6281 196.385 61.539 196.233 61.4816C196.082 61.4242 195.92 61.3998 195.758 61.4102C195.571 61.4005 195.384 61.4301 195.208 61.4971C195.033 61.564 194.874 61.6668 194.74 61.7989C194.473 62.1066 194.339 62.5076 194.367 62.9142V65.4373H193.199V58.5044H194.367V61.0275C194.567 60.8178 194.811 60.6563 195.082 60.5553C195.386 60.4441 195.707 60.3892 196.03 60.3933C196.307 60.3801 196.583 60.422 196.843 60.5165C197.103 60.6111 197.341 60.7564 197.544 60.944" fill="#1A1818"/>
<path d="M204.272 63.318H200.357C200.416 63.6681 200.608 63.9815 200.894 64.1915C201.209 64.4141 201.588 64.5274 201.973 64.5141C202.225 64.522 202.475 64.4778 202.708 64.3843C202.941 64.2908 203.153 64.15 203.329 63.9708L203.955 64.6923C203.726 64.9623 203.434 65.1709 203.105 65.299C202.735 65.4404 202.342 65.5102 201.946 65.5047C201.444 65.5151 200.946 65.4026 200.497 65.177C200.094 64.9725 199.758 64.6563 199.53 64.2662C199.299 63.8641 199.181 63.4068 199.189 62.9431C199.182 62.484 199.297 62.0314 199.521 61.631C199.736 61.247 200.055 60.9314 200.441 60.7202C200.847 60.4979 201.304 60.385 201.767 60.3925C202.223 60.3847 202.672 60.4959 203.072 60.7151C203.451 60.9259 203.762 61.2407 203.968 61.6223C204.189 62.0373 204.301 62.5023 204.29 62.9727C204.29 63.0537 204.284 63.1695 204.272 63.319M200.819 61.6594C200.558 61.8853 200.39 62.2 200.347 62.5428H203.179C203.141 62.1992 202.975 61.8828 202.713 61.6573C202.451 61.4319 202.113 61.3141 201.767 61.3279C201.422 61.3184 201.084 61.4363 200.819 61.6592" fill="#1A1818"/>
<path d="M211.585 60.9208C211.974 61.2722 212.168 61.8027 212.169 62.5123V65.4379H211.066V64.8311C210.916 65.0543 210.703 65.2282 210.455 65.3308C210.15 65.4532 209.824 65.5121 209.497 65.5039C209.16 65.5113 208.825 65.4455 208.516 65.311C208.254 65.1989 208.028 65.015 207.865 64.7805C207.713 64.5522 207.633 64.2832 207.637 64.0088C207.63 63.8022 207.671 63.5968 207.758 63.4092C207.845 63.2215 207.974 63.0569 208.137 62.9285C208.469 62.6581 208.994 62.5228 209.711 62.5224H211V62.4477C211.009 62.2989 210.986 62.1499 210.932 62.0111C210.878 61.8722 210.794 61.7469 210.686 61.6439C210.422 61.4386 210.091 61.3387 209.757 61.3635C209.476 61.3636 209.197 61.4078 208.929 61.4944C208.679 61.5709 208.446 61.6949 208.243 61.8595L207.785 61.0085C208.068 60.7985 208.388 60.6431 208.728 60.5504C209.108 60.443 209.501 60.3897 209.895 60.3922C210.63 60.3922 211.193 60.5683 211.583 60.9205M210.521 64.453C210.744 64.3245 210.915 64.1204 211.002 63.8774V63.2987H209.796C209.123 63.2987 208.787 63.52 208.787 63.9628C208.784 64.0613 208.805 64.159 208.849 64.2472C208.894 64.3353 208.959 64.411 209.04 64.4675C209.247 64.6033 209.492 64.6688 209.739 64.6544C210.013 64.6592 210.282 64.5898 210.519 64.4538" fill="#1A1818"/>
<path d="M217.734 60.7112C218.114 60.919 218.426 61.23 218.636 61.6083C218.86 62.0173 218.973 62.4778 218.964 62.944C218.973 63.4121 218.86 63.8746 218.636 64.2859C218.427 64.6662 218.114 64.9791 217.734 65.1881C217.334 65.4027 216.886 65.5116 216.432 65.5044C216.132 65.5183 215.833 65.4651 215.557 65.3487C215.281 65.2323 215.034 65.0557 214.835 64.8317V67.2527H213.663V60.4494H214.775V61.1024C214.966 60.8688 215.212 60.6861 215.491 60.5704C215.79 60.4498 216.11 60.3896 216.432 60.3934C216.886 60.3861 217.334 60.4956 217.734 60.7112ZM217.36 64.0754C217.629 63.7599 217.776 63.3591 217.776 62.9447C217.776 62.5303 217.629 62.1295 217.36 61.814C217.223 61.6721 217.058 61.5605 216.875 61.4865C216.692 61.4124 216.496 61.3775 216.299 61.384C216.035 61.3799 215.774 61.4457 215.543 61.5748C215.316 61.7028 215.131 61.893 215.01 62.1229C214.881 62.3777 214.814 62.6592 214.814 62.9446C214.814 63.23 214.881 63.5115 215.01 63.7663C215.131 63.9958 215.316 64.1856 215.543 64.3132C215.773 64.4435 216.034 64.5101 216.299 64.5061C216.496 64.5123 216.692 64.4773 216.875 64.4032C217.058 64.3292 217.223 64.2178 217.36 64.0762" fill="#1A1818"/>
<path d="M224.144 60.7113C224.524 60.919 224.836 61.23 225.046 61.6083C225.27 62.0173 225.383 62.4778 225.374 62.944C225.383 63.4122 225.27 63.8746 225.046 64.286C224.837 64.6662 224.524 64.9792 224.144 65.1881C223.744 65.403 223.296 65.5119 222.842 65.5045C222.542 65.5184 222.244 65.4652 221.967 65.3488C221.691 65.2324 221.444 65.0557 221.245 64.8317V67.2528H220.076V60.4494H221.187V61.1024C221.378 60.8686 221.624 60.6858 221.902 60.5704C222.201 60.45 222.521 60.3898 222.843 60.3934C223.297 60.3859 223.746 60.4953 224.145 60.7113M223.771 64.0755C224.04 63.7599 224.187 63.3591 224.187 62.9447C224.187 62.5304 224.04 62.1295 223.771 61.814C223.634 61.6721 223.469 61.5606 223.286 61.4865C223.104 61.4125 222.907 61.3776 222.71 61.3841C222.446 61.3801 222.185 61.4459 221.954 61.5748C221.728 61.7031 221.543 61.8933 221.421 62.1229C221.292 62.3777 221.225 62.6592 221.225 62.9446C221.225 63.23 221.292 63.5115 221.421 63.7663C221.543 63.9956 221.728 64.1853 221.954 64.3132C222.185 64.4434 222.446 64.51 222.71 64.5061C222.907 64.5124 223.104 64.4773 223.286 64.4033C223.469 64.3292 223.634 64.2178 223.771 64.0762" fill="#1A1818"/>
<path d="M226.316 65.2837C226.243 65.2119 226.185 65.1254 226.146 65.03C226.107 64.9345 226.089 64.832 226.092 64.7291C226.089 64.6265 226.106 64.5243 226.144 64.4286C226.181 64.3329 226.237 64.2456 226.308 64.1719C226.38 64.0982 226.465 64.0396 226.56 63.9996C226.654 63.9596 226.756 63.939 226.858 63.939C226.961 63.939 227.063 63.9596 227.157 63.9996C227.252 64.0396 227.337 64.0982 227.409 64.1719C227.48 64.2456 227.536 64.3329 227.573 64.4286C227.61 64.5243 227.628 64.6265 227.625 64.7291C227.626 64.8811 227.582 65.0301 227.498 65.1572C227.415 65.2843 227.296 65.3838 227.156 65.4431C227.016 65.5025 226.861 65.519 226.712 65.4906C226.563 65.4623 226.425 65.3903 226.316 65.2837Z" fill="#1A1818"/>
</g>
<defs>
<clipPath id="clip0_1281_2966">
<rect width="237.701" height="86" fill="white"/>
</clipPath>
</defs>
</svg>
