<svg width="238" height="86" viewBox="0 0 238 86" fill="none" xmlns="http://www.w3.org/2000/svg">
<g clip-path="url(#clip0_1281_3058)">
<mask id="mask0_1281_3058" style="mask-type:luminance" maskUnits="userSpaceOnUse" x="0" y="0" width="238" height="86">
<path d="M237.702 0H0V86H237.702V0Z" fill="white"/>
</mask>
<g mask="url(#mask0_1281_3058)">
<path d="M222.629 86H15.0742C13.0947 86.0002 11.1345 85.6104 9.30568 84.853C7.47682 84.0956 5.81506 82.9854 4.41528 81.5857C3.0155 80.1861 1.90512 78.5244 1.14755 76.6957C0.389969 74.8669 3.16625e-05 72.9068 0 70.9273L0 15.0727C6.33323e-05 13.0932 0.390022 11.1332 1.14761 9.30438C1.9052 7.47561 3.01558 5.81397 4.41535 4.41433C5.81512 3.01469 7.47687 1.90447 9.30572 1.14705C11.1346 0.389642 13.0947 -0.000126643 15.0742 3.08665e-08H222.629C226.626 3.08665e-08 230.46 1.58801 233.287 4.4147C236.113 7.24138 237.701 11.0752 237.701 15.0727V70.9273C237.701 74.9248 236.113 78.7586 233.287 81.5853C230.46 84.412 226.626 86 222.629 86Z" fill="#D0D5E7"/>
</g>
<path d="M60.0087 31.2371C59.3806 30.9034 58.8567 30.4027 58.4948 29.7903C58.1347 29.1602 57.9453 28.447 57.9453 27.7213C57.9453 26.9955 58.1347 26.2823 58.4948 25.6522C58.8566 25.0397 59.3805 24.539 60.0087 24.2054C60.6788 23.8631 61.4205 23.6846 62.173 23.6846C62.9255 23.6846 63.6672 23.8631 64.3373 24.2054C64.9641 24.5381 65.4877 25.0362 65.8512 25.6457C66.2113 26.2778 66.4006 26.9928 66.4006 27.7203C66.4006 28.4478 66.2113 29.1628 65.8512 29.7949C65.4882 30.4053 64.9645 30.9044 64.3373 31.2376C63.6672 31.58 62.9255 31.7584 62.173 31.7584C61.4205 31.7584 60.6788 31.58 60.0087 31.2376M63.5868 30.1257C64.0012 29.8951 64.343 29.5533 64.5736 29.139C64.8091 28.7034 64.9324 28.2161 64.9324 27.721C64.9324 27.2259 64.8091 26.7386 64.5736 26.3031C64.3429 25.8887 64.0012 25.547 63.5868 25.3163C63.1523 25.0832 62.6669 24.9612 62.1738 24.9612C61.6808 24.9612 61.1953 25.0832 60.7609 25.3163C60.3465 25.547 60.0047 25.8887 59.7741 26.3031C59.5386 26.7386 59.4152 27.2259 59.4152 27.721C59.4152 28.2161 59.5386 28.7034 59.7741 29.139C60.0047 29.5533 60.3465 29.8951 60.7609 30.1257C61.1956 30.358 61.6809 30.4796 62.1738 30.4796C62.6668 30.4796 63.1521 30.358 63.5868 30.1257Z" fill="#593C8F"/>
<path d="M73.5965 25.6577L71.0284 31.646H69.5815L67.0138 25.6577H68.4715L70.3331 30.0972L72.2507 25.6577H73.5965Z" fill="#593C8F"/>
<path d="M80.4141 25.6577V31.646H79.0796V30.8819C78.8526 31.1533 78.5643 31.3669 78.2385 31.505C77.8951 31.653 77.5246 31.7276 77.1507 31.7242C76.8071 31.7432 76.4632 31.694 76.1388 31.5793C75.8144 31.4647 75.5159 31.2869 75.2606 31.0562C74.8024 30.6127 74.5717 29.951 74.5717 29.0776V25.6577H75.9734V28.8874C75.9395 29.3208 76.0699 29.7512 76.3385 30.0931C76.4728 30.2298 76.6348 30.336 76.8137 30.4046C76.9927 30.4732 77.1842 30.5025 77.3754 30.4905C77.5962 30.501 77.8166 30.4649 78.0225 30.3846C78.2284 30.3043 78.415 30.1816 78.5703 30.0244C78.8864 29.6525 79.0451 29.172 79.0126 28.685V25.6577H80.4141Z" fill="#593C8F"/>
<path d="M83.6538 23.3252H82.2521V31.6459H83.6538V23.3252Z" fill="#593C8F"/>
<path d="M89.8701 26.2236C90.3373 26.6461 90.5711 27.2832 90.5716 28.1349V31.645H89.2484V30.916C89.0678 31.1842 88.812 31.3931 88.5132 31.5165C88.1486 31.6639 87.7575 31.7347 87.3644 31.7246C86.9599 31.7326 86.5584 31.654 86.1869 31.4941C85.8715 31.3586 85.601 31.1365 85.4068 30.8536C85.2233 30.5806 85.1276 30.258 85.1326 29.929C85.1244 29.6815 85.1743 29.4354 85.2784 29.2106C85.3825 28.9858 85.5378 28.7885 85.7318 28.6346C86.1319 28.3081 86.7622 28.1475 87.6219 28.1475H89.1693V28.0566C89.1806 27.8783 89.1528 27.6997 89.0878 27.5334C89.0229 27.367 88.9223 27.2168 88.7931 27.0934C88.4762 26.8462 88.0787 26.7259 87.6779 26.7558C87.3407 26.7559 87.0056 26.8089 86.6848 26.9128C86.3849 27.0047 86.1054 27.1532 85.8613 27.3502L85.3117 26.3309C85.6518 26.0782 86.0362 25.8913 86.4451 25.7802C86.9012 25.6515 87.373 25.5873 87.8469 25.5894C88.7279 25.5894 89.4021 25.8008 89.8701 26.2236ZM88.5923 30.4625C88.8607 30.3081 89.0658 30.0635 89.171 29.7723V29.0783H87.7242C86.9168 29.0783 86.5131 29.3435 86.5131 29.8741C86.5096 29.9923 86.5355 30.1096 86.5883 30.2155C86.6411 30.3214 86.7194 30.4125 86.816 30.4808C87.0651 30.6435 87.3601 30.7217 87.6571 30.7038C87.9851 30.7098 88.3085 30.6264 88.5928 30.4627" fill="#593C8F"/>
<path d="M95.9356 31.3204C95.7578 31.4606 95.5536 31.5635 95.3351 31.6231C95.0919 31.6915 94.8403 31.7255 94.5876 31.7241C94.0312 31.7598 93.4831 31.5744 93.0626 31.2083C92.8739 31.0087 92.7287 30.772 92.636 30.5134C92.5434 30.2548 92.5054 29.9798 92.5244 29.7057V26.8243H91.5386V25.703H92.5253V24.335H93.9271V25.703H95.5307V26.8243H93.9271V29.6727C93.9103 29.9139 93.9866 30.1525 94.1403 30.3392C94.2209 30.419 94.3177 30.4808 94.424 30.5203C94.5304 30.5598 94.6439 30.5763 94.7571 30.5685C95.0392 30.5792 95.3163 30.4925 95.5421 30.3231L95.9356 31.3204Z" fill="#593C8F"/>
<path d="M97.1568 24.4305C97.0753 24.3532 97.0104 24.26 96.966 24.1568C96.9217 24.0535 96.8988 23.9423 96.8988 23.83C96.8988 23.7176 96.9217 23.6064 96.966 23.5032C97.0104 23.3999 97.0753 23.3068 97.1568 23.2294C97.3299 23.0681 97.5595 22.9814 97.796 22.9883C98.0305 22.9809 98.259 23.0629 98.4353 23.2176C98.5185 23.289 98.5847 23.3779 98.6293 23.478C98.674 23.578 98.6958 23.6868 98.6933 23.7963C98.6961 23.9117 98.6752 24.0263 98.6319 24.1332C98.5886 24.2402 98.5238 24.3371 98.4416 24.418C98.3571 24.5022 98.2561 24.568 98.1451 24.6116C98.034 24.6551 97.9152 24.6753 97.796 24.671C97.5595 24.6777 97.3299 24.5911 97.1568 24.4298M97.0895 25.6572H98.4913V31.6456H97.0895V25.6572Z" fill="#593C8F"/>
<path d="M101.438 31.331C100.963 31.081 100.569 30.7023 100.3 30.2383C100.023 29.756 99.8808 29.2074 99.8904 28.6509C99.8806 28.0967 100.022 27.5504 100.3 27.0709C100.57 26.6092 100.964 26.2323 101.438 25.9831C101.947 25.7243 102.51 25.5894 103.081 25.5894C103.652 25.5894 104.214 25.7243 104.723 25.9831C105.197 26.2319 105.591 26.6089 105.861 27.0709C106.139 27.5504 106.281 28.0967 106.271 28.6509C106.281 29.2074 106.139 29.756 105.861 30.2383C105.593 30.7026 105.198 31.0814 104.723 31.331C104.214 31.5898 103.652 31.7247 103.081 31.7247C102.51 31.7247 101.947 31.5898 101.438 31.331ZM104.353 30.0068C104.679 29.6297 104.858 29.1481 104.858 28.6499C104.858 28.1517 104.679 27.6701 104.353 27.293C104.188 27.1234 103.988 26.99 103.768 26.9013C103.548 26.8125 103.312 26.7702 103.075 26.7772C102.839 26.7698 102.604 26.8119 102.385 26.9008C102.166 26.9896 101.968 27.1232 101.803 27.293C101.481 27.6716 101.303 28.1526 101.303 28.6499C101.303 29.1472 101.481 29.6283 101.803 30.0068C101.967 30.1769 102.165 30.3107 102.385 30.3995C102.604 30.4883 102.839 30.5303 103.075 30.5226C103.313 30.5299 103.549 30.4878 103.769 30.399C103.989 30.3102 104.188 30.1767 104.353 30.0068Z" fill="#593C8F"/>
<path d="M112.897 26.2519C113.354 26.693 113.582 27.3472 113.582 28.2143V31.6458H112.18V28.3937C112.212 27.9671 112.079 27.5444 111.81 27.2121C111.672 27.0747 111.507 26.9681 111.326 26.8993C111.144 26.8306 110.95 26.8013 110.756 26.8135C110.531 26.8016 110.306 26.8368 110.095 26.9169C109.885 26.9969 109.693 27.12 109.533 27.2782C109.213 27.6485 109.052 28.1304 109.085 28.619V31.6468H107.683V25.6575H109.017V26.4325C109.252 26.153 109.553 25.9367 109.892 25.8034C110.271 25.6563 110.674 25.5839 111.081 25.5902C111.412 25.5745 111.744 25.6249 112.055 25.7385C112.367 25.8521 112.654 26.0266 112.897 26.2519Z" fill="#593C8F"/>
<path d="M120.079 31.2372C119.455 30.904 118.935 30.4052 118.577 29.7956C118.219 29.1625 118.031 28.4476 118.032 27.7204C118.033 26.9932 118.222 26.2787 118.582 25.6465C118.944 25.0377 119.466 24.5393 120.091 24.2049C120.75 23.8524 121.489 23.6732 122.237 23.6841C122.841 23.6768 123.44 23.7916 123.999 24.0217C124.517 24.2378 124.978 24.5719 125.344 24.9973L124.401 25.8833C124.138 25.5882 123.815 25.3534 123.454 25.1947C123.092 25.036 122.7 24.9572 122.305 24.9638C121.801 24.9557 121.302 25.0775 120.858 25.3176C120.441 25.545 120.095 25.8846 119.86 26.2981C119.625 26.7361 119.503 27.2253 119.503 27.7223C119.503 28.2192 119.625 28.7085 119.86 29.1465C120.095 29.5603 120.441 29.9 120.858 30.1272C121.302 30.3683 121.8 30.4907 122.305 30.4824C122.701 30.4885 123.094 30.4085 123.456 30.2477C123.818 30.087 124.14 29.8495 124.401 29.5516L125.344 30.4474C124.976 30.8741 124.513 31.2084 123.992 31.4231C123.432 31.6527 122.832 31.7675 122.227 31.7607C121.478 31.7712 120.739 31.592 120.079 31.2398" fill="#593C8F"/>
<path d="M127.68 31.331C127.205 31.081 126.811 30.7023 126.542 30.2383C126.265 29.756 126.123 29.2074 126.132 28.6509C126.123 28.0967 126.264 27.5504 126.542 27.0709C126.812 26.6092 127.207 26.2323 127.68 25.9831C128.189 25.7243 128.752 25.5894 129.323 25.5894C129.894 25.5894 130.457 25.7243 130.965 25.9831C131.439 26.2319 131.833 26.6089 132.103 27.0709C132.381 27.5504 132.523 28.0967 132.513 28.6509C132.523 29.2074 132.381 29.756 132.103 30.2383C131.835 30.7026 131.44 31.0814 130.965 31.331C130.457 31.5898 129.894 31.7247 129.323 31.7247C128.752 31.7247 128.189 31.5898 127.68 31.331ZM130.596 30.0078C130.921 29.6307 131.1 29.1491 131.1 28.6509C131.1 28.1527 130.921 27.6711 130.596 27.294C130.43 27.1244 130.23 26.991 130.011 26.9022C129.791 26.8135 129.555 26.7712 129.317 26.7782C129.081 26.7708 128.846 26.8129 128.627 26.9017C128.408 26.9905 128.21 27.1241 128.045 27.294C127.723 27.6725 127.546 28.1536 127.546 28.6509C127.546 29.1482 127.723 29.6292 128.045 30.0078C128.209 30.1779 128.408 30.3116 128.627 30.4005C128.846 30.4893 129.081 30.5313 129.317 30.5236C129.555 30.5309 129.791 30.4888 130.011 30.4C130.231 30.3112 130.43 30.1776 130.596 30.0078Z" fill="#593C8F"/>
<path d="M139.14 26.2519C139.596 26.693 139.824 27.3472 139.824 28.2143V31.6458H138.422V28.3938C138.454 27.9671 138.321 27.5444 138.052 27.2122C137.914 27.0747 137.749 26.9681 137.568 26.8993C137.386 26.8306 137.192 26.8014 136.998 26.8135C136.773 26.8017 136.548 26.8369 136.337 26.9169C136.127 26.9969 135.936 27.12 135.775 27.2782C135.455 27.6485 135.294 28.1304 135.327 28.619V31.6468H133.925V25.6575H135.26V26.4325C135.494 26.153 135.795 25.9367 136.134 25.8034C136.513 25.6563 136.917 25.5839 137.323 25.5902C137.654 25.5745 137.986 25.6249 138.298 25.7385C138.61 25.8521 138.896 26.0266 139.14 26.2519Z" fill="#593C8F"/>
<path d="M143.209 25.344V25.7028H144.857V26.8242H143.254V31.647H141.852V26.8242H140.865V25.7028H141.852V25.3216C141.837 25.0435 141.879 24.7654 141.975 24.5041C142.072 24.2429 142.221 24.0041 142.413 23.8024C142.812 23.4873 143.295 23.2973 143.802 23.2563C144.309 23.2153 144.816 23.3251 145.261 23.5718L144.868 24.6273C144.642 24.467 144.372 24.3808 144.095 24.3806C143.504 24.3806 143.209 24.7022 143.209 25.3452M146.764 24.432C146.682 24.3546 146.617 24.2615 146.573 24.1582C146.528 24.055 146.506 23.9438 146.506 23.8314C146.506 23.7191 146.528 23.6079 146.573 23.5046C146.617 23.4014 146.682 23.3082 146.764 23.2309C146.937 23.0695 147.166 22.9829 147.403 22.9897C147.637 22.9823 147.866 23.0643 148.042 23.219C148.125 23.2904 148.191 23.3793 148.236 23.4794C148.281 23.5795 148.303 23.6882 148.3 23.7978C148.303 23.9131 148.282 24.0278 148.239 24.1347C148.195 24.2416 148.131 24.3385 148.048 24.4195C147.964 24.5036 147.863 24.5695 147.752 24.613C147.641 24.6565 147.522 24.6767 147.403 24.6724C147.166 24.6792 146.937 24.5926 146.764 24.4313M146.696 25.6587H148.098V31.647H146.696V25.6587Z" fill="#593C8F"/>
<path d="M153.444 25.5894V26.9239C153.337 26.9032 153.228 26.8919 153.118 26.8901C152.884 26.8767 152.649 26.9122 152.429 26.9943C152.209 27.0765 152.009 27.2035 151.84 27.3673C151.512 27.7464 151.347 28.24 151.381 28.7404V31.6447H149.979V25.6578H151.313V26.5325C151.716 25.9032 152.426 25.5889 153.443 25.5894" fill="#593C8F"/>
<path d="M163.994 26.2455C164.435 26.684 164.655 27.3403 164.655 28.2142V31.6457H163.253V28.3936C163.285 27.9699 163.161 27.5493 162.906 27.2098C162.779 27.074 162.624 26.9679 162.451 26.8992C162.279 26.8305 162.093 26.8008 161.908 26.8124C161.696 26.8032 161.486 26.84 161.29 26.9203C161.094 27.0005 160.918 27.1222 160.774 27.2771C160.469 27.6501 160.316 28.1254 160.348 28.6065V31.6449H158.946V28.3936C158.978 27.9699 158.854 27.5493 158.599 27.2098C158.472 27.074 158.317 26.9679 158.144 26.8992C157.972 26.8305 157.786 26.8008 157.601 26.8124C157.389 26.8021 157.178 26.8379 156.981 26.9173C156.785 26.9966 156.608 27.1177 156.463 27.272C156.159 27.6473 156.008 28.1244 156.042 28.6065V31.6449H154.641V25.6573H155.975V26.4198C156.202 26.1492 156.49 25.9375 156.817 25.803C157.172 25.6572 157.554 25.5847 157.938 25.5898C158.35 25.5816 158.758 25.6681 159.132 25.8428C159.473 26.0053 159.76 26.2643 159.957 26.5879C160.209 26.2688 160.537 26.0168 160.91 25.8541C161.316 25.6742 161.755 25.5838 162.199 25.5888C162.527 25.5715 162.855 25.6207 163.164 25.7333C163.472 25.8459 163.754 26.0197 163.994 26.2443" fill="#593C8F"/>
<path d="M172.119 29.1008H167.42C167.49 29.5211 167.722 29.8973 168.066 30.1486C168.443 30.4161 168.898 30.5522 169.36 30.5361C169.662 30.5454 169.962 30.4923 170.242 30.3803C170.522 30.2683 170.776 30.0997 170.987 29.885L171.739 30.7486C171.465 31.0731 171.113 31.3237 170.717 31.4776C170.212 31.6627 169.675 31.7452 169.138 31.7204C168.601 31.6956 168.074 31.5638 167.589 31.3329C167.105 31.0867 166.702 30.707 166.428 30.2388C166.151 29.7563 166.01 29.2078 166.018 28.6513C166.011 28.1005 166.148 27.5573 166.417 27.0764C166.676 26.6163 167.058 26.2377 167.521 25.9836C168.009 25.717 168.558 25.5814 169.115 25.5898C169.661 25.5809 170.2 25.7145 170.679 25.9773C171.133 26.2303 171.507 26.6076 171.755 27.0651C172.02 27.5635 172.153 28.1216 172.141 28.6861C172.141 28.7825 172.133 28.9209 172.118 29.1011M167.976 27.1099C167.662 27.3817 167.46 27.7595 167.409 28.171H170.807C170.761 27.764 170.566 27.3885 170.259 27.1169C169.936 26.8567 169.534 26.7143 169.119 26.7132C168.704 26.7121 168.301 26.8522 167.976 27.1107" fill="#593C8F"/>
<path d="M179.492 23.3252V31.6459H178.147V30.872C177.918 31.1532 177.623 31.3729 177.288 31.5113C176.931 31.6567 176.548 31.7291 176.162 31.7242C175.62 31.7326 175.085 31.6013 174.608 31.343C174.153 31.0922 173.777 30.7172 173.527 30.2615C173.258 29.768 173.123 29.2132 173.134 28.6516C173.123 28.0919 173.258 27.5391 173.527 27.048C173.779 26.5945 174.154 26.2214 174.608 25.9715C175.085 25.7132 175.62 25.5819 176.162 25.5903C176.534 25.5857 176.904 25.6543 177.25 25.7921C177.575 25.9237 177.863 26.1313 178.091 26.3976V23.3252H179.492ZM177.238 30.2943C177.509 30.1404 177.731 29.9132 177.878 29.6388C178.032 29.3329 178.113 28.9948 178.113 28.652C178.113 28.3091 178.032 27.971 177.878 27.6651C177.73 27.3907 177.509 27.1632 177.238 27.0084C176.959 26.8579 176.647 26.7792 176.33 26.7792C176.013 26.7792 175.701 26.8579 175.422 27.0084C175.151 27.1632 174.93 27.3907 174.782 27.6651C174.627 27.971 174.547 28.3091 174.547 28.652C174.547 28.9948 174.627 29.3329 174.782 29.6388C174.929 29.9132 175.151 30.1404 175.422 30.2943C175.7 30.4455 176.013 30.5248 176.33 30.5248C176.647 30.5248 176.959 30.4455 177.238 30.2943Z" fill="#593C8F"/>
<g opacity="0.37">
<mask id="mask1_1281_3058" style="mask-type:luminance" maskUnits="userSpaceOnUse" x="22" y="13" width="20" height="16">
<path d="M41.5275 13.6064H22.6936V28.3042H41.5275V13.6064Z" fill="white"/>
</mask>
<g mask="url(#mask1_1281_3058)">
<path d="M40.1671 14.8561C39.7526 14.4468 39.2597 14.1253 38.7179 13.911C38.1762 13.6967 37.5968 13.5939 37.0144 13.6089C36.4293 13.6172 35.8517 13.7417 35.3152 13.9753C34.7788 14.2089 34.2941 14.5468 33.8894 14.9694L32.1127 16.8197L30.3234 14.9682C29.9181 14.5466 29.4336 14.2093 28.8975 13.9756C28.3615 13.7419 27.7845 13.6165 27.1998 13.6066C26.6151 13.5967 26.0343 13.7024 25.4906 13.9177C24.9469 14.133 24.4512 14.4537 24.0318 14.8613C23.6125 15.2689 23.2779 15.7553 23.0472 16.2927C22.8165 16.83 22.6943 17.4077 22.6877 17.9924C22.681 18.5771 22.79 19.1574 23.0083 19.6999C23.2267 20.2423 23.5501 20.7363 23.96 21.1533L31.7972 28.1832C31.8847 28.2611 31.9979 28.3041 32.1151 28.3037C32.2326 28.3043 32.346 28.2608 32.4329 28.1817L40.279 21.128C40.785 20.6051 41.1546 19.9657 41.3554 19.2663C41.5561 18.5668 41.5818 17.8288 41.4302 17.1171C41.2471 16.2533 40.8071 15.465 40.1681 14.8556" fill="#593C8F"/>
</g>
</g>
<path d="M32.1131 32.3987L25.5964 26.5949C25.4132 26.4317 25.2639 26.2339 25.157 26.013C25.0502 25.7921 24.9879 25.5523 24.9737 25.3073C24.9595 25.0623 24.9937 24.8169 25.0744 24.5852C25.1551 24.3534 25.2806 24.1398 25.4438 23.9565C25.607 23.7732 25.8047 23.6239 26.0256 23.5171C26.2466 23.4102 26.4864 23.3479 26.7314 23.3338C26.9764 23.3196 27.2217 23.3538 27.4535 23.4345C27.6853 23.5151 27.8989 23.6406 28.0822 23.8039L32.1069 27.388L40.2816 20.0678C40.6509 19.7372 41.1364 19.5668 41.6313 19.5942C42.1262 19.6215 42.59 19.8443 42.9206 20.2136C43.2512 20.5829 43.4216 21.0684 43.3943 21.5633C43.3669 22.0582 43.1441 22.5219 42.7748 22.8525L32.1131 32.3987Z" fill="#593C8F"/>
<path d="M27.0734 47.715V50.0237H25.8586V47.7328L23.288 43.4814H24.5875L26.5027 46.6674L28.4376 43.4814H29.6337L27.0734 47.715Z" fill="#1A1818"/>
<path d="M31.1937 49.7615C30.7986 49.552 30.4702 49.2361 30.2455 48.8495C30.0215 48.4458 29.9041 47.9917 29.9041 47.53C29.9041 47.0683 30.0215 46.6142 30.2455 46.2104C30.4712 45.8262 30.7995 45.5126 31.1937 45.3047C31.614 45.0823 32.0837 44.9696 32.5593 44.977C33.0368 44.9688 33.5087 45.0815 33.9311 45.3045C34.3259 45.5119 34.6547 45.8257 34.8805 46.2102C35.1044 46.6139 35.2219 47.068 35.2219 47.5297C35.2219 47.9914 35.1044 48.4455 34.8805 48.8493C34.6557 49.2362 34.3267 49.5522 33.9311 49.7613C33.5081 49.9836 33.0359 50.0959 32.5581 50.0878C32.0827 50.095 31.6131 49.9827 31.1925 49.7613M33.6234 48.6585C33.8943 48.3441 34.0433 47.9428 34.0433 47.5278C34.0433 47.1128 33.8943 46.7115 33.6234 46.3971C33.4853 46.2556 33.3192 46.1443 33.1359 46.0703C32.9525 45.9963 32.7557 45.9612 32.5581 45.9671C32.3609 45.9605 32.1647 45.9953 31.9819 46.0694C31.7991 46.1435 31.6339 46.2551 31.497 46.3971C31.2277 46.7122 31.0796 47.1132 31.0796 47.5278C31.0796 47.9424 31.2277 48.3434 31.497 48.6585C31.6341 48.8003 31.7993 48.9117 31.982 48.9858C32.1648 49.0598 32.361 49.0948 32.5581 49.0885C32.7557 49.0941 32.9523 49.0589 33.1357 48.9849C33.319 48.9109 33.4851 48.7998 33.6234 48.6585Z" fill="#1A1818"/>
<path d="M41.1753 45.0332V50.0234H40.0627V49.388C39.8741 49.6139 39.6344 49.7917 39.3634 49.9065C39.077 50.0297 38.768 50.0921 38.4562 50.0895C38.1701 50.1052 37.8837 50.0641 37.6136 49.9685C37.3435 49.8729 37.095 49.7247 36.8825 49.5325C36.4988 49.1611 36.3069 48.6112 36.3069 47.8828V45.0332H37.4757V47.7246C37.4475 48.0855 37.5555 48.4439 37.7786 48.729C37.8905 48.8431 38.0256 48.9318 38.1748 48.9889C38.3241 49.0461 38.4839 49.0705 38.6433 49.0603C38.8272 49.0694 39.0109 49.0396 39.1824 48.9728C39.3539 48.906 39.5095 48.8038 39.6388 48.6728C39.9034 48.3629 40.0363 47.9617 40.0089 47.5551V45.0332H41.1753Z" fill="#1A1818"/>
<path d="M49.6318 45.5275C50.0118 45.8951 50.2021 46.44 50.2026 47.1623V50.0218H49.0338V47.313C49.0613 46.957 48.9506 46.6041 48.7249 46.3274C48.6106 46.2126 48.4731 46.1234 48.3216 46.066C48.1701 46.0087 48.0081 45.9843 47.8464 45.9946C47.659 45.985 47.4717 46.0146 47.2964 46.0815C47.1211 46.1484 46.9617 46.2513 46.8285 46.3834C46.5614 46.691 46.427 47.0919 46.4547 47.4984V50.0215H45.2871V43.0879H46.4547V45.611C46.6542 45.4013 46.8988 45.2398 47.17 45.1388C47.4736 45.0276 47.7949 44.9727 48.1181 44.9768C48.3944 44.9636 48.6705 45.0055 48.9304 45.1C49.1903 45.1946 49.4286 45.3399 49.6318 45.5275Z" fill="#1A1818"/>
<path d="M55.2799 45.5052C55.6686 45.8567 55.8633 46.3872 55.8641 47.0968V50.0223H54.7616V49.4156C54.6114 49.6388 54.3986 49.8127 54.1499 49.9153C53.8456 50.0376 53.5196 50.0966 53.1918 50.0884C52.8548 50.0958 52.5203 50.03 52.2113 49.8955C51.9487 49.7834 51.7231 49.5995 51.5602 49.365C51.408 49.1367 51.3284 48.8677 51.3321 48.5933C51.325 48.3867 51.3665 48.1813 51.4533 47.9937C51.54 47.806 51.6697 47.6414 51.8317 47.513C52.1644 47.2426 52.6893 47.1072 53.4066 47.1069H54.6951V47.0322C54.7047 46.8834 54.6816 46.7344 54.6274 46.5955C54.5733 46.4567 54.4894 46.3314 54.3816 46.2284C54.1171 46.0232 53.7859 45.9233 53.452 45.9482C53.1711 45.9483 52.8919 45.9924 52.6246 46.0789C52.3745 46.1554 52.1414 46.2794 51.9381 46.444L51.4799 45.593C51.763 45.3829 52.0829 45.2275 52.423 45.1348C52.8028 45.0275 53.1958 44.9742 53.5904 44.9766C54.3256 44.9766 54.8882 45.1528 55.2784 45.505M54.2145 49.0375C54.4381 48.9089 54.6086 48.7048 54.6953 48.4619V47.8831H53.4896C52.8168 47.8831 52.4804 48.1045 52.4804 48.5473C52.4773 48.6458 52.4988 48.7435 52.543 48.8316C52.5872 48.9198 52.6526 48.9955 52.7334 49.052C52.9403 49.1878 53.1856 49.2533 53.4327 49.2389C53.7061 49.2436 53.9756 49.1743 54.2128 49.0382" fill="#1A1818"/>
<path d="M62.0324 45.0332L59.8918 50.0234H58.686L56.5454 45.0332H57.761L59.3123 48.7338L60.9108 45.0332H62.0324Z" fill="#1A1818"/>
<path d="M67.4333 47.9025H63.5185C63.5768 48.2526 63.7695 48.566 64.0556 48.7759C64.3703 48.9986 64.7494 49.1119 65.1347 49.0986C65.3859 49.1065 65.6361 49.0623 65.8694 48.9688C66.1027 48.8753 66.3142 48.7345 66.4904 48.5553L67.1159 49.2768C66.8877 49.5468 66.5956 49.7553 66.2661 49.8835C65.8964 50.0249 65.5032 50.0947 65.1074 50.0892C64.605 50.0996 64.1075 49.9871 63.6584 49.7615C63.2553 49.557 62.9197 49.2408 62.6914 48.8507C62.4602 48.4486 62.3423 47.9913 62.35 47.5275C62.3433 47.0685 62.4581 46.6158 62.6827 46.2155C62.8976 45.8315 63.2163 45.5159 63.6022 45.3047C64.0085 45.0824 64.4655 44.9694 64.9285 44.9769C65.3841 44.9691 65.8337 45.0803 66.2331 45.2996C66.6121 45.5104 66.923 45.8251 67.129 46.2068C67.3507 46.6217 67.4618 47.0868 67.4516 47.5572C67.4516 47.6382 67.4453 47.754 67.433 47.9035M63.9799 46.243C63.7186 46.4688 63.5503 46.7835 63.5077 47.1263H66.3407C66.3028 46.7827 66.136 46.4663 65.8741 46.2408C65.6121 46.0154 65.2744 45.8976 64.929 45.9114C64.583 45.902 64.2456 46.02 63.9808 46.243" fill="#1A1818"/>
<path d="M71.5079 49.9295C71.1791 49.8494 70.8664 49.7137 70.5834 49.5282L71.0319 48.6398C71.2807 48.8011 71.5531 48.9226 71.8393 48.9999C72.1418 49.0878 72.4551 49.1331 72.7701 49.1344C73.4678 49.1344 73.8166 48.9508 73.8166 48.5837C73.8188 48.502 73.7938 48.422 73.7455 48.3561C73.6972 48.2903 73.6284 48.2423 73.5499 48.2198C73.272 48.1268 72.9857 48.0609 72.6951 48.0228C72.3552 47.9755 72.0191 47.9038 71.6895 47.8084C71.4321 47.7271 71.2002 47.5802 71.0167 47.3823C70.8154 47.148 70.7132 46.8447 70.7314 46.5363C70.7268 46.3124 70.7789 46.0909 70.8829 45.8925C70.9868 45.694 71.1392 45.5251 71.3259 45.4013C71.8023 45.0953 72.3628 44.9467 72.9283 44.9764C73.2742 44.9772 73.619 45.0165 73.9563 45.0936C74.251 45.1543 74.5347 45.2601 74.7974 45.4071L74.3488 46.2954C73.9153 46.0431 73.4212 45.9135 72.9196 45.9205C72.6503 45.905 72.3814 45.9582 72.1383 46.075C72.0606 46.1114 71.9945 46.1686 71.9474 46.2403C71.9003 46.312 71.8741 46.3954 71.8716 46.4811C71.8695 46.5695 71.8963 46.6562 71.9477 46.7281C71.9991 46.8 72.0725 46.8533 72.1568 46.88C72.4433 46.9821 72.7392 47.0555 73.0402 47.0992C73.3724 47.146 73.7006 47.2176 74.0221 47.3135C74.2731 47.3918 74.4996 47.5334 74.6799 47.7247C74.8767 47.9522 74.9761 48.248 74.9565 48.5482C74.9599 48.7714 74.9057 48.9917 74.7992 49.1879C74.6926 49.3841 74.5374 49.5496 74.3484 49.6683C73.8531 49.9742 73.2761 50.1212 72.6948 50.0896C72.2937 50.09 71.8943 50.0364 71.5074 49.9302" fill="#1A1818"/>
<path d="M80.7968 45.0332V50.0234H79.6842V49.388C79.4955 49.6139 79.2558 49.7917 78.9848 49.9065C78.6984 50.0297 78.3895 50.0921 78.0777 50.0895C77.7916 50.1052 77.5052 50.0641 77.2351 49.9685C76.965 49.8729 76.7165 49.7247 76.504 49.5325C76.1202 49.1611 75.9283 48.6112 75.9283 47.8828V45.0332H77.0972V47.7246C77.0689 48.0855 77.177 48.4439 77.4 48.729C77.5119 48.8431 77.6471 48.9318 77.7963 48.9889C77.9455 49.0461 78.1053 49.0705 78.2648 49.0603C78.4486 49.0694 78.6323 49.0396 78.8039 48.9728C78.9754 48.906 79.1309 48.8038 79.2602 48.6728C79.5249 48.3629 79.6577 47.9617 79.6304 47.5551V45.0332H80.7968Z" fill="#1A1818"/>
<path d="M83.2263 49.7615C82.8267 49.554 82.4934 49.2384 82.2644 48.8507C82.03 48.4497 81.9102 47.992 81.9181 47.5276C81.9099 47.065 82.0297 46.6092 82.2644 46.2105C82.4935 45.8257 82.8248 45.5121 83.2215 45.3045C83.653 45.0801 84.1339 44.9674 84.6201 44.9768C85.0695 44.9667 85.5141 45.0695 85.9134 45.2758C86.2764 45.4666 86.5695 45.7676 86.7507 46.1355L85.8524 46.6587C85.723 46.441 85.5375 46.2621 85.3154 46.1405C85.0986 46.0243 84.856 45.9647 84.61 45.9674C84.4098 45.9608 84.2103 45.9951 84.0237 46.0681C83.8371 46.1412 83.6674 46.2515 83.5249 46.3923C83.2487 46.7059 83.0959 47.1091 83.095 47.527C83.0941 47.9448 83.245 48.3488 83.5198 48.6636C83.7566 48.8852 84.056 49.0283 84.3772 49.0734C84.6983 49.1184 85.0255 49.0632 85.3142 48.9154C85.5366 48.7942 85.7222 48.6151 85.8512 48.3971L86.7495 48.9204C86.5615 49.2877 86.2665 49.5892 85.9035 49.7852C85.5081 49.9939 85.066 50.0985 84.6189 50.0893C84.1346 50.0969 83.656 49.9843 83.2259 49.7615" fill="#1A1818"/>
<path d="M88.6553 49.7618C88.2557 49.5543 87.9224 49.2387 87.6934 48.851C87.459 48.45 87.3392 47.9923 87.3471 47.5278C87.3388 47.0652 87.4587 46.6094 87.6934 46.2107C87.9224 45.8261 88.2536 45.5126 88.6502 45.305C89.0817 45.0805 89.5626 44.9679 90.0489 44.9772C90.4982 44.9671 90.9428 45.07 91.3421 45.2763C91.7051 45.4671 91.9982 45.7681 92.1794 46.1359L91.2811 46.6592C91.1517 46.4415 90.9662 46.2626 90.7441 46.141C90.5273 46.0248 90.2847 45.9652 90.0387 45.9679C89.8385 45.9613 89.639 45.9956 89.4524 46.0686C89.2659 46.1417 89.0961 46.252 88.9536 46.3928C88.6774 46.7063 88.5247 47.1096 88.5237 47.5275C88.5228 47.9453 88.6738 48.3493 88.9485 48.6641C89.1853 48.8857 89.4847 49.0288 89.8059 49.0739C90.127 49.1189 90.4543 49.0637 90.7429 48.9159C90.9653 48.7947 91.1509 48.6156 91.2799 48.3976L92.1782 48.9209C91.9902 49.2882 91.6953 49.5897 91.3322 49.7857C90.9368 49.9944 90.4947 50.099 90.0477 50.0897C89.5633 50.0974 89.0847 49.9848 88.6546 49.762" fill="#1A1818"/>
<path d="M97.8594 47.9025H93.9447C94.0029 48.2526 94.1956 48.566 94.4817 48.7759C94.7965 48.9986 95.1755 49.1119 95.5608 49.0986C95.8121 49.1065 96.0622 49.0623 96.2956 48.9688C96.5289 48.8753 96.7403 48.7345 96.9166 48.5553L97.5421 49.2768C97.3139 49.5468 97.0217 49.7553 96.6923 49.8835C96.3226 50.0249 95.9294 50.0947 95.5336 50.0892C95.0311 50.0996 94.5337 49.9871 94.0846 49.7615C93.6815 49.557 93.3458 49.2408 93.1176 48.8507C92.8864 48.4486 92.7684 47.9913 92.7761 47.5275C92.7695 47.0685 92.8843 46.6158 93.1089 46.2155C93.3237 45.8315 93.6424 45.5159 94.0284 45.3047C94.4346 45.0824 94.8916 44.9694 95.3547 44.9769C95.8102 44.9691 96.2599 45.0803 96.6593 45.2996C97.0383 45.5104 97.3491 45.8251 97.5551 46.2068C97.7768 46.6217 97.8879 47.0868 97.8778 47.5572C97.8778 47.6382 97.8715 47.754 97.8592 47.9035M94.4065 46.2439C94.1452 46.4698 93.977 46.7845 93.9343 47.1272H96.7668C96.7289 46.7837 96.5622 46.4673 96.3002 46.2418C96.0382 46.0163 95.7005 45.8986 95.3551 45.9124C95.0091 45.9029 94.6717 46.0209 94.407 46.2439" fill="#1A1818"/>
<path d="M99.3549 49.9295C99.0263 49.8493 98.7139 49.7136 98.431 49.5282L98.8796 48.6398C99.1283 48.8011 99.4007 48.9226 99.6869 48.9999C99.9894 49.0878 100.303 49.1331 100.618 49.1344C101.315 49.1344 101.664 48.9508 101.664 48.5837C101.666 48.502 101.641 48.422 101.593 48.3561C101.545 48.2903 101.476 48.2423 101.398 48.2198C101.12 48.1268 100.833 48.0609 100.543 48.0228C100.203 47.9755 99.8668 47.9038 99.5372 47.8084C99.2797 47.7271 99.0479 47.5802 98.8644 47.3823C98.6631 47.148 98.5608 46.8447 98.5791 46.5363C98.5745 46.3124 98.6266 46.0909 98.7305 45.8925C98.8344 45.694 98.9868 45.5251 99.1735 45.4013C99.65 45.0953 100.21 44.9467 100.776 44.9764C101.122 44.9772 101.467 45.0165 101.804 45.0936C102.099 45.1543 102.382 45.2601 102.645 45.4071L102.196 46.2954C101.763 46.0431 101.269 45.9135 100.767 45.9205C100.498 45.905 100.229 45.9582 99.9859 46.075C99.9082 46.1114 99.8422 46.1686 99.7951 46.2403C99.748 46.312 99.7217 46.3954 99.7192 46.4811C99.7172 46.5695 99.7439 46.6562 99.7954 46.7281C99.8468 46.8 99.9202 46.8533 100.004 46.88C100.291 46.9821 100.587 47.0555 100.888 47.0992C101.22 47.146 101.548 47.2176 101.87 47.3135C102.121 47.3918 102.347 47.5334 102.528 47.7247C102.724 47.9522 102.824 48.248 102.804 48.5482C102.808 48.7714 102.753 48.9917 102.647 49.1879C102.54 49.3841 102.385 49.5496 102.196 49.6683C101.701 49.9742 101.124 50.1212 100.542 50.0896C100.141 50.09 99.7419 50.0364 99.3551 49.9302" fill="#1A1818"/>
<path d="M104.168 49.9295C103.839 49.8494 103.527 49.7137 103.244 49.5282L103.692 48.6398C103.941 48.8011 104.213 48.9226 104.499 48.9999C104.802 49.0878 105.115 49.133 105.43 49.1344C106.128 49.1344 106.477 48.9508 106.477 48.5836C106.479 48.502 106.454 48.422 106.406 48.3561C106.357 48.2903 106.289 48.2423 106.21 48.2198C105.932 48.1268 105.646 48.0609 105.355 48.0228C105.015 47.9755 104.679 47.9038 104.35 47.8084C104.092 47.7271 103.86 47.5802 103.677 47.3823C103.476 47.148 103.373 46.8447 103.392 46.5363C103.387 46.3123 103.439 46.0907 103.543 45.8921C103.647 45.6936 103.799 45.5246 103.986 45.4008C104.463 45.0948 105.023 44.9462 105.589 44.9759C105.935 44.9767 106.279 45.016 106.617 45.0931C106.911 45.1539 107.195 45.2596 107.458 45.4066L107.009 46.295C106.576 46.0426 106.082 45.913 105.58 45.92C105.311 45.9045 105.042 45.9577 104.799 46.0745C104.721 46.1109 104.655 46.1681 104.608 46.2398C104.561 46.3115 104.534 46.3949 104.532 46.4806C104.53 46.569 104.557 46.6557 104.608 46.7276C104.66 46.7995 104.733 46.8528 104.817 46.8795C105.104 46.9816 105.4 47.055 105.701 47.0987C106.033 47.1455 106.361 47.2172 106.682 47.3131C106.933 47.3913 107.16 47.5329 107.34 47.7242C107.537 47.9516 107.637 48.2474 107.618 48.5477C107.621 48.7709 107.567 48.9912 107.461 49.1874C107.354 49.3836 107.199 49.549 107.01 49.6678C106.515 49.9737 105.938 50.1207 105.356 50.0891C104.955 50.0896 104.556 50.0359 104.169 49.9297" fill="#1A1818"/>
<path d="M109.914 44.7712V45.0702H111.289V46.0047H109.952V50.0238H108.784V46.0049H107.962V45.0705H108.784V44.7514C108.771 44.5199 108.806 44.2882 108.887 44.0706C108.967 43.8531 109.091 43.6544 109.252 43.4869C109.429 43.3254 109.637 43.2013 109.863 43.1219C110.089 43.0425 110.329 43.0094 110.569 43.0246C110.94 43.004 111.309 43.0979 111.625 43.2937L111.298 44.1734C111.109 44.0396 110.884 43.9674 110.654 43.9665C110.161 43.9665 109.915 44.2348 109.915 44.7714" fill="#1A1818"/>
<path d="M116.905 45.0332V50.0234H115.792V49.388C115.603 49.6139 115.364 49.7917 115.093 49.9065C114.806 50.0297 114.497 50.0921 114.185 50.0895C113.899 50.1052 113.613 50.0641 113.343 49.9685C113.073 49.8729 112.824 49.7247 112.612 49.5325C112.228 49.1611 112.036 48.6112 112.036 47.8828V45.0332H113.205V47.7246C113.177 48.0855 113.285 48.4439 113.508 48.729C113.62 48.8431 113.755 48.9318 113.904 48.9889C114.053 49.0461 114.213 49.0705 114.373 49.0603C114.556 49.0694 114.74 49.0396 114.912 48.9728C115.083 48.906 115.239 48.8038 115.368 48.6728C115.633 48.3629 115.766 47.9617 115.738 47.5551V45.0332H116.905Z" fill="#1A1818"/>
<path d="M119.605 43.0879H118.437V50.0218H119.605V43.0879Z" fill="#1A1818"/>
<path d="M122.306 43.0879H121.139V50.0218H122.306V43.0879Z" fill="#1A1818"/>
<path d="M128.511 45.033L126.175 50.4245C126.023 50.8737 125.747 51.2708 125.379 51.5697C125.047 51.7977 124.651 51.9143 124.249 51.9024C123.998 51.9013 123.748 51.8601 123.51 51.7804C123.289 51.7116 123.085 51.5965 122.912 51.4428L123.379 50.5831C123.495 50.6909 123.63 50.7763 123.777 50.8349C123.923 50.896 124.08 50.9277 124.239 50.9282C124.422 50.9353 124.602 50.879 124.749 50.7688C124.911 50.6231 125.037 50.4414 125.117 50.2383L125.202 50.0415L123.024 45.0327H124.239L125.809 48.7222L127.389 45.0327L128.511 45.033Z" fill="#1A1818"/>
<path d="M132.698 49.7616C132.302 49.5528 131.973 49.2367 131.749 48.8496C131.525 48.4458 131.408 47.9917 131.408 47.53C131.408 47.0683 131.525 46.6142 131.749 46.2105C131.974 45.8257 132.303 45.5119 132.698 45.3047C133.122 45.0893 133.591 44.9771 134.067 44.9771C134.543 44.9771 135.012 45.0893 135.436 45.3047C135.83 45.5126 136.159 45.8263 136.384 46.2105C136.608 46.6142 136.726 47.0683 136.726 47.53C136.726 47.9917 136.608 48.4458 136.384 48.8496C136.16 49.2361 135.831 49.5521 135.436 49.7616C135.012 49.9762 134.543 50.088 134.067 50.088C133.591 50.088 133.122 49.9762 132.698 49.7616ZM135.127 48.6588C135.398 48.3444 135.547 47.9431 135.547 47.5281C135.547 47.113 135.398 46.7118 135.127 46.3974C134.989 46.2558 134.823 46.1445 134.64 46.0704C134.456 45.9964 134.26 45.9613 134.062 45.9674C133.865 45.9609 133.669 45.9958 133.486 46.0699C133.303 46.1439 133.138 46.2555 133.001 46.3974C132.732 46.7129 132.585 47.1137 132.585 47.5281C132.585 47.9425 132.732 48.3433 133.001 48.6588C133.138 48.8005 133.303 48.9119 133.486 48.9859C133.669 49.06 133.865 49.095 134.062 49.0888C134.26 49.0945 134.456 49.0593 134.64 48.9853C134.823 48.9113 134.989 48.8002 135.127 48.6588Z" fill="#1A1818"/>
<path d="M142.519 45.0332L140.378 50.0234H139.173L137.032 45.0332H138.247L139.798 48.7338L141.397 45.0332H142.519Z" fill="#1A1818"/>
<path d="M148.079 45.0332V50.0234H146.967V49.388C146.778 49.6139 146.538 49.7917 146.267 49.9065C145.981 50.0297 145.672 50.0921 145.36 50.0895C145.074 50.1052 144.788 50.0641 144.518 49.9685C144.248 49.8729 143.999 49.7247 143.787 49.5325C143.403 49.1611 143.211 48.6112 143.211 47.8828V45.0332H144.38V47.7246C144.352 48.0855 144.46 48.4439 144.683 48.729C144.795 48.8431 144.93 48.9318 145.079 48.9889C145.228 49.0461 145.388 49.0705 145.547 49.0603C145.731 49.0694 145.915 49.0396 146.086 48.9728C146.258 48.906 146.414 48.8038 146.543 48.6728C146.807 48.3629 146.94 47.9617 146.913 47.5551V45.0332H148.079Z" fill="#1A1818"/>
<path d="M150.779 43.0879H149.612V50.0218H150.779V43.0879Z" fill="#1A1818"/>
<path d="M155.906 45.5052C156.294 45.8567 156.489 46.3872 156.49 47.0968V50.0223H155.387V49.4156C155.237 49.6388 155.024 49.8127 154.775 49.9153C154.471 50.0376 154.145 50.0966 153.817 50.0884C153.48 50.0958 153.146 50.03 152.837 49.8955C152.574 49.7834 152.349 49.5995 152.186 49.365C152.033 49.1367 151.954 48.8677 151.958 48.5933C151.95 48.3867 151.992 48.1813 152.079 47.9937C152.166 47.806 152.295 47.6414 152.457 47.513C152.79 47.2426 153.315 47.1072 154.032 47.1069H155.321V47.0322C155.33 46.8834 155.307 46.7344 155.253 46.5955C155.199 46.4567 155.115 46.3314 155.007 46.2284C154.743 46.0232 154.411 45.9233 154.077 45.9482C153.797 45.9483 153.517 45.9924 153.25 46.0789C153 46.1554 152.767 46.2794 152.564 46.444L152.105 45.593C152.389 45.3829 152.708 45.2275 153.049 45.1348C153.428 45.0274 153.821 44.9742 154.216 44.9766C154.951 44.9766 155.514 45.1528 155.904 45.505M154.839 49.0373C155.062 48.9086 155.233 48.7046 155.32 48.4617V47.8829H154.114C153.441 47.8829 153.105 48.1043 153.105 48.547C153.102 48.6455 153.123 48.7433 153.167 48.8314C153.211 48.9195 153.277 48.9953 153.358 49.0517C153.565 49.1875 153.81 49.2531 154.057 49.2386C154.33 49.2434 154.6 49.1741 154.837 49.038" fill="#1A1818"/>
<path d="M160.984 49.7516C160.837 49.8692 160.667 49.9553 160.485 50.0046C160.282 50.0617 160.073 50.0903 159.863 50.0895C159.399 50.1188 158.942 49.9639 158.592 49.6583C158.435 49.492 158.314 49.2948 158.236 49.0792C158.159 48.8637 158.128 48.6345 158.144 48.406V46.004H157.321V45.0696H158.144V43.9302H159.312V45.0703H160.648V46.004H159.312V48.3764C159.298 48.5779 159.361 48.7772 159.489 48.9334C159.557 49 159.637 49.0517 159.725 49.0849C159.814 49.1182 159.908 49.1323 160.003 49.1263C160.238 49.1344 160.469 49.0618 160.657 48.9207L160.984 49.7516Z" fill="#1A1818"/>
<path d="M166.619 47.9025H162.704C162.762 48.2526 162.955 48.566 163.241 48.7759C163.556 48.9986 163.935 49.1119 164.32 49.0986C164.571 49.1065 164.821 49.0623 165.055 48.9688C165.288 48.8753 165.499 48.7345 165.676 48.5553L166.301 49.2768C166.073 49.5468 165.781 49.7553 165.451 49.8835C165.082 50.0249 164.689 50.0947 164.293 50.0892C163.79 50.0996 163.293 49.9871 162.844 49.7615C162.441 49.557 162.105 49.2408 161.877 48.8507C161.646 48.4486 161.528 47.9913 161.535 47.5275C161.529 47.0685 161.643 46.6158 161.868 46.2155C162.083 45.8315 162.402 45.5159 162.788 45.3047C163.194 45.0824 163.651 44.9694 164.114 44.9769C164.569 44.9691 165.019 45.0803 165.418 45.2996C165.797 45.5104 166.108 45.8251 166.314 46.2068C166.536 46.6218 166.647 47.0868 166.637 47.5572C166.637 47.6382 166.631 47.754 166.618 47.9035M163.166 46.2439C162.904 46.4698 162.736 46.7845 162.693 47.1272H165.526C165.488 46.7837 165.321 46.4673 165.059 46.2418C164.797 46.0163 164.459 45.8986 164.114 45.9124C163.768 45.903 163.431 46.0209 163.166 46.2439" fill="#1A1818"/>
<path d="M172.647 43.0879V50.0218H171.525V49.3777C171.335 49.6122 171.09 49.7951 170.81 49.9096C170.512 50.0311 170.192 50.0917 169.87 50.0878C169.419 50.0948 168.973 49.9854 168.577 49.77C168.197 49.5614 167.884 49.249 167.675 48.8693C167.452 48.4576 167.339 47.9947 167.348 47.5262C167.339 47.06 167.452 46.5995 167.675 46.1905C167.886 45.8124 168.198 45.5015 168.578 45.2934C168.974 45.0784 169.42 44.9694 169.871 44.9768C170.181 44.9726 170.489 45.0293 170.778 45.1436C171.048 45.2536 171.288 45.4274 171.477 45.65V43.0879H172.647ZM170.768 48.8968C170.993 48.7679 171.178 48.5784 171.301 48.3499C171.43 48.0949 171.497 47.8132 171.497 47.5276C171.497 47.242 171.43 46.9603 171.301 46.7053C171.178 46.4765 170.993 46.287 170.768 46.1584C170.535 46.0324 170.275 45.9665 170.011 45.9665C169.747 45.9665 169.486 46.0324 169.254 46.1584C169.029 46.2871 168.844 46.4766 168.722 46.7053C168.593 46.9601 168.525 47.2418 168.525 47.5276C168.525 47.8134 168.593 48.0951 168.722 48.3499C168.845 48.5783 169.029 48.7678 169.254 48.8968C169.487 49.022 169.747 49.0875 170.011 49.0875C170.275 49.0875 170.535 49.022 170.768 48.8968Z" fill="#1A1818"/>
<path d="M179.758 49.7516C179.61 49.8692 179.44 49.9553 179.258 50.0046C179.056 50.0617 178.846 50.0903 178.636 50.0895C178.172 50.1188 177.716 49.9639 177.365 49.6583C177.208 49.492 177.087 49.2948 177.01 49.0792C176.933 48.8637 176.901 48.6345 176.917 48.406V46.004H176.095V45.0696H176.917V43.9302H178.086V45.0703H179.421V46.004H178.086V48.3764C178.071 48.5779 178.135 48.7772 178.263 48.9334C178.33 49 178.41 49.0517 178.499 49.0849C178.587 49.1182 178.682 49.1323 178.776 49.1263C179.011 49.1344 179.242 49.0619 179.43 48.9207L179.758 49.7516Z" fill="#1A1818"/>
<path d="M185.067 45.5275C185.446 45.8951 185.635 46.44 185.636 47.1623V50.0218H184.469V47.313C184.496 46.957 184.385 46.604 184.16 46.3274C184.045 46.2126 183.908 46.1236 183.756 46.0662C183.605 46.0088 183.443 45.9844 183.281 45.9946C183.094 45.985 182.906 46.0146 182.731 46.0815C182.556 46.1484 182.397 46.2513 182.263 46.3834C181.996 46.691 181.862 47.0919 181.89 47.4984V50.0215H180.722V43.0879H181.89V45.611C182.089 45.401 182.333 45.2395 182.605 45.1388C182.908 45.0276 183.23 44.9727 183.553 44.9768C183.829 44.9637 184.105 45.0056 184.365 45.1002C184.625 45.1947 184.864 45.34 185.067 45.5275Z" fill="#1A1818"/>
<path d="M187.179 44.0101C187.111 43.9458 187.057 43.8682 187.019 43.7822C186.982 43.6962 186.963 43.6035 186.963 43.5098C186.963 43.4162 186.982 43.3235 187.019 43.2375C187.057 43.1515 187.111 43.0739 187.179 43.0096C187.323 42.8751 187.514 42.803 187.711 42.809C187.906 42.803 188.097 42.8711 188.244 42.9997C188.313 43.0594 188.368 43.1335 188.405 43.2169C188.442 43.3003 188.46 43.3908 188.458 43.482C188.461 43.5782 188.443 43.6738 188.407 43.7629C188.371 43.8521 188.317 43.9328 188.248 44.0002C188.177 44.07 188.093 44.1247 188.001 44.1609C187.909 44.1971 187.81 44.214 187.711 44.2107C187.514 44.2161 187.323 44.1441 187.179 44.0101ZM187.123 45.033H188.29V50.0233H187.123V45.033Z" fill="#1A1818"/>
<path d="M190.178 49.9295C189.849 49.8494 189.536 49.7137 189.253 49.5282L189.702 48.6398C189.951 48.8011 190.223 48.9226 190.509 48.9999C190.812 49.0878 191.125 49.1331 191.44 49.1344C192.138 49.1344 192.487 48.9508 192.487 48.5837C192.489 48.502 192.464 48.422 192.416 48.3561C192.367 48.2903 192.298 48.2423 192.22 48.2198C191.942 48.1268 191.656 48.0609 191.365 48.0228C191.025 47.9755 190.689 47.9038 190.36 47.8084C190.102 47.7271 189.87 47.5802 189.687 47.3823C189.486 47.148 189.383 46.8446 189.401 46.5363C189.397 46.3124 189.449 46.0909 189.553 45.8925C189.657 45.694 189.809 45.5251 189.996 45.4013C190.472 45.0953 191.033 44.9467 191.598 44.9764C191.944 44.9772 192.289 45.0165 192.626 45.0936C192.921 45.1543 193.205 45.2601 193.467 45.4071L193.019 46.2954C192.585 46.0432 192.091 45.9135 191.59 45.9205C191.321 45.905 191.052 45.9582 190.809 46.075C190.731 46.1114 190.665 46.1686 190.618 46.2403C190.571 46.312 190.544 46.3954 190.542 46.4811C190.54 46.5695 190.567 46.6562 190.618 46.7281C190.669 46.8 190.743 46.8533 190.827 46.88C191.114 46.9821 191.409 47.0555 191.71 47.0992C192.043 47.146 192.371 47.2176 192.692 47.3135C192.943 47.3918 193.17 47.5334 193.35 47.7247C193.547 47.9522 193.646 48.248 193.627 48.5482C193.63 48.7714 193.576 48.9917 193.469 49.1879C193.363 49.3841 193.208 49.5496 193.019 49.6683C192.523 49.9742 191.946 50.1212 191.365 50.0896C190.964 50.09 190.565 50.0364 190.178 49.9302" fill="#1A1818"/>
<path d="M25.0358 60.9754C24.6362 60.7679 24.3028 60.4523 24.0739 60.0646C23.8395 59.6636 23.7197 59.2059 23.7276 58.7414C23.7193 58.2789 23.8391 57.823 24.0739 57.4243C24.3029 57.0396 24.6341 56.726 25.0307 56.5183C25.4622 56.2939 25.9431 56.1812 26.4294 56.1906C26.8787 56.1805 27.3233 56.2833 27.7226 56.4896C28.0856 56.6804 28.3787 56.9814 28.5599 57.3493L27.6616 57.8726C27.5322 57.6549 27.3467 57.4759 27.1246 57.3544C26.9078 57.2381 26.6652 57.1786 26.4192 57.1812C26.219 57.1747 26.0195 57.209 25.8329 57.282C25.6464 57.3551 25.4766 57.4653 25.3341 57.6061C25.0579 57.9197 24.9051 58.323 24.9042 58.7408C24.9033 59.1587 25.0543 59.5627 25.329 59.8775C25.5658 60.0991 25.8652 60.2422 26.1864 60.2872C26.5075 60.3323 26.8347 60.2771 27.1234 60.1292C27.3458 60.008 27.5314 59.829 27.6604 59.611L28.5587 60.1343C28.3707 60.5015 28.0758 60.8031 27.7127 60.999C27.3173 61.2078 26.8752 61.3124 26.4281 61.3031C25.9438 61.3108 25.4652 61.1982 25.0351 60.9754" fill="#1A1818"/>
<path d="M34.2406 56.2468L31.9044 61.6383C31.7527 62.0876 31.4768 62.4847 31.1086 62.7835C30.7768 63.0116 30.3811 63.1281 29.9786 63.1163C29.7274 63.1152 29.478 63.074 29.2398 62.9943C29.0187 62.9255 28.8149 62.8104 28.6417 62.6567L29.1091 61.797C29.2248 61.9048 29.3596 61.9901 29.5065 62.0488C29.653 62.1098 29.81 62.1415 29.9687 62.1421C30.1519 62.1492 30.3319 62.0929 30.4783 61.9827C30.6408 61.8369 30.767 61.6553 30.847 61.4522L30.9316 61.2554L28.7536 56.2466H29.9685L31.5383 59.9361L33.1183 56.2466L34.2406 56.2468Z" fill="#1A1818"/>
<path d="M35.8661 60.9752C35.4665 60.7677 35.1332 60.4521 34.9042 60.0644C34.6698 59.6633 34.55 59.2056 34.5579 58.7412C34.5496 58.2786 34.6695 57.8228 34.9042 57.4241C35.1333 57.0394 35.4646 56.7259 35.8613 56.5183C36.2928 56.2939 36.7736 56.1812 37.2599 56.1906C37.7092 56.1805 38.1539 56.2833 38.5532 56.4896C38.9162 56.6804 39.2093 56.9814 39.3904 57.3493L38.4922 57.8726C38.3628 57.6549 38.1773 57.4759 37.9551 57.3544C37.7384 57.2381 37.4957 57.1786 37.2498 57.1812C37.0495 57.1747 36.85 57.209 36.6635 57.282C36.4769 57.3551 36.3072 57.4653 36.1646 57.6061C35.8885 57.9197 35.7357 58.323 35.7348 58.7409C35.7338 59.1587 35.8848 59.5627 36.1596 59.8775C36.3964 60.0991 36.6958 60.2422 37.0169 60.2872C37.3381 60.3323 37.6653 60.2771 37.9539 60.1292C38.1764 60.008 38.3619 59.829 38.491 59.611L39.3892 60.1343C39.2013 60.5015 38.9063 60.8031 38.5433 60.999C38.1478 61.2078 37.7058 61.3124 37.2587 61.3031C36.7744 61.3108 36.2957 61.1982 35.8656 60.9754" fill="#1A1818"/>
<path d="M41.5668 54.3018H40.3992V61.2356H41.5668V54.3018Z" fill="#1A1818"/>
<path d="M47.7714 59.1164H43.8567C43.9149 59.4664 44.1076 59.7799 44.3937 59.9898C44.7085 60.2124 45.0875 60.3258 45.4728 60.3125C45.7241 60.3203 45.9742 60.2761 46.2075 60.1826C46.4409 60.0891 46.6523 59.9484 46.8285 59.7692L47.4541 60.4907C47.2259 60.7606 46.9337 60.9692 46.6043 61.0974C46.2346 61.2388 45.8414 61.3086 45.4456 61.3031C44.9431 61.3134 44.4457 61.2009 43.9965 60.9754C43.5935 60.7709 43.2578 60.4547 43.0296 60.0646C42.7984 59.6624 42.6804 59.2052 42.6881 58.7414C42.6814 58.2824 42.7962 57.8297 43.0209 57.4293C43.2357 57.0454 43.5544 56.7297 43.9404 56.5185C44.3466 56.2962 44.8036 56.1833 45.2667 56.1908C45.7222 56.183 46.1719 56.2942 46.5712 56.5135C46.9503 56.7243 47.2611 57.039 47.4671 57.4207C47.6888 57.8356 47.7999 58.3007 47.7897 58.7711C47.7897 58.8521 47.7835 58.9678 47.7709 59.1173M44.3182 57.4578C44.0569 57.6836 43.8887 57.9984 43.8461 58.3411H46.6788C46.6409 57.9975 46.4742 57.6811 46.2122 57.4557C45.9502 57.2302 45.6125 57.1125 45.2671 57.1262C44.9211 57.1168 44.5837 57.2348 44.319 57.4578" fill="#1A1818"/>
<path d="M48.7434 61.0826C48.6697 61.0107 48.6117 60.9243 48.5731 60.8288C48.5345 60.7333 48.5161 60.6309 48.5192 60.5279C48.516 60.4253 48.5335 60.3231 48.5706 60.2274C48.6077 60.1317 48.6636 60.0444 48.7351 59.9707C48.8065 59.897 48.8921 59.8384 48.9866 59.7984C49.0811 59.7584 49.1827 59.7378 49.2854 59.7378C49.388 59.7378 49.4897 59.7584 49.5842 59.7984C49.6787 59.8384 49.7643 59.897 49.8357 59.9707C49.9072 60.0444 49.9631 60.1317 50.0002 60.2274C50.0373 60.3231 50.0548 60.4253 50.0516 60.5279C50.0528 60.68 50.0088 60.8289 49.9254 60.956C49.8419 61.0831 49.7226 61.1826 49.5827 61.2419C49.4427 61.3013 49.2883 61.3178 49.1389 61.2895C48.9895 61.2611 48.8519 61.1891 48.7434 61.0826Z" fill="#1A1818"/>
</g>
<defs>
<clipPath id="clip0_1281_3058">
<rect width="237.702" height="86" fill="white"/>
</clipPath>
</defs>
</svg>
