<svg width="238" height="86" viewBox="0 0 238 86" fill="none" xmlns="http://www.w3.org/2000/svg">
<g clip-path="url(#clip0_1281_2852)">
<path d="M222.628 86H15.0738C13.0943 86.0001 11.1342 85.6102 9.30538 84.8528C7.47654 84.0953 5.81481 82.985 4.41506 81.5853C3.01532 80.1856 1.90498 78.5239 1.14744 76.6951C0.389901 74.8663 -1.4215e-09 72.9062 0 70.9267V15.0727C7.50147e-05 13.0933 0.390031 11.1332 1.1476 9.30446C1.90518 7.47571 3.01553 5.81409 4.41526 4.41446C5.815 3.01483 7.47671 1.9046 9.30551 1.14717C11.1343 0.389732 13.0944 -7.50067e-05 15.0738 1.08257e-08H222.628C224.607 1.08257e-08 226.567 0.389867 228.396 1.14734C230.225 1.90482 231.886 3.01506 233.286 4.41469C234.685 5.81432 235.796 7.47593 236.553 9.30463C237.311 11.1333 237.7 13.0933 237.7 15.0727V70.9267C237.7 72.9061 237.311 74.8661 236.553 76.6948C235.796 78.5235 234.685 80.1851 233.286 81.5847C231.886 82.9844 230.225 84.0946 228.396 84.8521C226.567 85.6096 224.607 85.9994 222.628 85.9994" fill="#D3EFFD"/>
<path d="M26.3941 50.6499V52.956H25.1791V50.6711L22.6085 46.4199H23.9081L25.8235 49.6057L27.7582 46.4199H28.9544L26.3941 50.6499Z" fill="#1A1818"/>
<path d="M30.5161 52.6966C30.1203 52.4873 29.7916 52.1705 29.5678 51.7826C29.3439 51.3788 29.2264 50.9247 29.2264 50.463C29.2264 50.0013 29.3439 49.5472 29.5678 49.1435C29.7928 48.7586 30.1214 48.4447 30.5161 48.2375C30.9405 48.0223 31.4096 47.9102 31.8854 47.9102C32.3612 47.9102 32.8303 48.0223 33.2546 48.2375C33.6488 48.4454 33.9772 48.7592 34.2029 49.1435C34.4268 49.5472 34.5443 50.0013 34.5443 50.463C34.5443 50.9247 34.4268 51.3788 34.2029 51.7826C33.9785 52.1699 33.6499 52.4866 33.2546 52.6966C32.8301 52.9112 32.3611 53.023 31.8854 53.023C31.4097 53.023 30.9406 52.9112 30.5161 52.6966ZM32.9456 51.5941C33.2165 51.2796 33.3655 50.8784 33.3655 50.4633C33.3655 50.0483 33.2165 49.647 32.9456 49.3325C32.8075 49.191 32.6415 49.0797 32.4581 49.0056C32.2747 48.9316 32.0779 48.8964 31.8802 48.9024C31.6833 48.8961 31.4871 48.9311 31.3045 49.0051C31.1219 49.0792 30.9569 49.1908 30.82 49.3325C30.5513 49.648 30.4037 50.0489 30.4037 50.4633C30.4037 50.8777 30.5513 51.2786 30.82 51.5941C30.957 51.7356 31.1221 51.847 31.3047 51.9211C31.4873 51.9952 31.6833 52.0303 31.8802 52.0242C32.0779 52.03 32.2746 51.9947 32.4579 51.9207C32.6413 51.8466 32.8073 51.7354 32.9456 51.5941Z" fill="#1A1818"/>
<path d="M40.4957 47.9692V52.9596H39.3829V52.3226C39.1939 52.5486 38.9539 52.7262 38.6825 52.8408C38.3962 52.9641 38.0872 53.0266 37.7754 53.0241C37.4893 53.0398 37.203 52.9986 36.9329 52.903C36.6628 52.8074 36.4142 52.6593 36.2017 52.4672C35.9978 52.2463 35.8415 51.9859 35.7424 51.7021C35.6433 51.4183 35.6037 51.1172 35.6259 50.8174V47.9692H36.7946V50.6603C36.7664 51.0212 36.8744 51.3795 37.0974 51.6646C37.2092 51.7787 37.3444 51.8674 37.4937 51.9245C37.6429 51.9817 37.8027 52.0061 37.9622 51.9959C38.1461 52.005 38.3298 51.9753 38.5014 51.9085C38.673 51.8418 38.8285 51.7396 38.9579 51.6086C39.2225 51.2986 39.3554 50.8974 39.3281 50.4907V47.9692H40.4957Z" fill="#1A1818"/>
<path d="M52.3912 47.9692L50.5495 52.9596H49.4293L48.1395 49.5207L46.8313 52.9596H45.71L43.8774 47.9692H44.9816L46.2989 51.6509L47.6722 47.9692H48.653L49.9988 51.6697L51.3521 47.9692H52.3912Z" fill="#1A1818"/>
<path d="M53.2509 46.9458C53.1824 46.8816 53.1278 46.8041 53.0905 46.7181C53.0532 46.632 53.0339 46.5392 53.0339 46.4454C53.0339 46.3515 53.0532 46.2587 53.0905 46.1726C53.1278 46.0866 53.1824 46.0091 53.2509 45.9449C53.3951 45.811 53.5861 45.739 53.7828 45.7444C53.9782 45.739 54.1686 45.8071 54.3163 45.9352C54.3853 45.9949 54.4402 46.069 54.4773 46.1524C54.5143 46.2357 54.5325 46.3262 54.5305 46.4174C54.5328 46.5136 54.5153 46.6092 54.479 46.6984C54.4428 46.7875 54.3885 46.8682 54.3197 46.9355C54.2493 47.0054 54.1654 47.0602 54.073 47.0964C53.9807 47.1327 53.8819 47.1496 53.7828 47.1463C53.5861 47.1517 53.3951 47.0797 53.2509 46.9458ZM53.1938 47.9688H54.3614V52.9592H53.1949L53.1938 47.9688Z" fill="#1A1818"/>
<path d="M57.0645 46.0229H55.8969V52.9566H57.0645V46.0229Z" fill="#1A1818"/>
<path d="M59.7642 46.0229H58.5966V52.9566H59.7642V46.0229Z" fill="#1A1818"/>
<path d="M64.7545 52.6966C64.3587 52.4873 64.03 52.1705 63.8063 51.7826C63.5823 51.3788 63.4648 50.9247 63.4648 50.463C63.4648 50.0013 63.5823 49.5472 63.8063 49.1435C64.0312 48.7586 64.3598 48.4447 64.7545 48.2375C65.1789 48.0223 65.648 47.9102 66.1238 47.9102C66.5996 47.9102 67.0687 48.0223 67.493 48.2375C67.8872 48.4454 68.2156 48.7592 68.4413 49.1435C68.6652 49.5472 68.7827 50.0013 68.7827 50.463C68.7827 50.9247 68.6652 51.3788 68.4413 51.7826C68.2169 52.1699 67.8883 52.4866 67.493 52.6966C67.0685 52.9112 66.5995 53.023 66.1238 53.023C65.6481 53.023 65.179 52.9112 64.7545 52.6966ZM67.184 51.5941C67.4549 51.2796 67.6039 50.8784 67.6039 50.4633C67.6039 50.0483 67.4549 49.647 67.184 49.3325C67.0459 49.191 66.8799 49.0797 66.6965 49.0056C66.5131 48.9316 66.3163 48.8964 66.1186 48.9024C65.9217 48.8961 65.7255 48.9311 65.5429 49.0051C65.3603 49.0792 65.1953 49.1908 65.0584 49.3325C64.7897 49.648 64.6421 50.0489 64.6421 50.4633C64.6421 50.8777 64.7897 51.2786 65.0584 51.5941C65.1954 51.7356 65.3605 51.847 65.5431 51.9211C65.7257 51.9952 65.9217 52.0303 66.1186 52.0242C66.3163 52.03 66.513 51.9947 66.6963 51.9207C66.8797 51.8466 67.0457 51.7354 67.184 51.5941Z" fill="#1A1818"/>
<path d="M74.5764 47.9692L72.436 52.9596H71.2324L69.0902 47.9692H70.3052L71.8567 51.6697L73.4562 47.9692H74.5764Z" fill="#1A1818"/>
<path d="M80.1363 47.9692V52.9596H79.0235V52.3226C78.8346 52.5486 78.5945 52.7262 78.3232 52.8408C78.0368 52.9641 77.7279 53.0266 77.416 53.0241C77.1299 53.0398 76.8436 52.9986 76.5735 52.903C76.3034 52.8074 76.0549 52.6593 75.8423 52.4672C75.6384 52.2463 75.4821 51.9859 75.383 51.7021C75.284 51.4183 75.2443 51.1172 75.2665 50.8174V47.9692H76.4352V50.6603C76.407 51.0212 76.515 51.3795 76.738 51.6646C76.8499 51.7787 76.985 51.8674 77.1343 51.9245C77.2835 51.9817 77.4433 52.0061 77.6028 51.9959C77.7867 52.005 77.9704 51.9753 78.142 51.9085C78.3136 51.8418 78.4691 51.7396 78.5985 51.6086C78.8632 51.2986 78.996 50.8974 78.9687 50.4907V47.9692H80.1363Z" fill="#1A1818"/>
<path d="M82.8364 46.0229H81.6688V52.9566H82.8364V46.0229Z" fill="#1A1818"/>
<path d="M87.9622 48.4407C88.1681 48.6487 88.3269 48.8986 88.4277 49.1734C88.5285 49.4482 88.5691 49.7414 88.5465 50.0333V52.9592H87.444V52.3519C87.2939 52.5752 87.081 52.7491 86.8322 52.8518C86.5279 52.9735 86.2019 53.0318 85.8743 53.0232C85.5372 53.0305 85.2026 52.9646 84.8935 52.8301C84.631 52.7178 84.4055 52.5339 84.2428 52.2994C84.0906 52.0713 84.0109 51.8025 84.0143 51.5282C84.0072 51.3216 84.0488 51.1162 84.1356 50.9286C84.2224 50.741 84.3521 50.5763 84.5142 50.448C84.9787 50.1397 85.5334 49.9967 86.0891 50.0419H87.3772V49.967C87.3869 49.8184 87.364 49.6694 87.31 49.5305C87.256 49.3917 87.1723 49.2663 87.0647 49.1633C86.8003 48.958 86.4692 48.8581 86.1353 48.8828C85.8545 48.883 85.5754 48.9271 85.3082 49.0136C85.0584 49.0902 84.8257 49.2141 84.6227 49.3787L84.1657 48.5275C84.4489 48.3178 84.7688 48.1629 85.1088 48.0705C85.4886 47.9631 85.8817 47.9098 86.2764 47.9123C86.885 47.8712 87.4869 48.0597 87.9633 48.4407M86.8979 51.9732C87.1216 51.8446 87.2921 51.6404 87.3789 51.3974V50.8182H86.173C85.5001 50.8182 85.1637 51.0396 85.1637 51.4825C85.1606 51.581 85.1822 51.6787 85.2263 51.7668C85.2705 51.8548 85.336 51.9305 85.4167 51.9869C85.624 52.1229 85.8696 52.1884 86.1171 52.1737C86.3903 52.1784 86.6597 52.1092 86.8968 51.9732" fill="#1A1818"/>
<path d="M93.041 52.6848C92.8935 52.8024 92.7234 52.8886 92.5412 52.9378C92.339 52.9948 92.1298 53.0233 91.9197 53.0224C91.4557 53.0517 90.999 52.8967 90.6487 52.5911C90.4915 52.4247 90.3705 52.2275 90.2933 52.012C90.2161 51.7965 90.1844 51.5673 90.2003 51.3389V48.9397H89.3777V48.0058H90.2003V46.8633H91.369V48.0058H92.7046V48.9403H91.369V51.3138C91.3547 51.5153 91.4181 51.7145 91.5461 51.8708C91.6134 51.9373 91.694 51.9888 91.7826 52.0219C91.8712 52.055 91.9658 52.0689 92.0602 52.0627C92.2953 52.0708 92.5261 51.9982 92.7143 51.8571L93.041 52.6848Z" fill="#1A1818"/>
<path d="M98.6764 50.8373H94.7606C94.8198 51.1867 95.0126 51.4992 95.2981 51.709C95.6133 51.9317 95.9927 52.0451 96.3783 52.0318C96.6295 52.0393 96.8795 51.9949 97.1127 51.9014C97.3459 51.808 97.5574 51.6674 97.7339 51.4886L98.3582 52.21C98.1302 52.4803 97.8379 52.6889 97.5082 52.8167C97.1384 52.9582 96.7451 53.028 96.3492 53.0223C95.8466 53.0327 95.3491 52.9202 94.9 52.6944C94.4971 52.4897 94.1615 52.1737 93.9328 51.7839C93.711 51.3804 93.5941 50.9277 93.5928 50.4673C93.5915 50.0068 93.7059 49.5535 93.9254 49.1488C94.1394 48.7659 94.4567 48.451 94.8411 48.2399C95.248 48.0175 95.7056 47.9045 96.1692 47.912C96.6245 47.904 97.0739 48.0153 97.4728 48.2348C97.8521 48.4455 98.1632 48.7603 98.3697 49.1419C98.5906 49.5567 98.7018 50.0212 98.6924 50.4912C98.6924 50.5723 98.685 50.6882 98.6736 50.8373M95.2238 49.1779C94.962 49.4033 94.7936 49.7181 94.7514 50.061H97.5831C97.5447 49.7217 97.3819 49.4087 97.1261 49.1825C96.8615 48.955 96.5214 48.835 96.1727 48.846C95.8266 48.8363 95.4891 48.9542 95.2244 49.1773" fill="#1A1818"/>
<path d="M110.181 47.9692L108.339 52.9596H107.218L105.928 49.5207L104.62 52.9596H103.497L101.666 47.9692H102.77L104.087 51.6509L105.461 47.9692H106.442L107.788 51.6697L109.141 47.9692H110.181Z" fill="#1A1818"/>
<path d="M111.039 46.9458C110.971 46.8812 110.917 46.8036 110.881 46.7175C110.844 46.6315 110.825 46.5389 110.825 46.4453C110.825 46.3518 110.844 46.2592 110.881 46.1732C110.917 46.0871 110.971 46.0095 111.039 45.9449C111.184 45.8109 111.375 45.7389 111.573 45.7444C111.768 45.7391 111.957 45.8072 112.104 45.9352C112.174 45.9948 112.229 46.0689 112.266 46.1523C112.303 46.2356 112.322 46.3261 112.32 46.4174C112.322 46.5136 112.305 46.6092 112.268 46.6984C112.232 46.7875 112.178 46.8682 112.109 46.9355C112.039 47.0052 111.955 47.0599 111.862 47.0961C111.77 47.1323 111.671 47.1494 111.572 47.1463C111.375 47.1518 111.184 47.0798 111.039 46.9458ZM110.981 47.9688H112.149V52.9592H110.983L110.981 47.9688Z" fill="#1A1818"/>
<path d="M116.683 52.6848C116.536 52.8024 116.366 52.8886 116.184 52.9378C115.981 52.9948 115.772 53.0233 115.562 53.0224C115.098 53.0517 114.641 52.8967 114.291 52.5911C114.134 52.4247 114.013 52.2275 113.936 52.012C113.859 51.7965 113.827 51.5673 113.843 51.3389V48.9397H113.02V48.0058H113.843V46.8633H115.011V48.0058H116.347V48.9403H115.011V51.3138C114.997 51.5153 115.061 51.7145 115.189 51.8708C115.256 51.9373 115.336 51.9888 115.425 52.0219C115.514 52.055 115.608 52.0689 115.703 52.0627C115.938 52.0708 116.169 51.9982 116.357 51.8571L116.683 52.6848Z" fill="#1A1818"/>
<path d="M121.991 48.4647C122.194 48.6834 122.349 48.9414 122.447 49.2227C122.545 49.5039 122.585 49.8024 122.563 50.0995V52.9592H121.394V50.2498C121.421 49.8938 121.311 49.5409 121.085 49.2644C120.971 49.1493 120.833 49.0601 120.682 49.0028C120.53 48.9454 120.368 48.9212 120.206 48.9319C120.019 48.9223 119.832 48.9519 119.656 49.0189C119.481 49.0859 119.322 49.1888 119.188 49.321C118.921 49.6285 118.787 50.0295 118.815 50.436V52.9592H117.647V46.0249H118.814V48.5469C119.014 48.3379 119.259 48.1765 119.529 48.0745C119.833 47.9638 120.154 47.9095 120.478 47.914C120.754 47.9005 121.03 47.9423 121.29 48.0368C121.55 48.1314 121.788 48.2768 121.991 48.4647Z" fill="#1A1818"/>
<path d="M124.104 46.9458C124.036 46.8816 123.981 46.8041 123.944 46.7181C123.907 46.632 123.887 46.5392 123.887 46.4454C123.887 46.3515 123.907 46.2587 123.944 46.1726C123.981 46.0866 124.036 46.0091 124.104 45.945C124.248 45.8108 124.44 45.7388 124.636 45.7444C124.832 45.7392 125.022 45.8073 125.17 45.9352C125.239 45.9951 125.293 46.0692 125.33 46.1525C125.367 46.2358 125.386 46.3262 125.384 46.4174C125.386 46.5136 125.369 46.6092 125.333 46.6984C125.296 46.7875 125.242 46.8682 125.173 46.9355C125.103 47.0053 125.019 47.06 124.926 47.0963C124.834 47.1325 124.735 47.1495 124.636 47.1463C124.44 47.1519 124.248 47.0799 124.104 46.9458ZM124.047 47.9689H125.215V52.9592H124.048L124.047 47.9689Z" fill="#1A1818"/>
<path d="M131.095 48.4638C131.297 48.6825 131.452 48.9405 131.55 49.2218C131.649 49.5031 131.688 49.8016 131.666 50.0987V52.9583H130.497V50.2495C130.525 49.8935 130.414 49.5406 130.188 49.2641C130.074 49.149 129.937 49.0598 129.785 49.0025C129.633 48.9451 129.471 48.9209 129.31 48.9316C129.122 48.922 128.935 48.9516 128.76 49.0186C128.584 49.0856 128.425 49.1885 128.292 49.3206C128.024 49.6282 127.89 50.0292 127.918 50.4357V52.9589H126.75V47.9691H127.862V48.6135C128.058 48.3812 128.308 48.2014 128.591 48.0902C128.907 47.9678 129.243 47.9077 129.582 47.9131C129.858 47.8996 130.134 47.9414 130.394 48.036C130.654 48.1305 130.892 48.276 131.095 48.4638Z" fill="#1A1818"/>
<path d="M138.729 52.6848C138.582 52.8024 138.412 52.8886 138.229 52.9378C138.027 52.9948 137.818 53.0233 137.608 53.0224C137.144 53.0517 136.687 52.8967 136.337 52.5911C136.18 52.4247 136.059 52.2275 135.982 52.012C135.904 51.7965 135.873 51.5673 135.888 51.3389V48.9397H135.066V48.0058H135.888V46.8633H137.057V48.0058H138.393V48.9403H137.057V51.3138C137.043 51.5153 137.106 51.7145 137.234 51.8708C137.302 51.9373 137.382 51.9888 137.471 52.0219C137.559 52.055 137.654 52.0689 137.748 52.0627C137.984 52.0708 138.214 51.9982 138.403 51.8571L138.729 52.6848Z" fill="#1A1818"/>
<path d="M144.037 48.4647C144.24 48.6834 144.395 48.9414 144.493 49.2227C144.591 49.5039 144.631 49.8024 144.609 50.0995V52.9592H143.44V50.2498C143.467 49.8938 143.357 49.5409 143.131 49.2644C143.017 49.1493 142.879 49.0601 142.728 49.0028C142.576 48.9454 142.414 48.9212 142.252 48.9319C142.065 48.9223 141.877 48.9519 141.702 49.0189C141.527 49.0859 141.367 49.1888 141.234 49.321C140.967 49.6285 140.833 50.0295 140.861 50.436V52.9592H139.693V46.0249H140.861V48.5469C141.061 48.3379 141.305 48.1765 141.576 48.0745C141.88 47.9638 142.201 47.9095 142.524 47.914C142.8 47.9005 143.076 47.9423 143.336 48.0368C143.596 48.1314 143.834 48.2768 144.037 48.4647Z" fill="#1A1818"/>
<path d="M150.765 50.8376H146.851C146.909 51.1876 147.102 51.501 147.388 51.711C147.702 51.9336 148.081 52.047 148.467 52.0337C148.718 52.0416 148.968 51.9974 149.201 51.9039C149.435 51.8105 149.646 51.6697 149.822 51.4905L150.451 52.212C150.222 52.482 149.93 52.6905 149.601 52.8186C149.231 52.96 148.837 53.0298 148.442 53.0243C147.939 53.0347 147.441 52.9221 146.992 52.6964C146.589 52.492 146.253 52.1759 146.025 51.7858C145.794 51.3838 145.675 50.9267 145.682 50.4628C145.675 50.0032 145.79 49.5499 146.015 49.149C146.23 48.7651 146.549 48.4495 146.935 48.2384C147.341 48.016 147.798 47.903 148.262 47.9105C148.717 47.9027 149.167 48.014 149.566 48.2333C149.945 48.4441 150.256 48.7588 150.462 49.1404C150.683 49.5551 150.795 50.0197 150.785 50.4897C150.785 50.5708 150.778 50.6868 150.766 50.8359M147.313 49.1764C147.052 49.4022 146.884 49.7169 146.841 50.0595H149.673C149.635 49.716 149.469 49.3996 149.207 49.1741C148.945 48.9487 148.607 48.8309 148.262 48.8445C147.916 48.835 147.578 48.9535 147.313 49.1764Z" fill="#1A1818"/>
<path d="M158.831 48.4638C159.033 48.6825 159.188 48.9405 159.286 49.2218C159.385 49.5031 159.424 49.8016 159.402 50.0987V52.9583H158.233V50.2495C158.26 49.8929 158.148 49.5398 157.921 49.2635C157.807 49.1485 157.67 49.0592 157.518 49.0019C157.366 48.9445 157.204 48.9204 157.043 48.9311C156.855 48.9214 156.668 48.951 156.493 49.018C156.317 49.085 156.158 49.1879 156.025 49.3201C155.757 49.6277 155.623 50.0286 155.651 50.4351V52.9583H154.484V47.9691H155.595V48.6135C155.791 48.3812 156.041 48.2014 156.324 48.0902C156.64 47.9678 156.976 47.9077 157.315 47.9131C157.591 47.8996 157.867 47.9414 158.127 48.036C158.387 48.1305 158.625 48.276 158.828 48.4638" fill="#1A1818"/>
<path d="M165.559 50.8376H161.644C161.702 51.1876 161.895 51.501 162.181 51.711C162.496 51.9336 162.875 52.047 163.26 52.0337C163.511 52.0416 163.761 51.9974 163.995 51.9039C164.228 51.8105 164.439 51.6697 164.616 51.4905L165.241 52.212C165.013 52.482 164.721 52.6905 164.391 52.8186C164.021 52.96 163.628 53.0298 163.232 53.0243C162.729 53.0347 162.232 52.9221 161.783 52.6964C161.38 52.492 161.044 52.1759 160.816 51.7858C160.584 51.3838 160.466 50.9267 160.473 50.4628C160.466 50.0032 160.581 49.5499 160.805 49.149C161.02 48.7651 161.339 48.4495 161.725 48.2384C162.132 48.016 162.589 47.903 163.052 47.9105C163.508 47.9027 163.957 48.014 164.357 48.2333C164.736 48.4441 165.047 48.7588 165.253 49.1404C165.474 49.5551 165.585 50.0197 165.575 50.4897C165.575 50.5708 165.569 50.6868 165.556 50.8359M162.104 49.1764C161.842 49.4022 161.674 49.7168 161.631 50.0595H164.464C164.426 49.716 164.259 49.3995 163.997 49.174C163.735 48.9485 163.397 48.8307 163.052 48.8445C162.706 48.835 162.369 48.9535 162.104 49.1764Z" fill="#1A1818"/>
<path d="M169.878 52.9584L168.598 51.2287L167.307 52.9584H166.016L167.958 50.4267L166.1 47.9704H167.399L168.623 49.6064L169.849 47.9692H171.11L169.241 50.4079L171.195 52.9596L169.878 52.9584Z" fill="#1A1818"/>
<path d="M175.054 52.6848C174.906 52.8024 174.736 52.8886 174.554 52.9378C174.352 52.9948 174.143 53.0233 173.933 53.0224C173.469 53.0517 173.012 52.8967 172.662 52.5911C172.504 52.4247 172.383 52.2275 172.306 52.012C172.229 51.7965 172.197 51.5673 172.213 51.3389V48.9397H171.391V48.0058H172.213V46.8633H173.382V48.0058H174.717V48.9403H173.382V51.3138C173.368 51.5153 173.431 51.7145 173.559 51.8708C173.626 51.9373 173.707 51.9888 173.795 52.0219C173.884 52.055 173.979 52.0689 174.073 52.0627C174.308 52.0708 174.539 51.9982 174.727 51.8571L175.054 52.6848Z" fill="#1A1818"/>
<path d="M182.978 51.9308V52.9591H178.156V52.1468L180.754 49.6784C180.992 49.469 181.192 49.2213 181.347 48.9455C181.447 48.7533 181.499 48.5404 181.501 48.324C181.509 48.1912 181.486 48.0584 181.432 47.9366C181.379 47.8149 181.297 47.7076 181.194 47.6237C180.927 47.444 180.607 47.3586 180.286 47.3809C179.995 47.3644 179.703 47.418 179.437 47.5373C179.17 47.6566 178.936 47.838 178.754 48.0664L177.904 47.4112C178.172 47.0591 178.528 46.7834 178.935 46.6115C179.395 46.4158 179.89 46.3185 180.389 46.3258C180.997 46.2943 181.597 46.4724 182.09 46.8302C182.297 46.9928 182.462 47.2022 182.573 47.4411C182.683 47.68 182.735 47.9416 182.725 48.2046C182.727 48.5509 182.65 48.8932 182.501 49.2054C182.28 49.608 181.99 49.9683 181.644 50.2697L179.896 51.9331L182.978 51.9308Z" fill="#1A1818"/>
<path d="M189.51 51.4703H188.351V52.9555H187.174V51.4703H183.585V50.6317L186.809 46.4165H188.108L185.07 50.442H187.21V49.1282H188.353V50.442H189.511L189.51 51.4703Z" fill="#1A1818"/>
<path d="M195.958 52.6848C195.81 52.8024 195.64 52.8885 195.458 52.9378C195.256 52.9948 195.047 53.0233 194.836 53.0224C194.372 53.0517 193.916 52.8967 193.565 52.5911C193.408 52.4247 193.287 52.2275 193.21 52.012C193.133 51.7965 193.101 51.5673 193.117 51.3389V48.9397H192.294V48.0058H193.117V46.8633H194.286V48.0058H195.621V48.9403H194.286V51.3138C194.272 51.5153 194.335 51.7145 194.463 51.8708C194.53 51.9373 194.611 51.9888 194.699 52.0219C194.788 52.055 194.883 52.0689 194.977 52.0627C195.212 52.0708 195.443 51.9982 195.631 51.8571L195.958 52.6848Z" fill="#1A1818"/>
<path d="M197.798 52.6966C197.402 52.4873 197.074 52.1705 196.85 51.7826C196.626 51.3788 196.509 50.9247 196.509 50.463C196.509 50.0013 196.626 49.5472 196.85 49.1435C197.075 48.7586 197.404 48.4447 197.798 48.2375C198.223 48.0223 198.692 47.9102 199.167 47.9102C199.643 47.9102 200.112 48.0223 200.537 48.2375C200.931 48.4454 201.259 48.7592 201.485 49.1435C201.709 49.5472 201.826 50.0013 201.826 50.463C201.826 50.9247 201.709 51.3788 201.485 51.7826C201.261 52.1699 200.932 52.4866 200.537 52.6966C200.112 52.9112 199.643 53.023 199.167 53.023C198.692 53.023 198.223 52.9112 197.798 52.6966ZM200.228 51.5941C200.499 51.2796 200.648 50.8784 200.648 50.4633C200.648 50.0483 200.499 49.647 200.228 49.3325C200.09 49.191 199.924 49.0797 199.74 49.0056C199.557 48.9316 199.36 48.8964 199.162 48.9024C198.965 48.8961 198.769 48.9311 198.587 49.0051C198.404 49.0792 198.239 49.1908 198.102 49.3325C197.834 49.6481 197.686 50.0489 197.686 50.4633C197.686 50.8777 197.834 51.2785 198.102 51.5941C198.239 51.7356 198.404 51.847 198.587 51.9211C198.769 51.9952 198.965 52.0303 199.162 52.0242C199.36 52.03 199.557 51.9947 199.74 51.9207C199.923 51.8466 200.089 51.7354 200.228 51.5941Z" fill="#1A1818"/>
<path d="M27.2727 60.948C27.5924 61.2891 27.7639 61.7431 27.7497 62.2104C27.7533 62.5769 27.6527 62.9369 27.4595 63.2483C27.2476 63.5763 26.9438 63.8346 26.586 63.991C26.1364 64.1878 25.6486 64.2822 25.1579 64.2674C24.7007 64.2687 24.2458 64.2011 23.8087 64.0669C23.409 63.9498 23.0338 63.7615 22.701 63.5111L23.2243 62.5669C23.4803 62.7767 23.7732 62.9369 24.088 63.0393C24.4267 63.1541 24.7821 63.212 25.1397 63.2106C25.4973 63.2303 25.8521 63.1374 26.1542 62.945C26.2714 62.8649 26.3666 62.7567 26.431 62.6302C26.4955 62.5038 26.5272 62.3631 26.5232 62.2213C26.529 62.0821 26.5001 61.9438 26.4389 61.8187C26.3778 61.6936 26.2864 61.5858 26.173 61.5049C25.851 61.3115 25.4772 61.2219 25.1025 61.2484H24.5062V60.4161L25.9914 58.6493H23.0209V57.6313H27.4766V58.4436L25.8903 60.3327C26.4097 60.3676 26.8998 60.5859 27.2732 60.9485" fill="#1A1818"/>
<path d="M32.6738 60.3829C33.0037 60.5373 33.2826 60.7829 33.4775 61.0907C33.6729 61.4074 33.7733 61.7736 33.7665 62.1458C33.7752 62.5408 33.6654 62.9294 33.4512 63.2614C33.238 63.5829 32.9406 63.8398 32.5915 64.004C32.2115 64.1819 31.7961 64.2714 31.3765 64.2656C30.9879 64.2879 30.5993 64.224 30.2382 64.0787C29.8772 63.9333 29.5528 63.71 29.288 63.4248C28.7516 62.7397 28.4871 61.8806 28.5454 61.0124C28.5263 60.3622 28.6634 59.717 28.9453 59.1308C29.1929 58.6307 29.5855 58.2168 30.0718 57.9432C30.586 57.6642 31.164 57.5239 31.7489 57.5359C32.0682 57.5345 32.3865 57.5709 32.6972 57.6444C32.9696 57.7058 33.2301 57.8113 33.4684 57.9569L33.0199 58.8708C32.6455 58.6453 32.2131 58.5348 31.7763 58.5532C31.5032 58.5379 31.23 58.5818 30.9753 58.6817C30.7207 58.7817 30.4906 58.9354 30.3008 59.1325C29.9166 59.6018 29.7256 60.1999 29.7667 60.8051V60.8148C29.9668 60.5868 30.2202 60.4118 30.5042 60.3052C30.8273 60.1868 31.1695 60.1287 31.5136 60.1339C31.9142 60.1273 32.3111 60.2125 32.6738 60.3829ZM32.2339 63.0106C32.3458 62.9072 32.4352 62.7818 32.4963 62.6422C32.5574 62.5026 32.5889 62.3518 32.5889 62.1995C32.5889 62.0471 32.5574 61.8963 32.4963 61.7567C32.4352 61.6171 32.3458 61.4917 32.2339 61.3883C31.9619 61.1784 31.6237 61.0728 31.2805 61.0907C30.933 61.0755 30.5921 61.1886 30.3225 61.4083C30.2049 61.5053 30.1107 61.6276 30.0468 61.7661C29.9829 61.9045 29.9511 62.0556 29.9535 62.208C29.9503 62.3583 29.981 62.5073 30.0433 62.6441C30.1056 62.7809 30.1979 62.9019 30.3134 62.998C30.5951 63.2211 30.9492 63.3324 31.3079 63.3105C31.6432 63.3259 31.9725 63.2182 32.2339 63.0078" fill="#1A1818"/>
<path d="M41.6821 59.678C41.8844 59.8968 42.0396 60.1548 42.1378 60.4361C42.2361 60.7173 42.2754 61.0158 42.2534 61.3129V64.1725H41.084V61.4632C41.1115 61.1072 41.0008 60.7543 40.775 60.4778C40.6609 60.3627 40.5234 60.2735 40.3718 60.2161C40.2202 60.1588 40.0581 60.1346 39.8964 60.1453C39.709 60.1357 39.5217 60.1653 39.3464 60.2323C39.1711 60.2993 39.0117 60.4022 38.8785 60.5343C38.6113 60.8419 38.4769 61.2429 38.5049 61.6494V64.1725H37.3373V57.2383H38.5049V59.7603C38.705 59.5513 38.9494 59.3899 39.2201 59.2879C39.5238 59.1772 39.8451 59.1228 40.1683 59.1274C40.4446 59.1139 40.7208 59.1557 40.9807 59.2502C41.2406 59.3448 41.4791 59.4902 41.6821 59.678Z" fill="#1A1818"/>
<path d="M44.6166 63.9109C44.2207 63.7016 43.892 63.3848 43.6683 62.9969C43.4444 62.5932 43.3269 62.1391 43.3269 61.6774C43.3269 61.2157 43.4444 60.7616 43.6683 60.3578C43.8933 59.973 44.2219 59.6591 44.6166 59.4518C45.0409 59.2367 45.51 59.1245 45.9858 59.1245C46.4616 59.1245 46.9307 59.2367 47.3551 59.4518C47.7493 59.6598 48.0777 59.9735 48.3033 60.3578C48.5273 60.7616 48.6447 61.2157 48.6447 61.6774C48.6447 62.1391 48.5273 62.5932 48.3033 62.9969C48.0789 63.3843 47.7504 63.7009 47.3551 63.9109C46.9306 64.1255 46.4615 64.2374 45.9858 64.2374C45.5101 64.2374 45.0411 64.1255 44.6166 63.9109ZM47.046 62.8084C47.3169 62.494 47.4659 62.0927 47.4659 61.6777C47.4659 61.2626 47.3169 60.8614 47.046 60.5469C46.9079 60.4053 46.7419 60.294 46.5585 60.22C46.3751 60.1459 46.1784 60.1108 45.9807 60.1168C45.7837 60.1104 45.5876 60.1454 45.405 60.2195C45.2224 60.2936 45.0573 60.4051 44.9205 60.5469C44.6518 60.8624 44.5042 61.2633 44.5042 61.6777C44.5042 62.0921 44.6518 62.4929 44.9205 62.8084C45.0575 62.95 45.2226 63.0614 45.4052 63.1355C45.5877 63.2095 45.7838 63.2446 45.9807 63.2386C46.1783 63.2443 46.375 63.2091 46.5584 63.135C46.7417 63.061 46.9078 62.9498 47.046 62.8084Z" fill="#1A1818"/>
<path d="M54.5967 59.1831V64.1734H53.484V63.5365C53.295 63.7624 53.0549 63.94 52.7836 64.0546C52.4972 64.178 52.1883 64.2405 51.8765 64.238C51.5904 64.2536 51.304 64.2124 51.0339 64.1169C50.7638 64.0213 50.5153 63.8731 50.3027 63.681C50.0988 63.4602 49.9425 63.1998 49.8435 62.916C49.7444 62.6322 49.7047 62.3311 49.7269 62.0313V59.1831H50.8957V61.8742C50.8674 62.235 50.9755 62.5934 51.1984 62.8784C51.3103 62.9926 51.4455 63.0812 51.5947 63.1384C51.744 63.1956 51.9038 63.2199 52.0633 63.2098C52.2472 63.2189 52.4309 63.1891 52.6025 63.1224C52.774 63.0557 52.9296 62.9535 53.059 62.8225C53.3236 62.5125 53.4565 62.1112 53.4291 61.7046V59.1831H54.5967Z" fill="#1A1818"/>
<path d="M59.0153 59.126V60.2382C58.9258 60.2198 58.8347 60.2102 58.7434 60.2097C58.5481 60.1986 58.3526 60.2282 58.1692 60.2964C57.9859 60.3646 57.8186 60.4701 57.678 60.6061C57.405 60.9217 57.2675 61.3322 57.2953 61.7486V64.1695H56.1294V59.182H57.241V59.9109C57.4423 59.6363 57.712 59.4193 58.0234 59.2816C58.3347 59.1439 58.6767 59.0902 59.0153 59.126Z" fill="#1A1818"/>
<path d="M60.4091 64.0787C60.0805 63.999 59.7679 63.8638 59.4849 63.6789L59.9333 62.7906C60.182 62.9518 60.4543 63.0732 60.7404 63.1505C61.0429 63.2384 61.3561 63.2838 61.671 63.2853C62.3687 63.2853 62.7175 63.1017 62.7175 62.7346C62.7197 62.653 62.6946 62.5729 62.6463 62.5071C62.598 62.4412 62.5292 62.3932 62.4507 62.3707C62.1721 62.2777 61.8852 62.2117 61.5939 62.1737C61.254 62.1264 60.9181 62.0549 60.5885 61.9594C60.331 61.8782 60.0991 61.7313 59.9156 61.5333C59.7142 61.299 59.6118 60.9957 59.63 60.6873C59.6253 60.4634 59.6774 60.2419 59.7812 60.0435C59.8851 59.845 60.0374 59.6761 60.224 59.5522C60.7005 59.2463 61.2609 59.0976 61.8264 59.1272C62.1724 59.128 62.5173 59.1673 62.8546 59.2443C63.1492 59.3048 63.4328 59.4102 63.6955 59.5568L63.247 60.4451C62.8138 60.1929 62.3202 60.0631 61.8189 60.0698C61.5496 60.0542 61.2807 60.1073 61.0375 60.224C60.9598 60.2604 60.8937 60.3176 60.8466 60.3893C60.7995 60.461 60.7732 60.5444 60.7707 60.6302C60.7685 60.7188 60.7951 60.8057 60.8467 60.8779C60.8982 60.95 60.9718 61.0034 61.0563 61.03C61.3427 61.1322 61.6386 61.2057 61.9395 61.2494C62.2717 61.2961 62.5999 61.3677 62.9214 61.4636C63.1725 61.5418 63.3992 61.6835 63.5795 61.8749C63.777 62.1007 63.8777 62.3952 63.86 62.6946C63.8634 62.9178 63.8093 63.1381 63.7028 63.3344C63.5964 63.5306 63.4412 63.696 63.2522 63.8148C62.757 64.1205 62.1801 64.2674 61.599 64.2358C61.1978 64.2363 60.7983 64.1827 60.4114 64.0765" fill="#1A1818"/>
<path d="M64.6985 64.0181C64.6245 63.9462 64.5663 63.8596 64.5277 63.7639C64.489 63.6682 64.4707 63.5655 64.474 63.4623C64.4712 63.3599 64.489 63.258 64.5262 63.1626C64.5635 63.0672 64.6195 62.9802 64.6909 62.9068C64.7623 62.8334 64.8478 62.775 64.9421 62.7352C65.0365 62.6953 65.1379 62.6748 65.2403 62.6748C65.3428 62.6748 65.4441 62.6953 65.5385 62.7352C65.6329 62.775 65.7183 62.8334 65.7897 62.9068C65.8612 62.9802 65.9172 63.0672 65.9544 63.1626C65.9917 63.258 66.0094 63.3599 66.0066 63.4623C66.0079 63.6144 65.9641 63.7635 65.8807 63.8906C65.7973 64.0178 65.6781 64.1174 65.5381 64.1769C65.3981 64.2364 65.2437 64.253 65.0942 64.2248C64.9448 64.1965 64.8071 64.1246 64.6985 64.0181Z" fill="#1A1818"/>
<path d="M72.6582 61.8641V64.1702H71.4455V61.8853L68.8749 57.6341H70.1744L72.087 60.8176L74.0217 57.6318H75.2179L72.6582 61.8641Z" fill="#1A1818"/>
<path d="M76.7808 63.9109C76.3849 63.7016 76.0562 63.3848 75.8325 62.9969C75.6086 62.5932 75.4911 62.1391 75.4911 61.6774C75.4911 61.2157 75.6086 60.7616 75.8325 60.3578C76.0575 59.973 76.386 59.6591 76.7808 59.4518C77.2051 59.2367 77.6742 59.1245 78.15 59.1245C78.6258 59.1245 79.0949 59.2367 79.5193 59.4518C79.9135 59.6598 80.2419 59.9735 80.4675 60.3578C80.6914 60.7616 80.8089 61.2157 80.8089 61.6774C80.8089 62.1391 80.6914 62.5932 80.4675 62.9969C80.2431 63.3843 79.9146 63.7009 79.5193 63.9109C79.0947 64.1255 78.6257 64.2374 78.15 64.2374C77.6743 64.2374 77.2053 64.1255 76.7808 63.9109ZM79.2114 62.809C79.4823 62.4945 79.6312 62.0933 79.6312 61.6782C79.6312 61.2632 79.4823 60.8619 79.2114 60.5475C79.0733 60.4059 78.9072 60.2946 78.7239 60.2205C78.5405 60.1465 78.3437 60.1114 78.146 60.1173C77.949 60.111 77.7529 60.146 77.5703 60.2201C77.3877 60.2942 77.2227 60.4057 77.0858 60.5475C76.8171 60.863 76.6695 61.2638 76.6695 61.6782C76.6695 62.0927 76.8171 62.4935 77.0858 62.809C77.2228 62.9506 77.3879 63.062 77.5705 63.136C77.7531 63.2101 77.9491 63.2452 78.146 63.2392C78.3437 63.2449 78.5404 63.2097 78.7237 63.1356C78.9071 63.0616 79.0731 62.9504 79.2114 62.809Z" fill="#1A1818"/>
<path d="M86.7608 59.1831V64.1734H85.6486V63.5365C85.459 63.7622 85.2186 63.9397 84.9472 64.0546C84.6612 64.178 84.3526 64.2405 84.0412 64.238C83.755 64.2539 83.4686 64.2129 83.1984 64.1173C82.9283 64.0217 82.6798 63.8734 82.4674 63.681C82.2635 63.4602 82.1072 63.1998 82.0081 62.916C81.9091 62.6322 81.8694 62.3311 81.8916 62.0313V59.1831H83.0592V61.8742C83.0307 62.2353 83.1392 62.5938 83.3631 62.8784C83.4749 62.9928 83.61 63.0815 83.7593 63.1387C83.9086 63.1959 84.0684 63.2202 84.228 63.2098C84.4117 63.219 84.5953 63.1893 84.7667 63.1226C84.9381 63.0558 85.0934 62.9535 85.2225 62.8225C85.4875 62.5126 85.6208 62.1114 85.5938 61.7046V59.1831H86.7608Z" fill="#1A1818"/>
<path d="M91.228 64.0787C90.8994 63.999 90.5868 63.8638 90.3037 63.6789L90.7521 62.7906C91.0009 62.9518 91.2732 63.0732 91.5593 63.1505C91.8617 63.2384 92.1749 63.2838 92.4898 63.2853C93.1875 63.2853 93.5364 63.1017 93.5364 62.7346C93.5385 62.653 93.5135 62.5729 93.4652 62.5071C93.4169 62.4412 93.3481 62.3932 93.2696 62.3707C92.991 62.2777 92.704 62.2117 92.4127 62.1737C92.0729 62.1264 91.7369 62.0549 91.4073 61.9594C91.1499 61.8782 90.918 61.7313 90.7344 61.5333C90.5331 61.299 90.4306 60.9957 90.4488 60.6873C90.4442 60.4634 90.4962 60.2419 90.6001 60.0435C90.7039 59.845 90.8563 59.6761 91.0429 59.5522C91.5193 59.2463 92.0798 59.0976 92.6452 59.1272C92.9912 59.128 93.3361 59.1673 93.6734 59.2443C93.9681 59.3048 94.2517 59.4102 94.5143 59.5568L94.0659 60.4451C93.6327 60.1929 93.139 60.0631 92.6378 60.0698C92.3685 60.0542 92.0996 60.1073 91.8563 60.224C91.7786 60.2604 91.7125 60.3176 91.6654 60.3893C91.6183 60.461 91.5921 60.5444 91.5896 60.6302C91.5873 60.7188 91.614 60.8057 91.6655 60.8779C91.717 60.95 91.7906 61.0034 91.8752 61.03C92.1616 61.1322 92.4574 61.2057 92.7583 61.2494C93.0905 61.2961 93.4188 61.3677 93.7403 61.4636C93.9914 61.5418 94.218 61.6835 94.3984 61.8749C94.5954 62.1023 94.6948 62.3984 94.6748 62.6986C94.6783 62.9218 94.6241 63.1421 94.5177 63.3383C94.4112 63.5346 94.256 63.7 94.067 63.8188C93.5718 64.1245 92.995 64.2714 92.4139 64.2398C92.0126 64.2403 91.6132 64.1867 91.2263 64.0805" fill="#1A1818"/>
<path d="M100.03 59.678C100.233 59.8968 100.388 60.1548 100.486 60.4361C100.584 60.7173 100.624 61.0158 100.601 61.3129V64.1725H99.4327V61.4632C99.4601 61.1072 99.3494 60.7543 99.1236 60.4778C99.0095 60.3627 98.872 60.2735 98.7205 60.2161C98.5689 60.1588 98.4068 60.1346 98.2451 60.1453C98.0577 60.1357 97.8703 60.1653 97.695 60.2323C97.5197 60.2993 97.3603 60.4022 97.2271 60.5343C96.9599 60.8419 96.8255 61.2429 96.8535 61.6494V64.1725H95.6859V57.2383H96.8535V59.7603C97.0536 59.5513 97.298 59.3899 97.5687 59.2879C97.8724 59.1772 98.1938 59.1228 98.517 59.1274C98.7932 59.1139 99.0694 59.1557 99.3293 59.2502C99.5893 59.3448 99.8272 59.4902 100.03 59.678Z" fill="#1A1818"/>
<path d="M102.966 63.9109C102.57 63.7016 102.241 63.3848 102.018 62.9969C101.794 62.5932 101.676 62.1391 101.676 61.6774C101.676 61.2157 101.794 60.7616 102.018 60.3578C102.243 59.973 102.571 59.6591 102.966 59.4518C103.39 59.2367 103.859 59.1245 104.335 59.1245C104.811 59.1245 105.28 59.2367 105.704 59.4518C106.098 59.6598 106.427 59.9735 106.653 60.3578C106.876 60.7616 106.994 61.2157 106.994 61.6774C106.994 62.1391 106.876 62.5932 106.653 62.9969C106.428 63.3843 106.1 63.7009 105.704 63.9109C105.28 64.1255 104.811 64.2374 104.335 64.2374C103.859 64.2374 103.39 64.1255 102.966 63.9109ZM105.395 62.8084C105.666 62.494 105.815 62.0927 105.815 61.6777C105.815 61.2626 105.666 60.8614 105.395 60.5469C105.257 60.4053 105.091 60.294 104.908 60.22C104.724 60.1459 104.528 60.1108 104.33 60.1168C104.133 60.1104 103.937 60.1454 103.754 60.2195C103.572 60.2936 103.407 60.4051 103.27 60.5469C103.001 60.8624 102.853 61.2633 102.853 61.6777C102.853 62.0921 103.001 62.4929 103.27 62.8084C103.407 62.95 103.572 63.0614 103.754 63.1355C103.937 63.2095 104.133 63.2446 104.33 63.2386C104.528 63.2443 104.724 63.2091 104.908 63.135C105.091 63.061 105.257 62.9498 105.395 62.8084Z" fill="#1A1818"/>
<path d="M112.946 59.1831V64.1734H111.833V63.5365C111.644 63.7624 111.404 63.94 111.133 64.0546C110.846 64.178 110.537 64.2405 110.226 64.238C109.94 64.2536 109.653 64.2124 109.383 64.1169C109.113 64.0213 108.864 63.8731 108.652 63.681C108.448 63.4602 108.292 63.1998 108.193 62.916C108.094 62.6322 108.054 62.3311 108.076 62.0313V59.1831H109.245V61.8742C109.217 62.235 109.325 62.5934 109.548 62.8784C109.659 62.9926 109.795 63.0812 109.944 63.1384C110.093 63.1956 110.253 63.2199 110.412 63.2098C110.596 63.2189 110.78 63.1891 110.952 63.1224C111.123 63.0557 111.279 62.9535 111.408 62.8225C111.673 62.5125 111.806 62.1112 111.778 61.7046V59.1831H112.946Z" fill="#1A1818"/>
<path d="M115.646 57.2378H114.479V64.1715H115.646V57.2378Z" fill="#1A1818"/>
<path d="M122.066 57.2383V64.172H120.945V63.5282C120.755 63.7626 120.509 63.9455 120.23 64.06C119.932 64.1814 119.612 64.242 119.29 64.2382C118.839 64.2453 118.393 64.1359 117.997 63.9206C117.617 63.7122 117.304 63.3997 117.095 63.0198C116.871 62.6081 116.758 62.1453 116.767 61.6768C116.758 61.2107 116.871 60.7503 117.095 60.3412C117.305 59.9633 117.618 59.6525 117.997 59.4444C118.394 59.2295 118.839 59.1205 119.29 59.1279C119.6 59.1237 119.909 59.1804 120.197 59.2947C120.468 59.4045 120.708 59.5781 120.898 59.8009V57.2383H122.066ZM120.186 63.0472C120.412 62.9182 120.597 62.7286 120.72 62.5C120.848 62.2449 120.915 61.9633 120.915 61.6777C120.915 61.3921 120.848 61.1104 120.72 60.8554C120.597 60.6265 120.412 60.4368 120.186 60.3081C119.954 60.1822 119.694 60.1162 119.43 60.1162C119.165 60.1162 118.905 60.1822 118.673 60.3081C118.447 60.4369 118.263 60.6266 118.141 60.8554C118.011 61.1102 117.944 61.3919 117.944 61.6777C117.944 61.9634 118.011 62.2452 118.141 62.5C118.263 62.7285 118.448 62.9181 118.673 63.0472C118.905 63.1722 119.165 63.2376 119.43 63.2376C119.694 63.2376 119.954 63.1722 120.186 63.0472Z" fill="#1A1818"/>
<path d="M130.523 59.678C130.725 59.8968 130.88 60.1548 130.979 60.4361C131.077 60.7173 131.116 61.0158 131.094 61.3129V64.1725H129.925V61.4632C129.953 61.1072 129.842 60.7543 129.616 60.4778C129.502 60.3627 129.365 60.2735 129.213 60.2161C129.062 60.1588 128.9 60.1346 128.738 60.1453C128.55 60.1357 128.363 60.1653 128.188 60.2323C128.012 60.2993 127.853 60.4022 127.72 60.5343C127.453 60.8419 127.318 61.2429 127.346 61.6494V64.1725H126.179V57.2383H127.346V59.7603C127.546 59.5513 127.791 59.3899 128.062 59.2879C128.365 59.1772 128.687 59.1228 129.01 59.1274C129.286 59.1139 129.562 59.1557 129.822 59.2502C130.082 59.3448 130.32 59.4902 130.523 59.678Z" fill="#1A1818"/>
<path d="M136.172 59.6545C136.378 59.8625 136.537 60.1124 136.637 60.3872C136.738 60.662 136.779 60.9553 136.756 61.2472V64.1725H135.654V63.5658C135.504 63.7891 135.291 63.963 135.042 64.0656C134.738 64.1874 134.412 64.2457 134.084 64.237C133.747 64.2444 133.412 64.1785 133.103 64.0439C132.841 63.9317 132.615 63.7478 132.453 63.5133C132.3 63.2852 132.221 63.0163 132.224 62.7421C132.217 62.5355 132.258 62.3301 132.345 62.1425C132.432 61.9548 132.562 61.7902 132.724 61.6619C133.188 61.3536 133.743 61.2106 134.299 61.2557H135.587V61.1809C135.597 61.0322 135.574 60.8832 135.52 60.7443C135.465 60.6055 135.382 60.4801 135.274 60.3772C135.009 60.1718 134.678 60.0719 134.344 60.0967C134.064 60.0968 133.785 60.141 133.517 60.2275C133.268 60.3041 133.035 60.428 132.832 60.5925L132.375 59.7414C132.658 59.5317 132.978 59.3767 133.318 59.2844C133.698 59.177 134.091 59.1237 134.486 59.1261C135.094 59.0851 135.695 59.2736 136.172 59.6545ZM135.107 63.1871C135.331 63.0584 135.501 62.8543 135.588 62.6113V62.032H134.384C133.711 62.032 133.375 62.2535 133.375 62.6964C133.371 62.7949 133.393 62.8926 133.437 62.9806C133.481 63.0687 133.547 63.1444 133.628 63.2008C133.835 63.3368 134.08 63.4023 134.328 63.3876C134.601 63.3923 134.87 63.3231 135.107 63.1871Z" fill="#1A1818"/>
<path d="M142.924 59.1831L140.784 64.1734H139.579L137.436 59.1831H138.651L140.202 62.8836L141.802 59.1831H142.924Z" fill="#1A1818"/>
<path d="M148.324 62.0514H144.41C144.468 62.4015 144.661 62.7149 144.947 62.9249C145.261 63.1475 145.64 63.2609 146.026 63.2476C146.277 63.2555 146.527 63.2113 146.76 63.1178C146.994 63.0243 147.205 62.8836 147.381 62.7044L148.005 63.4258C147.776 63.6958 147.484 63.9044 147.155 64.0325C146.785 64.1739 146.391 64.2437 145.995 64.2381C145.493 64.2486 144.995 64.136 144.546 63.9102C144.143 63.7059 143.807 63.3898 143.579 62.9997C143.348 62.5977 143.229 62.1405 143.236 61.6767C143.229 61.2171 143.344 60.7638 143.569 60.3629C143.784 59.979 144.103 59.6634 144.489 59.4523C144.895 59.2298 145.352 59.1168 145.816 59.1244C146.271 59.1166 146.721 59.2278 147.12 59.4472C147.499 59.658 147.81 59.9727 148.016 60.3543C148.237 60.7689 148.349 61.2336 148.339 61.7036C148.339 61.7847 148.332 61.9006 148.32 62.0497M144.867 60.3903C144.606 60.6161 144.438 60.9307 144.395 61.2734H147.227C147.189 60.9299 147.022 60.6135 146.761 60.388C146.499 60.1625 146.161 60.0447 145.816 60.0584C145.47 60.0489 145.132 60.1673 144.867 60.3903Z" fill="#1A1818"/>
<path d="M152.399 64.0787C152.07 63.999 151.757 63.8638 151.474 63.6789L151.923 62.7906C152.171 62.9518 152.444 63.0732 152.73 63.1505C153.032 63.2384 153.345 63.2838 153.66 63.2853C154.358 63.2853 154.707 63.1017 154.707 62.7346C154.709 62.653 154.684 62.5729 154.636 62.5071C154.587 62.4412 154.519 62.3932 154.44 62.3707C154.161 62.2777 153.875 62.2117 153.583 62.1737C153.243 62.1264 152.907 62.0549 152.578 61.9594C152.32 61.8782 152.089 61.7313 151.905 61.5333C151.704 61.299 151.601 60.9957 151.619 60.6873C151.615 60.4634 151.667 60.2419 151.771 60.0435C151.874 59.845 152.027 59.6761 152.213 59.5522C152.69 59.2463 153.25 59.0976 153.816 59.1272C154.162 59.128 154.507 59.1673 154.844 59.2443C155.139 59.3048 155.422 59.4102 155.685 59.5568L155.236 60.4451C154.803 60.1929 154.31 60.0631 153.808 60.0698C153.539 60.0542 153.27 60.1073 153.027 60.224C152.949 60.2604 152.883 60.3176 152.836 60.3893C152.789 60.461 152.763 60.5444 152.76 60.6302C152.758 60.7188 152.785 60.8057 152.836 60.8779C152.888 60.95 152.961 61.0034 153.046 61.03C153.332 61.1322 153.628 61.2057 153.929 61.2494C154.261 61.2961 154.589 61.3677 154.911 61.4636C155.162 61.5418 155.389 61.6835 155.569 61.8749C155.766 62.1023 155.865 62.3984 155.845 62.6986C155.849 62.9218 155.795 63.1421 155.688 63.3383C155.582 63.5346 155.427 63.7 155.238 63.8188C154.742 64.1246 154.165 64.2716 153.584 64.2398C153.183 64.2403 152.783 64.1867 152.396 64.0805" fill="#1A1818"/>
<path d="M161.528 62.0514H157.611C157.669 62.4015 157.862 62.7149 158.148 62.9249C158.463 63.1475 158.842 63.2609 159.227 63.2476C159.478 63.2555 159.728 63.2113 159.962 63.1178C160.195 63.0243 160.406 62.8836 160.583 62.7044L161.21 63.4258C160.982 63.6958 160.689 63.9044 160.36 64.0325C159.99 64.1739 159.597 64.2437 159.201 64.2381C158.698 64.2486 158.201 64.136 157.752 63.9102C157.348 63.7059 157.013 63.3898 156.784 62.9997C156.553 62.5977 156.434 62.1405 156.442 61.6767C156.435 61.2171 156.549 60.7638 156.774 60.3629C156.989 59.979 157.308 59.6634 157.694 59.4523C158.1 59.2298 158.558 59.1168 159.021 59.1244C159.476 59.1166 159.926 59.2278 160.326 59.4472C160.705 59.658 161.015 59.9727 161.221 60.3543C161.443 60.7689 161.554 61.2336 161.544 61.7036C161.544 61.7847 161.538 61.9006 161.525 62.0497M158.073 60.3903C157.811 60.6161 157.643 60.9307 157.6 61.2734H160.432C160.395 60.9298 160.228 60.6133 159.966 60.3878C159.704 60.1623 159.366 60.0446 159.021 60.0584C158.675 60.0489 158.337 60.1673 158.073 60.3903Z" fill="#1A1818"/>
<path d="M165.847 64.1726L164.567 62.4429L163.276 64.1726H161.986L163.928 61.6409L162.07 59.1846H163.369L164.593 60.8206L165.818 59.1846H167.078L165.209 61.6232L167.163 64.1749L165.847 64.1726Z" fill="#1A1818"/>
<path d="M173.602 63.8986C173.454 64.0163 173.284 64.1024 173.102 64.1517C172.9 64.2087 172.69 64.2371 172.48 64.2362C172.016 64.2656 171.56 64.1106 171.209 63.805C171.052 63.6386 170.931 63.4414 170.854 63.2259C170.777 63.0103 170.745 62.7812 170.761 62.5528V60.1536H169.938V59.2196H170.761V58.0771H171.93V59.2196H173.265V60.1542H171.93V62.5277C171.915 62.7291 171.979 62.9284 172.107 63.0846C172.174 63.1512 172.255 63.2027 172.343 63.2357C172.432 63.2688 172.526 63.2827 172.621 63.2766C172.856 63.2846 173.087 63.2121 173.275 63.0709L173.602 63.8986Z" fill="#1A1818"/>
<path d="M175.444 63.9109C175.048 63.7016 174.719 63.3848 174.496 62.9969C174.272 62.5932 174.154 62.1391 174.154 61.6774C174.154 61.2157 174.272 60.7616 174.496 60.3578C174.721 59.973 175.049 59.6591 175.444 59.4518C175.868 59.2367 176.337 59.1245 176.813 59.1245C177.289 59.1245 177.758 59.2367 178.182 59.4518C178.577 59.6598 178.905 59.9735 179.131 60.3578C179.355 60.7616 179.472 61.2157 179.472 61.6774C179.472 62.1391 179.355 62.5932 179.131 62.9969C178.906 63.3843 178.578 63.7009 178.182 63.9109C177.758 64.1255 177.289 64.2374 176.813 64.2374C176.338 64.2374 175.868 64.1255 175.444 63.9109ZM177.873 62.8084C178.144 62.494 178.293 62.0927 178.293 61.6777C178.293 61.2626 178.144 60.8614 177.873 60.5469C177.735 60.4053 177.569 60.294 177.386 60.22C177.203 60.1459 177.006 60.1108 176.808 60.1168C176.611 60.1104 176.415 60.1454 176.232 60.2195C176.05 60.2936 175.885 60.4051 175.748 60.5469C175.479 60.8624 175.332 61.2633 175.332 61.6777C175.332 62.0921 175.479 62.4929 175.748 62.8084C175.885 62.95 176.05 63.0614 176.233 63.1355C176.415 63.2095 176.611 63.2446 176.808 63.2386C177.006 63.2443 177.202 63.2091 177.386 63.135C177.569 63.061 177.735 62.9498 177.873 62.8084Z" fill="#1A1818"/>
<path d="M185.48 57.2383V64.172H184.359V63.5282C184.169 63.7626 183.923 63.9455 183.644 64.06C183.345 64.1814 183.026 64.242 182.704 64.2382C182.253 64.2453 181.807 64.1359 181.411 63.9206C181.03 63.7122 180.718 63.3997 180.509 63.0198C180.285 62.6081 180.172 62.1453 180.181 61.6768C180.172 61.2107 180.285 60.7503 180.509 60.3412C180.719 59.9633 181.031 59.6524 181.411 59.4444C181.807 59.2295 182.253 59.1205 182.704 59.1279C183.014 59.1237 183.322 59.1804 183.611 59.2947C183.882 59.4045 184.122 59.5781 184.311 59.8009V57.2383H185.48ZM183.604 63.0472C183.829 62.9182 184.014 62.7286 184.137 62.5C184.266 62.2449 184.332 61.9633 184.332 61.6777C184.332 61.3921 184.266 61.1104 184.137 60.8554C184.014 60.6264 183.829 60.4368 183.604 60.3081C183.371 60.1822 183.111 60.1162 182.847 60.1162C182.582 60.1162 182.322 60.1822 182.09 60.3081C181.865 60.4369 181.68 60.6266 181.558 60.8554C181.429 61.1102 181.361 61.3919 181.361 61.6777C181.361 61.9634 181.429 62.2452 181.558 62.5C181.681 62.7285 181.865 62.9181 182.09 63.0472C182.322 63.1722 182.582 63.2376 182.847 63.2376C183.111 63.2376 183.371 63.1722 183.604 63.0472Z" fill="#1A1818"/>
<path d="M190.605 59.6545C190.811 59.8625 190.969 60.1124 191.07 60.3872C191.171 60.662 191.212 60.9553 191.189 61.2472V64.1725H190.087V63.5658C189.936 63.7891 189.723 63.963 189.475 64.0656C189.17 64.1874 188.844 64.2457 188.517 64.237C188.18 64.2444 187.845 64.1785 187.536 64.0439C187.273 63.9317 187.048 63.7478 186.885 63.5133C186.733 63.2852 186.653 63.0163 186.657 62.7421C186.65 62.5355 186.691 62.3301 186.778 62.1425C186.865 61.9548 186.995 61.7902 187.157 61.6619C187.621 61.3536 188.176 61.2106 188.732 61.2557H190.02V61.1809C190.029 61.0322 190.006 60.8833 189.952 60.7444C189.898 60.6056 189.815 60.4802 189.707 60.3772C189.443 60.1719 189.112 60.072 188.778 60.0967C188.497 60.0968 188.218 60.141 187.951 60.2275C187.701 60.3041 187.468 60.428 187.265 60.5925L186.808 59.7414C187.091 59.5317 187.411 59.3767 187.751 59.2844C188.131 59.177 188.524 59.1237 188.919 59.1261C189.527 59.0851 190.129 59.2736 190.606 59.6545M189.54 63.1871C189.764 63.0584 189.935 62.8543 190.021 62.6113V62.032H188.817C188.144 62.032 187.807 62.2535 187.807 62.6964C187.804 62.7949 187.826 62.8926 187.87 62.9806C187.914 63.0687 187.98 63.1444 188.06 63.2008C188.268 63.3368 188.513 63.4023 188.761 63.3876C189.034 63.3923 189.303 63.323 189.54 63.1871Z" fill="#1A1818"/>
<path d="M197.357 59.1831L195.02 64.5745C194.868 65.0227 194.593 65.4188 194.225 65.7169C193.893 65.9449 193.498 66.0613 193.095 66.0494C192.844 66.0482 192.595 66.0069 192.357 65.9272C192.136 65.8587 191.932 65.744 191.759 65.5907L192.226 64.731C192.342 64.8391 192.478 64.9245 192.626 64.9829C192.772 65.0441 192.929 65.0759 193.088 65.0766C193.271 65.0837 193.451 65.0274 193.597 64.9172C193.76 64.7715 193.886 64.5897 193.966 64.3865L194.051 64.1894L191.873 59.1831H193.088L194.658 62.8739L196.238 59.1831H197.357Z" fill="#1A1818"/>
<path d="M197.918 64.0181C197.844 63.9462 197.786 63.8596 197.747 63.7639C197.708 63.6682 197.69 63.5655 197.693 63.4623C197.69 63.3599 197.708 63.258 197.745 63.1626C197.783 63.0672 197.839 62.9802 197.91 62.9068C197.982 62.8334 198.067 62.775 198.161 62.7352C198.256 62.6953 198.357 62.6748 198.46 62.6748C198.562 62.6748 198.663 62.6953 198.758 62.7352C198.852 62.775 198.938 62.8334 199.009 62.9068C199.08 62.9802 199.136 63.0672 199.174 63.1626C199.211 63.258 199.229 63.3599 199.226 63.4623C199.227 63.6144 199.183 63.7635 199.1 63.8906C199.017 64.0178 198.897 64.1174 198.757 64.1769C198.617 64.2364 198.463 64.253 198.313 64.2248C198.164 64.1965 198.026 64.1246 197.918 64.0181Z" fill="#1A1818"/>
<path d="M63.4635 23.526C63.9381 23.7244 64.3425 24.0602 64.6248 24.4902C64.8892 24.9419 65.0285 25.4558 65.0285 25.9791C65.0285 26.5025 64.8892 27.0164 64.6248 27.4681C64.3438 27.9009 63.9392 28.2392 63.4635 28.4392C62.9014 28.6744 62.2961 28.7886 61.6869 28.7745H59.9161V31.0412H58.4572V23.1901H61.6869C62.2962 23.1763 62.9015 23.2904 63.4635 23.526ZM63.0636 27.1373C63.2297 26.9962 63.3608 26.8184 63.4464 26.6179C63.5321 26.4175 63.57 26.1999 63.5572 25.9823C63.57 25.7647 63.5321 25.5471 63.4464 25.3466C63.3608 25.1462 63.2297 24.9684 63.0636 24.8272C62.6424 24.5302 62.1315 24.3875 61.6172 24.4234H59.915V27.5406H61.6195C62.1338 27.5765 62.6446 27.4339 63.0659 27.1368" fill="#0F849C"/>
<path d="M72.0806 28.4957H67.3822C67.452 28.9159 67.6838 29.2921 68.0277 29.5434C68.4052 29.8106 68.8599 29.9467 69.3221 29.9307C69.6236 29.94 69.9237 29.887 70.2037 29.7751C70.4837 29.6631 70.7377 29.4946 70.9496 29.28L71.7008 30.1437C71.4263 30.4683 71.075 30.7188 70.6788 30.8726C70.1735 31.0573 69.6363 31.1392 69.0989 31.1136C68.5615 31.088 68.0345 30.9554 67.549 30.7236C67.0656 30.4775 66.6629 30.0978 66.3888 29.6296C66.1114 29.1472 65.9697 28.5986 65.9787 28.0422C65.9714 27.4912 66.1093 26.948 66.3785 26.4673C66.6374 26.0071 67.0199 25.6285 67.4827 25.3745C67.9712 25.108 68.5202 24.9724 69.0765 24.9809C69.6225 24.9719 70.1613 25.1054 70.64 25.3682C71.0961 25.6216 71.4705 25.9999 71.7191 26.4587C71.9845 26.9571 72.1174 27.5153 72.1052 28.0799C72.1052 28.177 72.0978 28.3152 72.0829 28.4946M67.9397 26.5032C67.6267 26.7748 67.4249 27.1523 67.3731 27.5635H70.7708C70.7246 27.1564 70.5292 26.781 70.2224 26.5095C69.8989 26.2491 69.4964 26.1065 69.081 26.1054C68.6657 26.1042 68.2624 26.2446 67.9375 26.5032" fill="#0F849C"/>
<path d="M77.805 25.6187C78.0522 25.8683 78.2428 26.1682 78.3639 26.498C78.4849 26.8278 78.5335 27.1798 78.5064 27.5301V31.0398H77.1834V30.3115C77.0028 30.5796 76.7471 30.7885 76.4483 30.9118C76.0836 31.0592 75.6926 31.13 75.2995 31.1198C74.8953 31.1284 74.4938 31.0505 74.1222 30.8913C73.807 30.7558 73.5366 30.5338 73.3424 30.2509C73.159 29.978 73.0633 29.6555 73.0682 29.3267C73.0601 29.0791 73.11 28.833 73.2141 28.6083C73.3182 28.3835 73.4734 28.1862 73.6675 28.0322C74.2243 27.6611 74.8901 27.4886 75.5571 27.5427H77.1046V27.4518C77.1158 27.2734 77.0878 27.0947 77.0228 26.9282C76.9578 26.7616 76.8573 26.6113 76.7282 26.4876C76.4109 26.2414 76.0136 26.1215 75.6131 26.1511C75.276 26.1513 74.941 26.2043 74.6203 26.3082C74.3203 26.4001 74.0407 26.5487 73.7966 26.7458L73.247 25.7267C73.5869 25.4741 73.9712 25.2873 74.3798 25.176C74.8359 25.0474 75.3077 24.9831 75.7816 24.9852C76.5117 24.9356 77.2338 25.1613 77.805 25.6187ZM76.5282 29.8579C76.7964 29.7034 77.0012 29.4589 77.1063 29.1679V28.4732H75.6582C74.8509 28.4732 74.4472 28.7383 74.4472 29.2684C74.4437 29.3866 74.4695 29.5039 74.5223 29.6098C74.5752 29.7156 74.6534 29.8068 74.75 29.875C74.9991 30.0376 75.2939 30.1157 75.5908 30.0978C75.9188 30.1041 76.2422 30.0209 76.5265 29.8573" fill="#0F849C"/>
<path d="M82.7508 28.4727L81.7078 29.4598V31.0404H80.3065V22.7197H81.7083V27.7421L84.6125 25.0521H86.2948L83.7939 27.5655L86.5302 31.0421H84.8256L82.7508 28.4727Z" fill="#0F849C"/>
<path d="M92.1254 24.4126V26.801H95.9156V28.0343H92.1254V31.0396H90.6676V23.1919H96.3988V24.4126H92.1254Z" fill="#0F849C"/>
<path d="M103.261 28.4959H98.5632C98.6326 28.916 98.8639 29.2921 99.2076 29.5435C99.5851 29.8108 100.04 29.9468 100.502 29.9308C100.803 29.9401 101.104 29.8872 101.384 29.7752C101.664 29.6633 101.918 29.4947 102.129 29.2802L102.881 30.1439C102.606 30.4684 102.254 30.7187 101.858 30.8717C101.353 31.0566 100.816 31.139 100.279 31.114C99.7421 31.089 99.2154 30.9571 98.73 30.726C98.2476 30.4797 97.8461 30.1 97.5733 29.6321C97.2958 29.1496 97.1541 28.6011 97.1631 28.0446C97.1558 27.4936 97.2937 26.9504 97.563 26.4697C97.8207 26.0096 98.2023 25.6311 98.6643 25.3769C99.1527 25.1104 99.7018 24.9749 100.258 24.9833C100.804 24.9744 101.342 25.1079 101.82 25.3706C102.275 25.6226 102.649 25.9991 102.897 26.456C103.163 26.9543 103.296 27.5125 103.285 28.0772C103.285 28.1743 103.276 28.3125 103.261 28.4919M99.1156 26.5034C98.8026 26.775 98.6009 27.1525 98.5489 27.5636H101.948C101.901 27.1568 101.706 26.7815 101.399 26.5097C101.076 26.2492 100.673 26.1067 100.258 26.1055C99.8427 26.1044 99.4394 26.2447 99.1145 26.5034" fill="#0F849C"/>
<path d="M108.161 24.985V26.3195C108.054 26.2989 107.945 26.2876 107.836 26.2858C107.602 26.2722 107.367 26.3076 107.147 26.3898C106.927 26.4719 106.726 26.5989 106.558 26.7627C106.231 27.1418 106.067 27.6344 106.101 28.1337V31.0379H104.696V25.0536H106.03V25.9264C106.272 25.5963 106.596 25.3354 106.97 25.1699C107.344 25.0044 107.755 24.94 108.161 24.9833" fill="#0F849C"/>
<path d="M113.338 30.7157C113.16 30.8558 112.957 30.9587 112.739 31.0185C112.496 31.0868 112.244 31.1209 111.992 31.1196C111.436 31.1561 110.887 30.9713 110.467 30.6055C110.278 30.4058 110.133 30.1691 110.04 29.9104C109.948 29.6517 109.91 29.3767 109.929 29.1026V26.2178H108.942V25.0976H109.929V23.7295H111.331V25.0976H112.935V26.2178H111.33V29.066C111.314 29.3073 111.39 29.5458 111.544 29.7326C111.624 29.8123 111.721 29.8739 111.827 29.9133C111.934 29.9527 112.047 29.969 112.16 29.9611C112.443 29.9717 112.72 29.8849 112.945 29.7155L113.338 30.7157Z" fill="#0F849C"/>
<path d="M114.561 23.8248C114.48 23.7475 114.415 23.6544 114.371 23.5513C114.326 23.4482 114.304 23.3372 114.304 23.225C114.304 23.1129 114.326 23.0019 114.371 22.8987C114.415 22.7956 114.48 22.7026 114.561 22.6252C114.734 22.4642 114.964 22.3778 115.2 22.3847C115.434 22.3774 115.662 22.459 115.838 22.6132C115.921 22.6844 115.988 22.7732 116.032 22.8732C116.077 22.9732 116.099 23.0818 116.096 23.1913C116.099 23.3067 116.078 23.4214 116.035 23.5283C115.992 23.6353 115.927 23.7321 115.844 23.8128C115.76 23.897 115.659 23.9629 115.548 24.0064C115.438 24.0499 115.319 24.0702 115.2 24.0659C114.964 24.0729 114.734 23.9859 114.561 23.8248ZM114.492 25.0524H115.894V31.0401H114.492V25.0524Z" fill="#0F849C"/>
<path d="M119.135 22.7192H117.733V31.0399H119.135V22.7192Z" fill="#0F849C"/>
<path d="M121.054 23.8249C120.973 23.7475 120.908 23.6544 120.864 23.5513C120.82 23.4482 120.797 23.3372 120.797 23.2251C120.797 23.1129 120.82 23.0019 120.864 22.8988C120.908 22.7957 120.973 22.7026 121.054 22.6253C121.227 22.4642 121.457 22.3778 121.693 22.3848C121.928 22.3772 122.156 22.4589 122.332 22.6133C122.415 22.6846 122.482 22.7735 122.526 22.8734C122.571 22.9733 122.593 23.0819 122.591 23.1913C122.594 23.3068 122.573 23.4216 122.529 23.5286C122.486 23.6356 122.42 23.7323 122.338 23.8129C122.253 23.897 122.153 23.9629 122.042 24.0065C121.931 24.05 121.812 24.0702 121.693 24.0659C121.457 24.0729 121.227 23.9859 121.054 23.8249ZM120.987 25.0524H122.388V31.0402H120.986L120.987 25.0524Z" fill="#0F849C"/>
<path d="M127.879 30.7157C127.701 30.8558 127.497 30.9587 127.279 31.0185C127.036 31.0868 126.785 31.1209 126.533 31.1196C125.976 31.1561 125.428 30.9713 125.008 30.6055C124.819 30.4058 124.674 30.1691 124.581 29.9104C124.488 29.6517 124.45 29.3767 124.469 29.1026V26.2178H123.48V25.0976H124.467V23.7295H125.869V25.0976H127.472V26.2178H125.869V29.066C125.852 29.3073 125.928 29.5458 126.082 29.7326C126.163 29.8123 126.26 29.8739 126.366 29.9133C126.472 29.9527 126.586 29.969 126.699 29.9611C126.981 29.9717 127.258 29.8849 127.484 29.7155L127.879 30.7157Z" fill="#0F849C"/>
<path d="M134.902 25.0522L132.098 31.5215C131.916 32.0606 131.586 32.5372 131.144 32.8959C130.746 33.1693 130.271 33.3093 129.788 33.2958C129.487 33.2953 129.188 33.2465 128.902 33.1513C128.637 33.069 128.392 32.9314 128.184 32.7474L128.745 31.7157C128.885 31.8449 129.046 31.9475 129.222 32.0185C129.398 32.092 129.586 32.1308 129.777 32.1327C129.997 32.1416 130.213 32.0737 130.389 31.9408C130.584 31.7658 130.736 31.5472 130.831 31.3027L130.932 31.0662L128.319 25.0568H129.777L131.662 29.4862L133.557 25.0568L134.902 25.0522Z" fill="#0F849C"/>
<path d="M31.2136 33.2286C31.3007 33.3188 31.405 33.3906 31.5203 33.4396C31.6357 33.4887 31.7598 33.5139 31.8851 33.5139C32.0105 33.5139 32.1346 33.4887 32.2499 33.4396C32.3653 33.3906 32.4696 33.3188 32.5566 33.2286L39.9222 25.5894C40.2932 25.2047 40.5848 24.7506 40.7804 24.2531C40.9759 23.7557 41.0716 23.2246 41.0619 22.6902C41.0522 22.1557 40.9373 21.6285 40.7238 21.1384C40.5103 20.6484 40.2024 20.2052 39.8176 19.8342C39.4329 19.4632 38.9788 19.1716 38.4814 18.976C37.9839 18.7805 37.4528 18.6848 36.9184 18.6945C36.384 18.7042 35.8567 18.8191 35.3667 19.0326C34.8766 19.2461 34.4334 19.554 34.0624 19.9387L32.7566 21.2983L33.9476 22.5304C34.0595 22.6465 34.123 22.8008 34.1252 22.962C34.1274 23.1231 34.0681 23.2791 33.9594 23.3981C33.8507 23.5172 33.7007 23.5903 33.54 23.6028C33.3793 23.6152 33.2199 23.5659 33.0942 23.465L33.037 23.4113L31.6529 21.9786C31.626 21.9515 31.6017 21.9218 31.5804 21.8901L29.6953 19.9387C28.9457 19.1629 27.9187 18.7164 26.84 18.6973C25.7614 18.6781 24.7192 19.088 23.9426 19.8368C23.1659 20.5856 22.7183 21.6121 22.698 22.6907C22.6777 23.7694 23.0864 24.812 23.8344 25.5894L31.2136 33.2286Z" fill="#0F849C"/>
<g opacity="0.4">
<mask id="mask0_1281_2852" style="mask-type:luminance" maskUnits="userSpaceOnUse" x="24" y="12" width="4" height="5">
<path d="M27.0892 12.8887H24.0228V16.0722H27.0892V12.8887Z" fill="white"/>
</mask>
<g mask="url(#mask0_1281_2852)">
<path d="M25.9942 15.8727C26.0502 15.9368 26.1186 15.989 26.1952 16.0261C26.2719 16.0632 26.3552 16.0845 26.4402 16.0887C26.5253 16.093 26.6103 16.08 26.6902 16.0506C26.7702 16.0213 26.8434 15.9761 26.9055 15.9179C26.9676 15.8596 27.0173 15.7894 27.0517 15.7115C27.0861 15.6336 27.1044 15.5496 27.1057 15.4644C27.1069 15.3793 27.0909 15.2948 27.0587 15.2159C27.0266 15.1371 26.9789 15.0655 26.9184 15.0055L25.1202 13.0919C25.0036 12.9761 24.8467 12.9101 24.6824 12.9078C24.5181 12.9054 24.3594 12.967 24.2395 13.0794C24.1197 13.1918 24.0482 13.3463 24.0401 13.5104C24.0319 13.6745 24.0878 13.8353 24.1959 13.959L25.9942 15.8727Z" fill="#0F849C"/>
</g>
</g>
<g opacity="0.4">
<mask id="mask1_1281_2852" style="mask-type:luminance" maskUnits="userSpaceOnUse" x="36" y="12" width="4" height="5">
<path d="M39.7389 12.8901H36.6719V16.0725H39.7389V12.8901Z" fill="white"/>
</mask>
<g mask="url(#mask1_1281_2852)">
<path d="M37.3065 16.0726C37.393 16.0726 37.4787 16.0549 37.5581 16.0206C37.6376 15.9863 37.7092 15.9362 37.7686 15.8733L39.568 13.9568C39.6254 13.8961 39.6703 13.8248 39.7 13.7468C39.7298 13.6688 39.7439 13.5857 39.7414 13.5022C39.739 13.4188 39.7201 13.3367 39.6858 13.2605C39.6516 13.1844 39.6026 13.1158 39.5418 13.0587C39.4809 13.0015 39.4094 12.9569 39.3313 12.9275C39.2532 12.898 39.17 12.8843 39.0866 12.8871C39.0031 12.8898 38.9211 12.9091 38.8451 12.9436C38.7691 12.9782 38.7007 13.0274 38.6438 13.0885L36.8444 15.005C36.7599 15.0952 36.7035 15.2081 36.6824 15.3299C36.6612 15.4517 36.676 15.577 36.7251 15.6904C36.7742 15.8039 36.8554 15.9005 36.9587 15.9684C37.062 16.0363 37.1829 16.0725 37.3065 16.0726Z" fill="#0F849C"/>
</g>
</g>
<g opacity="0.4">
<mask id="mask2_1281_2852" style="mask-type:luminance" maskUnits="userSpaceOnUse" x="31" y="10" width="2" height="5">
<path d="M32.5143 10.2627H31.2467V14.8926H32.5143V10.2627Z" fill="white"/>
</mask>
<g mask="url(#mask2_1281_2852)">
<path d="M31.8808 14.8925C32.0489 14.8923 32.2101 14.8255 32.329 14.7066C32.4479 14.5877 32.5147 14.4265 32.5149 14.2584V10.8967C32.5149 10.7283 32.448 10.5668 32.3289 10.4477C32.2098 10.3286 32.0483 10.2617 31.8799 10.2617C31.7115 10.2617 31.55 10.3286 31.431 10.4477C31.3119 10.5668 31.245 10.7283 31.245 10.8967V14.2584C31.2453 14.4267 31.3124 14.5879 31.4314 14.7068C31.5505 14.8257 31.7125 14.8925 31.8808 14.8925Z" fill="#0F849C"/>
</g>
</g>
<g opacity="0.4">
<mask id="mask3_1281_2852" style="mask-type:luminance" maskUnits="userSpaceOnUse" x="36" y="35" width="4" height="4">
<path d="M39.7389 35.354H36.6719V38.5375H39.7389V35.354Z" fill="white"/>
</mask>
<g mask="url(#mask3_1281_2852)">
<path d="M37.7675 35.5553C37.651 35.4395 37.494 35.3735 37.3297 35.3712C37.1655 35.3688 37.0067 35.4303 36.8869 35.5427C36.7671 35.6552 36.6956 35.8097 36.6874 35.9738C36.6793 36.1379 36.7352 36.2987 36.8433 36.4224L38.6432 38.34C38.7584 38.4625 38.9174 38.5341 39.0854 38.5393C39.2534 38.5444 39.4165 38.4826 39.5389 38.3675C39.6614 38.2523 39.733 38.0933 39.7382 37.9253C39.7433 37.7573 39.6815 37.5942 39.5664 37.4718L37.7675 35.5553Z" fill="#0F849C"/>
</g>
</g>
<g opacity="0.4">
<mask id="mask4_1281_2852" style="mask-type:luminance" maskUnits="userSpaceOnUse" x="24" y="35" width="4" height="4">
<path d="M27.0893 35.354H24.0223V38.5375H27.0893V35.354Z" fill="white"/>
</mask>
<g mask="url(#mask4_1281_2852)">
<path d="M25.9937 35.5551L24.1943 37.4705C24.0794 37.5931 24.0179 37.7563 24.0233 37.9242C24.0286 38.0922 24.1004 38.2511 24.2229 38.3662C24.2835 38.4234 24.3548 38.4681 24.4326 38.4977C24.5105 38.5274 24.5935 38.5414 24.6768 38.5389C24.7601 38.5365 24.8421 38.5176 24.9181 38.4835C24.9941 38.4493 25.0626 38.4005 25.1197 38.3399L26.9191 36.4234C27.0272 36.2997 27.0831 36.1388 27.075 35.9747C27.0668 35.8107 26.9953 35.6561 26.8755 35.5437C26.7557 35.4313 26.5969 35.3698 26.4327 35.3721C26.2684 35.3745 26.1114 35.4405 25.9949 35.5562" fill="#0F849C"/>
</g>
</g>
<g opacity="0.4">
<mask id="mask5_1281_2852" style="mask-type:luminance" maskUnits="userSpaceOnUse" x="31" y="36" width="2" height="6">
<path d="M32.5143 36.5332H31.2467V41.1631H32.5143V36.5332Z" fill="white"/>
</mask>
<g mask="url(#mask5_1281_2852)">
<path d="M31.8808 36.5332C31.7126 36.5332 31.5512 36.6 31.4321 36.7188C31.313 36.8377 31.2459 36.999 31.2456 37.1673V40.529C31.2456 40.6974 31.3125 40.8589 31.4316 40.978C31.5506 41.0971 31.7121 41.1639 31.8805 41.1639C32.0489 41.1639 32.2104 41.0971 32.3295 40.978C32.4486 40.8589 32.5155 40.6974 32.5155 40.529V37.1673C32.5153 36.9992 32.4485 36.838 32.3296 36.7191C32.2107 36.6002 32.0495 36.5334 31.8814 36.5332" fill="#0F849C"/>
</g>
</g>
</g>
<defs>
<clipPath id="clip0_1281_2852">
<rect width="237.701" height="86" fill="white"/>
</clipPath>
</defs>
</svg>
